<?xml version="1.0" encoding="UTF-8"?>
<svg version="1.1" xmlns="http://www.w3.org/2000/svg" width="578" height="482">
<path d="M0 0 C1.06413116 -0.00700928 2.12826233 -0.01401855 3.22463989 -0.02124023 C6.73466246 -0.03881453 10.24387578 -0.02719877 13.75390625 -0.01367188 C16.19718582 -0.01636693 18.64046434 -0.02024947 21.08374023 -0.02526855 C26.20143863 -0.03116287 31.31885755 -0.02260237 36.43652344 -0.00390625 C42.99385322 0.01888274 49.5505281 0.00575938 56.10783386 -0.01819611 C61.15219042 -0.03265557 66.19639192 -0.02804729 71.24075317 -0.01768494 C73.65845823 -0.01501809 76.0761774 -0.0182859 78.49386597 -0.02760315 C81.87389375 -0.03777065 85.25286345 -0.02226323 88.6328125 0 C90.12918747 -0.01214539 90.12918747 -0.01214539 91.65579224 -0.02453613 C99.01861396 0.06523189 102.2609639 1.61776102 107.6171875 6.70117188 C108.28105469 7.44496094 108.94492187 8.18875 109.62890625 8.95507812 C110.30566406 9.69628906 110.98242188 10.4375 111.6796875 11.20117188 C114.95562207 15.83751841 114.45233471 21.17648779 114.4140625 26.66210938 C114.41194008 27.81678963 114.41194008 27.81678963 114.40977478 28.99479675 C114.40420231 31.439931 114.39165496 33.88497181 114.37890625 36.33007812 C114.37388769 37.99348826 114.3693254 39.65689983 114.36523438 41.3203125 C114.35424191 45.38610341 114.33699635 49.45182495 114.31640625 53.51757812 C115.43505066 53.50869568 116.55369507 53.49981323 117.70623779 53.49066162 C128.24169466 53.40962073 138.77708841 53.34963429 149.3127861 53.31032944 C154.72948941 53.28944314 160.14594136 53.26110619 165.5625 53.21582031 C170.78853073 53.17240016 176.01431949 53.14844888 181.24051666 53.13806915 C183.23566752 53.13067092 185.23080495 53.11622408 187.22585297 53.0946579 C190.01772311 53.06567493 192.80858988 53.06161999 195.60058594 53.06347656 C196.84136398 53.04190491 196.84136398 53.04190491 198.10720825 53.01989746 C201.57482826 53.04489476 203.88019673 53.23749008 206.82978821 55.13140869 C208.80135364 58.29596679 208.81759418 60.42809867 208.81811523 64.15039062 C208.82621971 65.13649323 208.82621971 65.13649323 208.83448792 66.14251709 C208.84696749 68.30966597 208.83049155 70.47548418 208.8125 72.64257812 C208.81265501 74.15185618 208.8141443 75.66113463 208.81690979 77.17041016 C208.81829342 80.33123402 208.80574241 83.49160393 208.78295898 86.65234375 C208.75457394 90.70113 208.75731189 94.74916209 208.7700491 98.79800415 C208.77700871 101.91388373 208.76921387 105.02958941 208.75679207 108.14544678 C208.75228028 109.63815646 208.7519384 111.13088483 208.75585747 112.62359619 C208.7587726 114.71104099 208.74225047 116.79745163 208.72045898 118.88476562 C208.715056 120.07183105 208.70965302 121.25889648 208.7040863 122.48193359 C208.28026035 125.80061077 207.66707207 127.17612635 205.31640625 129.51757812 C202.44140625 130.51757812 202.44140625 130.51757812 199.31640625 130.51757812 C196.56924238 128.74718363 194.78494703 127.45465969 193.31640625 124.51757812 C193.31640625 106.03757812 193.31640625 87.55757812 193.31640625 68.51757812 C94.97640625 68.51757812 -3.36359375 68.51757812 -104.68359375 68.51757812 C-104.68359375 192.59757813 -104.68359375 316.67757813 -104.68359375 444.51757812 C-101.05359375 444.51757812 -97.42359375 444.51757812 -93.68359375 444.51757812 C-93.68635913 443.5162875 -93.68912451 442.51499687 -93.69197369 441.48336411 C-93.75852168 417.13902881 -93.80784693 392.79470529 -93.83903027 368.45029831 C-93.85451045 356.67760743 -93.87562197 344.90497658 -93.90991211 333.13232422 C-93.93977921 322.8733352 -93.95916037 312.61438965 -93.96585923 302.35535836 C-93.96977605 296.92141863 -93.97900502 291.48760325 -94.00078392 286.05370331 C-94.02110657 280.94185253 -94.0274361 275.83017766 -94.02291679 270.71829033 C-94.02374389 268.83971896 -94.02973459 266.96114186 -94.04121017 265.08260536 C-94.0560883 262.52203585 -94.05256462 259.96213457 -94.0443573 257.40155029 C-94.05309582 256.65446674 -94.06183435 255.90738319 -94.07083768 255.13766074 C-94.04349274 251.99155322 -93.85730547 249.82928413 -92.31168079 247.05583572 C-90.07511681 244.9426738 -88.656147 245.01302982 -85.62109375 245.08007812 C-84.74324219 245.08136719 -83.86539063 245.08265625 -82.9609375 245.08398438 C-82.20941406 245.22707031 -81.45789063 245.37015625 -80.68359375 245.51757812 C-78.21266369 249.22397321 -78.40996112 252.03281666 -78.44308472 256.31925964 C-78.44137587 257.12219918 -78.43966702 257.92513872 -78.43790638 258.75240976 C-78.43460346 261.45181028 -78.44562834 264.15096405 -78.45654297 266.8503418 C-78.45710691 268.78179417 -78.45679086 270.71324697 -78.45565796 272.6446991 C-78.45508278 277.89645742 -78.46686385 283.14812489 -78.48080587 288.39986205 C-78.49328568 293.88516644 -78.49448156 299.37047279 -78.49685669 304.85578918 C-78.50307956 315.24675423 -78.51950128 325.63767733 -78.53955567 336.02862388 C-78.56606348 350.06726838 -78.57688079 364.10592431 -78.5885601 378.14458752 C-78.6073813 400.26894916 -78.64722162 422.39322226 -78.68359375 444.51757812 C-40.40359375 444.51757812 -2.12359375 444.51757812 37.31640625 444.51757812 C37.31640625 339.57757813 37.31640625 234.63757812 37.31640625 126.51757812 C-0.96359375 126.51757812 -39.24359375 126.51757812 -78.68359375 126.51757812 C-78.56479473 158.63447461 -78.56479473 158.63447461 -78.41333008 190.7512207 C-78.39978027 196.95837402 -78.39978027 196.95837402 -78.39726257 199.86283875 C-78.39265131 201.89439361 -78.3820908 203.92594018 -78.36686707 205.95744324 C-78.34497514 209.03207701 -78.34187344 212.10620842 -78.34301758 215.1809082 C-78.33222325 216.0882134 -78.32142893 216.99551859 -78.3103075 217.93031788 C-78.31443999 218.75731032 -78.31857248 219.58430277 -78.3228302 220.43635559 C-78.32006482 221.15627591 -78.31729944 221.87619623 -78.31445026 222.61793232 C-78.79516972 225.09175816 -79.74080437 225.96092198 -81.68359375 227.51757812 C-85.15769812 228.8321041 -86.43782117 228.61683244 -89.93359375 227.20507812 C-92.68359375 225.51757812 -92.68359375 225.51757812 -93.68359375 223.51757812 C-93.78553698 221.70224094 -93.82307646 219.883153 -93.83076477 218.06497192 C-93.83792007 216.90684998 -93.84507538 215.74872803 -93.85244751 214.55551147 C-93.85513641 213.27858429 -93.85782532 212.0016571 -93.8605957 210.68603516 C-93.86685961 209.33263982 -93.87350635 207.97924621 -93.88050842 206.62585449 C-93.89792304 202.94400958 -93.9084711 199.26217766 -93.91671395 195.58030176 C-93.9218624 193.28101914 -93.92793815 190.98174056 -93.93422508 188.68246078 C-93.95327717 181.49141303 -93.96750911 174.30037555 -93.97583705 167.10930741 C-93.98561514 158.80283293 -94.01194924 150.49662453 -94.05233794 142.19024384 C-94.08247162 135.77320664 -94.09730324 129.35624584 -94.10061806 122.93913925 C-94.10297142 119.10477455 -94.11196856 115.27069411 -94.13707924 111.43640518 C-94.16031775 107.82973826 -94.16461063 104.2235436 -94.15431786 100.61682129 C-94.15358452 98.66140713 -94.17270482 96.70601718 -94.19238281 94.7507019 C-94.185439 93.58694031 -94.17849518 92.42317871 -94.17134094 91.22415161 C-94.1737293 90.21277697 -94.17611765 89.20140232 -94.17857838 88.15937996 C-93.54591743 84.78278043 -92.3463039 83.62333704 -89.68359375 81.51757812 C-86.86347849 80.5775397 -85.15439739 80.39153863 -82.23666573 80.38894367 C-80.86335679 80.384107 -80.86335679 80.384107 -79.46230423 80.37917262 C-78.4550249 80.38072123 -77.44774557 80.38226983 -76.40994263 80.38386536 C-75.34101646 80.3815998 -74.2720903 80.37933424 -73.17077243 80.37700003 C-69.57103147 80.37064458 -65.971328 80.37149039 -62.37158203 80.37231445 C-59.79800365 80.36932393 -57.22442572 80.36592165 -54.65084839 80.36213684 C-48.37503102 80.35382409 -42.09922304 80.35108172 -35.82340063 80.35052446 C-30.72292201 80.35004959 -25.62244649 80.34799628 -20.52196884 80.34482384 C-6.06658759 80.3360155 8.38878624 80.33140473 22.8441702 80.33215431 C24.01354472 80.33221425 24.01354472 80.33221425 25.20654297 80.33227539 C25.98707598 80.33231627 26.767609 80.33235715 27.57179452 80.33239927 C40.22323104 80.33280578 52.87463779 80.32323562 65.52606569 80.30913702 C78.51115943 80.29478059 91.49623865 80.28786644 104.48134053 80.2887308 C111.77361312 80.28906303 119.06585451 80.2863047 126.35811996 80.27555275 C133.21495783 80.26550774 140.07172871 80.26577562 146.92856979 80.27306938 C149.44851274 80.27411829 151.96845973 80.27173427 154.48839569 80.26570892 C157.92193824 80.25802937 161.3552505 80.2626071 164.78878784 80.27033997 C165.79160573 80.2651964 166.79442362 80.26005284 167.82762992 80.25475341 C176.71152096 80.29912483 176.71152096 80.29912483 180.31640625 82.51757812 C181.39603383 85.75646085 181.44064172 88.08600194 181.43945408 91.49335766 C181.44144513 92.74986982 181.44343618 94.00638197 181.44548756 95.30097026 C181.44263433 96.70310369 181.43968872 98.10523693 181.43666077 99.50737 C181.43709659 100.99076268 181.4379717 102.47415529 181.43924993 103.95754749 C181.44149272 108.04394422 181.43747654 112.13031489 181.43247187 116.2167083 C181.42816448 120.61955969 181.429614 125.02240955 181.43037415 129.42526245 C181.4308992 137.05688006 181.42775436 144.68848914 181.42213631 152.3201046 C181.41401876 163.35422036 181.41140582 174.38833198 181.41014832 185.4224504 C181.4079582 203.32338399 181.4012992 221.22431302 181.3918457 239.12524414 C181.38267055 256.51717099 181.37559022 273.90909661 181.37133789 291.30102539 C181.37094381 292.90834025 181.37094381 292.90834025 181.37054176 294.54812612 C181.36923675 299.92359579 181.36797303 305.29906547 181.36672986 310.67453516 C181.35635849 355.28888599 181.33866707 399.90323175 181.31640625 444.51757812 C185.27640625 444.51757812 189.23640625 444.51757812 193.31640625 444.51757812 C193.31364087 443.01729726 193.31087549 441.51701639 193.30802631 439.97127247 C193.24307929 404.37275514 193.193598 368.77424604 193.16321026 333.17568185 C193.15945806 328.79591345 193.1555751 324.41614517 193.15161133 320.03637695 C193.1508244 319.16442899 193.15003747 318.29248103 193.14922669 317.3941104 C193.13616605 303.26810851 193.11250858 289.14214317 193.08494786 275.01616297 C193.05691197 260.5259921 193.04023384 246.03584039 193.03414077 231.54564351 C193.03002055 222.60148121 193.01699837 213.65742223 192.99265685 204.71329173 C192.97682207 198.58335161 192.97200076 192.45346506 192.97590212 186.32350598 C192.9778272 182.78467499 192.9748371 179.24602479 192.95878983 175.7072258 C192.94152891 171.8728498 192.94742936 168.03871061 192.9556427 164.20429993 C192.94690418 163.08270723 192.93816565 161.96111454 192.92916232 160.80553418 C192.93513547 159.77842743 192.94110861 158.75132068 192.94726276 157.69308949 C192.94555402 156.36539735 192.94555402 156.36539735 192.94381076 155.01088315 C193.44741954 151.64087372 194.89393761 148.94004676 197.31640625 146.51757812 C203.11228961 146.05016818 203.11228961 146.05016818 205.31640625 146.51757812 C208.1723091 149.54806386 208.69175355 151.63673958 208.69392967 155.74627686 C208.70175291 156.81072651 208.70957616 157.87517616 208.71763647 158.97188187 C208.7109443 160.1403503 208.70425214 161.30881874 208.69735718 162.51269531 C208.70203715 163.75469067 208.70671712 164.99668602 208.71153891 166.2763176 C208.72144854 169.72580887 208.71786333 173.17481151 208.70858026 176.6242733 C208.70180401 180.34348626 208.7122639 184.06265594 208.72052002 187.78186035 C208.73387481 195.06856736 208.73097186 202.35518177 208.7222821 209.64189243 C208.71551282 215.56282373 208.71458555 221.48372903 208.71785355 227.40466309 C208.71831325 228.24667605 208.71877294 229.08868902 208.71924657 229.95621753 C208.72020573 231.66663647 208.72117837 233.37705541 208.72216435 235.08747435 C208.73072336 251.13412895 208.72087611 267.18073219 208.70476325 283.22737837 C208.6913596 297.00252277 208.69368755 310.77759134 208.70751953 324.55273438 C208.72356633 340.54113133 208.72989934 356.52948323 208.72068274 372.51788712 C208.71972707 374.22208912 208.71878396 375.92629114 208.71785355 377.63049316 C208.71739072 378.46903989 208.71692789 379.30758661 208.71645104 380.17154384 C208.71385845 386.08682634 208.71823794 392.00208031 208.72529221 397.9173584 C208.73369742 405.12402268 208.73144775 412.33058892 208.71544997 419.53724194 C208.707554 423.2157042 208.70449808 426.89400286 208.71439743 430.57246399 C208.72495553 434.55588927 208.71236712 438.53904536 208.69735718 442.52246094 C208.70404934 443.69092937 208.71074151 444.85939781 208.71763647 446.06327438 C208.70981322 447.12772404 208.70198998 448.19217369 208.69392967 449.28887939 C208.69319909 450.6685684 208.69319909 450.6685684 208.69245374 452.07612991 C208.22818425 455.09035002 207.54001426 456.42755768 205.31640625 458.51757812 C202.88258934 459.01667345 202.88258934 459.01667345 199.92684937 459.01535606 C198.80107294 459.02455366 197.67529652 459.03375125 196.51540565 459.04322755 C195.27330519 459.03294043 194.03120472 459.0226533 192.75146484 459.01205444 C191.43611441 459.01688327 190.12076397 459.02171211 188.76555443 459.02668726 C185.10666102 459.03954699 181.44820838 459.02735352 177.78934383 459.0111587 C173.84654739 458.99802894 169.90380121 459.00789634 165.96099854 459.0149231 C158.2339605 459.02501903 150.50709332 459.013709 142.7800765 458.99522249 C133.78793974 458.97448053 124.79584018 458.97459418 115.803684 458.97556765 C99.76296673 458.97656951 83.72232914 458.95822921 67.68164062 458.92919922 C52.10480294 458.90102314 36.52803539 458.88685763 20.95117188 458.88818359 C19.51217958 458.88830346 19.51217958 458.88830346 18.04411674 458.88842575 C16.60765025 458.88854682 16.60765025 458.88854682 15.14216423 458.88867033 C-2.57400771 458.89004908 -20.29014975 458.87827521 -38.00631201 458.86036389 C-44.27921304 458.85432396 -50.55210859 458.85220391 -56.82501221 458.85129929 C-64.46613271 458.84993674 -72.10720286 458.84103149 -79.74830198 458.82263367 C-83.6493754 458.81338267 -87.55038429 458.80731219 -91.45146942 458.80982208 C-95.6739359 458.81240708 -99.89621019 458.79954911 -104.11865234 458.78500366 C-105.98180305 458.78964947 -105.98180305 458.78964947 -107.88259315 458.79438913 C-109.57125779 458.78471579 -109.57125779 458.78471579 -111.29403687 458.77484703 C-112.26943106 458.77343818 -113.24482525 458.77202933 -114.24977684 458.77057779 C-116.68359375 458.51757812 -116.68359375 458.51757812 -119.68359375 456.51757812 C-120.06079191 453.70782143 -120.06079191 453.70782143 -120.06391048 450.03291416 C-120.0685704 449.35615579 -120.07323032 448.67939742 -120.07803145 447.98213121 C-120.09007698 445.69179839 -120.08054989 443.40204841 -120.0712738 441.11170959 C-120.07544257 439.46219771 -120.08091755 437.8126887 -120.08759362 436.16318506 C-120.10212717 431.61280951 -120.09777899 427.06261386 -120.0904268 422.51222813 C-120.08571686 417.61166536 -120.09818562 412.71114275 -120.10844421 407.81059265 C-120.12568046 398.20317098 -120.12646225 388.59581458 -120.12123131 378.98838145 C-120.11719731 371.1828597 -120.11862397 363.3773573 -120.12397957 355.57183647 C-120.12472799 354.46282912 -120.12547641 353.35382178 -120.12624751 352.21120815 C-120.12777892 349.9585884 -120.12931727 347.70596866 -120.13086248 345.45334893 C-120.14460499 324.30684701 -120.13913756 303.16038204 -120.12767727 282.01388096 C-120.11774311 262.64875132 -120.13068564 243.2837172 -120.15461146 223.9186023 C-120.17896755 204.05628656 -120.18861894 184.19401538 -120.18195873 164.33168501 C-120.17845873 153.17176406 -120.18074991 142.01191661 -120.19820976 130.85200691 C-120.2128882 121.35167513 -120.21362453 111.85146859 -120.19613885 102.35113937 C-120.18759035 97.50016204 -120.18557253 92.64940884 -120.20079041 87.79844284 C-120.21453371 83.36275425 -120.21000934 78.92748401 -120.19055117 74.49182027 C-120.18675874 72.88214815 -120.18980529 71.27244334 -120.20016282 69.66280008 C-120.21319183 67.48404776 -120.2018787 65.30676991 -120.184165 63.12808323 C-120.18405766 61.91520148 -120.18395033 60.70231973 -120.18383974 59.45268399 C-119.68359375 56.51757812 -119.68359375 56.51757812 -117.89354569 54.62696928 C-114.40826697 52.8773668 -110.87080609 53.12673833 -107.05957031 53.17700195 C-106.19091843 53.17656387 -105.32226654 53.17612579 -104.42729187 53.17567444 C-101.55937129 53.17776256 -98.69203707 53.20109474 -95.82421875 53.22460938 C-93.83453694 53.23020524 -91.844851 53.23447539 -89.85516357 53.23747253 C-84.62063161 53.24892199 -79.38634972 53.27839017 -74.1519165 53.31158447 C-68.80964542 53.3422831 -63.46733389 53.35597744 -58.125 53.37109375 C-47.64442143 53.40325966 -37.16402839 53.45445735 -26.68359375 53.51757812 C-26.70977783 52.53998535 -26.73596191 51.56239258 -26.76293945 50.55517578 C-26.85431312 46.8838646 -26.91115412 43.21265107 -26.95825195 39.54052734 C-26.98320001 37.95962553 -27.0171718 36.3788367 -27.06079102 34.79833984 C-27.36111604 23.62624891 -26.77747204 15.52574226 -19.24609375 6.64257812 C-18.40046875 5.94132812 -17.55484375 5.24007813 -16.68359375 4.51757812 C-15.86109131 3.82442505 -15.03858887 3.13127197 -14.19116211 2.41711426 C-9.3732481 -0.19204423 -5.39608959 -0.04379757 0 0 Z M-8.68359375 17.51757812 C-14.34182182 25.97613293 -14.34182182 25.97613293 -11.68359375 53.51757812 C24.94640625 53.51757812 61.57640625 53.51757812 99.31640625 53.51757812 C101.52854849 33.78019738 101.52854849 33.78019738 96.31640625 16.51757812 C90.98812583 14.41849716 86.01927263 14.22556108 80.38696289 14.24291992 C79.5209697 14.23780899 78.6549765 14.23269806 77.76274109 14.22743225 C74.91727674 14.21360081 72.07205634 14.21448805 69.2265625 14.21679688 C67.23790905 14.21290662 65.24925642 14.20857127 63.26060486 14.20381165 C59.09892072 14.19636346 54.93732144 14.19663071 50.77563477 14.2019043 C45.4550882 14.20769932 40.13488971 14.1907602 34.81440067 14.16755962 C30.70932501 14.15279506 26.60433267 14.15195426 22.49923515 14.15506935 C20.53812406 14.15455759 18.57700813 14.14934714 16.61592293 14.13925743 C13.86880278 14.12685645 11.12235434 14.13370639 8.37524414 14.14526367 C7.57343719 14.13761993 6.77163025 14.1299762 5.94552612 14.12210083 C0.83213438 14.169409 -4.31127386 14.64889507 -8.68359375 17.51757812 Z M-78.68359375 95.51757812 C-78.68359375 100.79757813 -78.68359375 106.07757813 -78.68359375 111.51757812 C2.16640625 111.51757812 83.01640625 111.51757812 166.31640625 111.51757812 C166.31640625 106.23757812 166.31640625 100.95757812 166.31640625 95.51757812 C85.46640625 95.51757812 4.61640625 95.51757812 -78.68359375 95.51757812 Z M52.31640625 126.51757812 C52.31640625 231.45757812 52.31640625 336.39757812 52.31640625 444.51757812 C89.93640625 444.51757812 127.55640625 444.51757812 166.31640625 444.51757812 C166.31640625 339.57757813 166.31640625 234.63757812 166.31640625 126.51757812 C128.69640625 126.51757812 91.07640625 126.51757812 52.31640625 126.51757812 Z " fill="#FFFFFF" transform="translate(241.68359375,11.482421875)"/>
<path d="M0 0 C2.16015625 2.1875 2.16015625 2.1875 4.0625 5 C4.69285156 5.9075 5.32320312 6.815 5.97265625 7.75 C7.99580521 10.9932754 9.84390968 14.29433581 11.68139648 17.64453125 C13.83967073 21.49993394 16.17270551 25.24503746 18.5 29 C21.81272202 34.34489603 25.00272889 39.72182989 28.00195312 45.25 C28.87934634 46.9673228 28.87934634 46.9673228 30 48 C30.46146795 51.99938887 30.47316718 54.24866334 28.30273438 57.69506836 C23.90249846 61.75631124 17.3721489 60.68825106 11.78125 60.62890625 C10.49061646 60.63131821 9.19998291 60.63373016 7.87023926 60.63621521 C5.1431516 60.63906809 2.41688759 60.62442464 -0.31005859 60.59692383 C-3.79732942 60.56283963 -7.28312834 60.56886282 -10.77046967 60.5875864 C-14.10754153 60.60072503 -17.44418838 60.58243329 -20.78125 60.56640625 C-22.03031128 60.57136612 -23.27937256 60.57632599 -24.56628418 60.58143616 C-25.73099243 60.56559982 -26.89570068 60.54976349 -28.09570312 60.53344727 C-29.11764771 60.52724869 -30.13959229 60.52105011 -31.19250488 60.5146637 C-34.77205704 59.85846824 -36.45789574 58.56920753 -39 56 C-39.98955555 50.69238389 -39.31390268 48.01017443 -36.3125 43.5625 C-35.49072266 42.44101563 -35.49072266 42.44101563 -34.65234375 41.296875 C-33.02765089 39.0384367 -31.69322143 36.76003886 -30.375 34.3125 C-28.43264613 30.73089843 -26.26093182 27.39139773 -24 24 C-21.94096136 20.41648083 -19.96192162 16.78804253 -18.00390625 13.1484375 C-9.30785728 -2.65600004 -9.30785728 -2.65600004 0 0 Z M-5 22 C-5.66 23.65 -6.32 25.3 -7 27 C-7.66 27 -8.32 27 -9 27 C-9.391875 28.010625 -9.78375 29.02125 -10.1875 30.0625 C-11.66086586 33.54500113 -13.58125961 36.36226599 -15.9140625 39.32421875 C-17.29298499 41.25381154 -17.29298499 41.25381154 -18 45 C-8.76 45 0.48 45 10 45 C7.69 41.37 5.38 37.74 3 34 C1.9849911 32.00757511 0.98126556 30.00925805 0 28 C-1.28072371 25.9659094 -2.60287726 23.95597184 -4 22 C-4.33 22 -4.66 22 -5 22 Z " fill="#FFFFFF" transform="translate(69,175)"/>
<path d="M0 0 C1.16470825 -0.01260864 2.3294165 -0.02521729 3.52941895 -0.03820801 C4.77848022 -0.03011108 6.0275415 -0.02201416 7.31445312 -0.01367188 C9.25040344 -0.01941223 9.25040344 -0.01941223 11.22546387 -0.02526855 C13.95242542 -0.03115308 16.67886146 -0.02263563 19.40576172 -0.00390625 C22.89299094 0.0188841 26.3789887 0.00575519 29.86617279 -0.01819611 C33.20319707 -0.03616478 36.53989391 -0.02356671 39.87695312 -0.01367188 C41.75054504 -0.02581726 41.75054504 -0.02581726 43.6619873 -0.03820801 C44.82669556 -0.02559937 45.99140381 -0.01299072 47.19140625 0 C48.21335083 0.00318237 49.23529541 0.00636475 50.28820801 0.00964355 C53.86130011 0.65609063 55.5512247 1.96564588 58.09570312 4.51757812 C59.14537553 10.52998741 57.09032958 14.06558135 53.90820312 18.89257812 C53.07240368 20.21606249 52.23776086 21.54027801 51.40429688 22.86523438 C51.00194824 23.49574707 50.59959961 24.12625977 50.18505859 24.77587891 C48.84925987 26.91160012 47.64910825 29.10420178 46.47070312 31.33007812 C44.20864637 35.49414109 41.48207824 39.25616166 38.72460938 43.10351562 C37.26875144 45.26111803 36.08875095 47.36034626 34.97070312 49.70507812 C30.83598912 58.19940689 30.83598912 58.19940689 28.09570312 60.51757812 C24.84070308 61.62066147 22.35163962 61.61631288 19.09570312 60.51757812 C14.78184228 56.80233674 12.41435455 51.4521686 10.02148438 46.38085938 C8.63567353 43.59169578 6.83390427 41.09854346 5.09570312 38.51757812 C0.09570312 30.07918271 0.09570312 30.07918271 0.09570312 27.51757812 C-0.56429687 27.51757812 -1.22429688 27.51757812 -1.90429688 27.51757812 C-2.46117187 26.36257813 -3.01804687 25.20757812 -3.59179688 24.01757812 C-5.08408022 20.98487327 -6.74208703 18.23895057 -8.65429688 15.45507812 C-11.03302307 11.69491778 -11.76895849 9.01381854 -10.90429688 4.51757812 C-7.35339974 0.96548251 -4.97626819 0.01549628 0 0 Z M11.09570312 15.51757812 C11.98883121 19.98321853 12.423345 21.38902143 14.90820312 24.83007812 C17.75147343 28.91342535 19.97051938 33.02199713 22.09570312 37.51757812 C25.57296857 36.11640154 26.81332367 34.78746873 28.47070312 31.45507812 C30.68386307 27.19422813 33.20677942 23.29596538 35.95898438 19.36523438 C37.27036878 17.59522528 37.27036878 17.59522528 37.09570312 15.51757812 C28.51570313 15.51757812 19.93570313 15.51757812 11.09570312 15.51757812 Z " fill="#FFFFFF" transform="translate(40.904296875,258.482421875)"/>
<path d="M0 0 C1.57491211 -0.0299707 1.57491211 -0.0299707 3.18164062 -0.06054688 C4.69854492 -0.05958008 4.69854492 -0.05958008 6.24609375 -0.05859375 C7.63139282 -0.06137329 7.63139282 -0.06137329 9.04467773 -0.06420898 C12.30379607 0.58521293 13.49858975 1.89068578 15.5625 4.4375 C16.27132303 7.34534881 15.90221789 9.380039 15.5625 12.4375 C14.38867188 14.15429688 14.38867188 14.15429688 12.5625 15.4375 C8.42728496 16.10849716 4.2460939 15.94684881 0.0625 15.9375 C-1.09121094 15.96585938 -2.24492187 15.99421875 -3.43359375 16.0234375 C-4.53832031 16.02601562 -5.64304688 16.02859375 -6.78125 16.03125 C-7.79380859 16.03833984 -8.80636719 16.04542969 -9.84960938 16.05273438 C-12.4375 15.4375 -12.4375 15.4375 -14.29882812 13.12695312 C-15.84069616 9.48518248 -15.4195143 7.22526944 -14.4375 3.4375 C-10.96386428 -1.31506211 -5.34401608 -0.03595362 0 0 Z " fill="#FFFFFF" transform="translate(261.4375,37.5625)"/>
<path d="M0 0 C1.04542969 -0.02384766 2.09085937 -0.04769531 3.16796875 -0.07226562 C10.75619637 -0.05769156 10.75619637 -0.05769156 14.2265625 2.8359375 C16.19149174 7.04305593 15.52912842 9.07844046 14.5 13.5625 C10.85377639 17.20872361 4.99021545 15.93203387 0.0625 15.9375 C-1.09572266 15.96199219 -2.25394531 15.98648438 -3.44726562 16.01171875 C-4.55650391 16.01558594 -5.66574219 16.01945312 -6.80859375 16.0234375 C-8.33697876 16.03576416 -8.33697876 16.03576416 -9.89624023 16.04833984 C-12.5 15.5625 -12.5 15.5625 -14.32836914 13.75244141 C-16.05976999 10.51621185 -15.95077907 8.16873258 -15.5 4.5625 C-11.22200926 -0.94067479 -6.47375579 -0.06785071 0 0 Z " fill="#FFFFFF" transform="translate(310.5,37.4375)"/>
</svg>
