<?xml version="1.0" encoding="UTF-8"?>
<svg version="1.1" xmlns="http://www.w3.org/2000/svg" width="578" height="482">
<path d="M0 0 C3.65218964 2.60448482 6.05590833 5.17730542 8.4453125 8.95703125 C9.34830078 10.37918945 9.34830078 10.37918945 10.26953125 11.83007812 C10.88183594 12.81427734 11.49414062 13.79847656 12.125 14.8125 C12.74503906 15.78509766 13.36507813 16.75769531 14.00390625 17.75976562 C17.13297202 22.7292604 19.85742186 27.53466952 22 33 C22.63078915 34.27836736 23.27391955 35.55084274 23.9375 36.8125 C25.89443907 40.66662427 27.49870883 44.61463162 29.06640625 48.640625 C29.82336608 50.55361135 30.65134604 52.43838917 31.5 54.3125 C33.71622422 59.76071787 35.34750857 65.35896498 37 71 C37.26941406 71.91007812 37.53882813 72.82015625 37.81640625 73.7578125 C42.76866749 91.12961894 47.7577578 109.80733788 38.53515625 126.55859375 C31.80358519 137.26401847 23.9403063 145.2296668 11.45141602 148.42211914 C3.99006981 149.67139455 -3.58300704 149.34511782 -11.125 149.25 C-12.93415777 149.2380458 -14.74332168 149.2269888 -16.55249023 149.21679688 C-33.04189627 149.09826083 -49.52303472 148.63587591 -66 148 C-66.1340625 149.25554687 -66.268125 150.51109375 -66.40625 151.8046875 C-67.05463676 157.87707886 -70.06700242 161.54990723 -74.6875 165.375 C-81.61694743 169.81309091 -91.69775876 169.11322328 -99.51171875 167.47265625 C-100.00285156 167.31667969 -100.49398438 167.16070312 -101 167 C-101.26683594 167.87140625 -101.53367187 168.7428125 -101.80859375 169.640625 C-105.34630165 179.61580138 -111.69957184 187.5063658 -119 195 C-119.886875 195.94875 -120.77375 196.8975 -121.6875 197.875 C-124.28000128 200.25729847 -127.06423441 202.06364398 -130 204 C-130.58265625 204.62777344 -131.1653125 205.25554687 -131.765625 205.90234375 C-134.46979556 208.44104933 -137.36309379 209.94931851 -140.6875 211.5 C-141.84636719 212.0671875 -143.00523437 212.634375 -144.19921875 213.21875 C-157.16696165 218.46809471 -170.05603037 219.59275876 -183.875 219.3125 C-185.45604051 219.29550044 -187.03709649 219.2798871 -188.61816406 219.265625 C-199.4246856 219.14556183 -210.22186804 218.81564242 -221 218 C-221.09410156 218.88945312 -221.18820313 219.77890625 -221.28515625 220.6953125 C-222.06336653 224.29294036 -223.14191456 226.04011903 -225.4375 228.875 C-226.05496094 229.65617188 -226.67242187 230.43734375 -227.30859375 231.2421875 C-227.86675781 231.82226562 -228.42492187 232.40234375 -229 233 C-229.66 233 -230.32 233 -231 233 C-231.22945312 233.60457031 -231.45890625 234.20914063 -231.6953125 234.83203125 C-233.36696438 237.60977614 -234.96221002 238.31753795 -237.875 239.6875 C-238.73867187 240.10386719 -239.60234375 240.52023437 -240.4921875 240.94921875 C-248.81352368 244.43588453 -260.19555578 244.52668944 -268.625 241.25 C-270.10247123 240.53844195 -271.56414974 239.79219325 -273 239 C-274.0725 238.4225 -275.145 237.845 -276.25 237.25 C-283.53205837 231.29195225 -287.80929102 223.05603389 -290 214 C-299.12955806 213.29753378 -308.22366123 212.90924449 -317.37890625 212.7890625 C-318.3690976 212.7747821 -319.35928894 212.76050171 -320.37948608 212.74578857 C-324.48545279 212.68809929 -328.59127521 212.63316854 -332.69750977 212.59863281 C-335.73746818 212.57101198 -338.77672145 212.52522514 -341.81640625 212.4765625 C-343.19621422 212.4716832 -343.19621422 212.4716832 -344.60389709 212.46670532 C-352.56541696 212.31489033 -358.75819219 210.01474728 -365.06640625 205.046875 C-370.49091769 199.30456389 -373.31407466 191.63424707 -373.6875 183.8125 C-373.14154859 174.60411959 -368.68710109 168.18287266 -362.453125 161.69140625 C-355.9539808 157.21030842 -348.82056784 156.56138709 -341.12890625 156.671875 C-340.20770493 156.67374817 -339.2865036 156.67562134 -338.33738708 156.67755127 C-336.39521645 156.68423685 -334.45305848 156.69808107 -332.51098633 156.71875 C-329.60159135 156.74958568 -326.69274468 156.75970378 -323.78320312 156.765625 C-312.16103678 156.81457137 -300.59590568 157.2256791 -289 158 C-289.00523682 157.06317383 -289.01047363 156.12634766 -289.01586914 155.16113281 C-289.03308862 151.62743493 -289.04553544 148.09378275 -289.05493164 144.56005859 C-289.05990685 143.04149667 -289.06668941 141.5229394 -289.07543945 140.00439453 C-289.12629188 130.94069733 -288.924515 122.02823559 -288 113 C-288.58278717 113.00222061 -289.16557434 113.00444122 -289.76602173 113.00672913 C-295.89934671 113.02906453 -302.03265992 113.04402285 -308.16601562 113.05493164 C-310.44694489 113.05992238 -312.72787102 113.06671733 -315.00878906 113.07543945 C-355.50546679 113.22628159 -355.50546679 113.22628159 -363.3203125 105.79296875 C-367.52138296 100.89171988 -370.43700997 96.48037466 -371 90 C-371.09152344 89.16855469 -371.18304688 88.33710938 -371.27734375 87.48046875 C-371.72197286 79.90008469 -369.98138349 73.47552163 -366 67 C-363.27511559 64.12231833 -360.44402248 61.95016415 -357 60 C-356.08774658 59.48211914 -355.17549316 58.96423828 -354.2355957 58.43066406 C-348.39411758 55.97616335 -341.97199911 56.63261266 -335.75390625 56.70703125 C-334.37386031 56.71263457 -332.99380835 56.71690119 -331.61375427 56.71989441 C-328.00183298 56.73128544 -324.39028025 56.76070195 -320.77850342 56.79400635 C-317.08480819 56.82483207 -313.39105273 56.83842631 -309.69726562 56.85351562 C-302.4646767 56.88557819 -295.23239022 56.93670361 -288 57 C-287.70200752 56.07074203 -287.70200752 56.07074203 -287.397995 55.12271118 C-287.13348038 54.31087372 -286.86896576 53.49903625 -286.59643555 52.66259766 C-286.3358989 51.85746735 -286.07536224 51.05233704 -285.80693054 50.22280884 C-282.94609192 42.34220817 -275.20460277 35.15331279 -268.13671875 30.87109375 C-260.37766135 27.70789485 -247.48902688 27.41955265 -239.5 30.125 C-230.85064748 34.75858171 -223.75060238 40.56964016 -219.828125 49.73046875 C-219.48168945 50.53250732 -219.13525391 51.3345459 -218.77832031 52.16088867 C-218.52147461 52.76779541 -218.26462891 53.37470215 -218 54 C-217.35679306 54.00364563 -216.71358612 54.00729126 -216.05088806 54.01104736 C-209.28446839 54.05324267 -202.51870389 54.12284064 -195.75268555 54.20751953 C-193.23615103 54.23554007 -190.7195316 54.25684744 -188.20288086 54.27099609 C-161.05779244 54.43267024 -161.05779244 54.43267024 -149 59 C-148.25290771 59.28198242 -147.50581543 59.56396484 -146.73608398 59.85449219 C-138.42214768 63.33710893 -131.01671605 68.41116894 -124 74 C-123.28199219 74.55300781 -122.56398438 75.10601562 -121.82421875 75.67578125 C-111.78100419 83.84686261 -105.48290662 95.46548102 -100 107 C-100 107.66 -100 108.32 -100 109 C-99.10861328 108.95286865 -99.10861328 108.95286865 -98.19921875 108.90478516 C-95.46654437 108.77888239 -92.73448124 108.7016677 -90 108.625 C-89.06542969 108.57472656 -88.13085938 108.52445312 -87.16796875 108.47265625 C-80.90620854 108.34129065 -77.40956198 109.35266985 -72.60131836 113.41381836 C-67.9806275 117.9908314 -66.77101522 121.65970978 -66 128 C-56.88095408 128.06968864 -47.76200066 128.12290666 -38.64274597 128.15543652 C-34.40773066 128.1710538 -30.17289832 128.19221954 -25.93798828 128.22631836 C-21.84662085 128.25905307 -17.75542878 128.2768826 -13.66394043 128.28463173 C-12.10751589 128.29015002 -10.55110032 128.30092569 -8.99475098 128.31719017 C2.37254054 128.55398122 2.37254054 128.55398122 13 125 C15.34325664 122.44860147 15.34325664 122.44860147 17 120 C17.66 120 18.32 120 19 120 C19.309375 119.05125 19.61875 118.1025 19.9375 117.125 C21 114 21 114 22 112 C24.68360196 88.15553669 12.95448493 62.93349266 3 42 C2.69497559 41.35675781 2.38995117 40.71351563 2.07568359 40.05078125 C-0.60753885 34.43322023 -3.37341181 29.07722347 -7 24 C-8.34270821 22.00628175 -9.67653494 20.0065438 -11 18 C-11.598125 17.2575 -12.19625 16.515 -12.8125 15.75 C-14.66789794 11.45328898 -14.24742789 7.46284762 -13 3 C-9.63075489 -0.47134344 -4.64759448 -1.11788731 0 0 Z M-261 50 C-261 50.66 -261 51.32 -261 52 C-261.99 52.33 -262.98 52.66 -264 53 C-267.42271959 57.93387378 -268.50422576 61.27439559 -268.57421875 67.375 C-268.5880661 68.10338074 -268.60191345 68.83176147 -268.61618042 69.58221436 C-268.65845121 72.05491181 -268.6728013 74.52699569 -268.6875 77 C-268.71238698 78.80373555 -268.73906536 80.60744709 -268.76733398 82.41113281 C-268.82854517 86.53900101 -268.87722323 90.66681184 -268.91894531 94.79492188 C-268.9968272 102.18619795 -269.11517189 109.57658045 -269.23633194 116.96724319 C-269.47453187 131.52114362 -269.67817886 146.0751939 -269.84939575 160.6300354 C-269.86637042 162.06943794 -269.8833683 163.50884021 -269.90039062 164.94824219 C-269.90858763 165.64181257 -269.91678463 166.33538296 -269.92523003 167.04997063 C-269.98862647 172.30587911 -270.07080961 177.56134056 -270.15821838 182.81689453 C-270.21388301 186.38487771 -270.25333723 189.95285753 -270.28610229 193.52111816 C-270.30338059 195.06182247 -270.32746717 196.60246915 -270.35916138 198.14294434 C-270.61374402 209.66962547 -270.61374402 209.66962547 -266 220 C-260.61504808 223.62660027 -254.36909943 224.07466229 -248 223 C-244.93468711 220.85308458 -244.93468711 220.85308458 -243 218 C-242.4225 217.484375 -241.845 216.96875 -241.25 216.4375 C-238.45377326 213.22183925 -238.82872542 208.85591702 -238.71875 204.79296875 C-238.70065781 204.14944458 -238.68256561 203.50592041 -238.66392517 202.84289551 C-238.60386692 200.62453531 -238.55152589 198.40607406 -238.5 196.1875 C-238.48043243 195.39856354 -238.46086487 194.60962708 -238.44070435 193.79678345 C-237.77279223 166.6839227 -237.43936038 139.56173812 -237.12489605 112.44282722 C-237.11655145 111.72338369 -237.10820684 111.00394016 -237.09960938 110.26269531 C-237.09141332 109.55461668 -237.08321726 108.84653805 -237.07477283 108.11700249 C-237.01016839 102.6327495 -236.92764544 97.14886348 -236.84178162 91.66490173 C-236.78572922 87.82174131 -236.74638574 83.97858815 -236.71389771 80.13516235 C-236.69655637 78.44511411 -236.67241384 76.75511934 -236.64083862 75.0652771 C-236.3189499 62.26668219 -236.3189499 62.26668219 -242.44824219 51.35302734 C-244.85655879 49.25313896 -247.32127755 49.15086565 -250.4375 48.6875 C-251.57058594 48.50574219 -252.70367187 48.32398438 -253.87109375 48.13671875 C-257.03754042 47.99835966 -258.39353341 48.29010668 -261 50 Z M-217 73 C-217.70967373 77.51197515 -218.13962191 81.8772177 -218.20532227 86.44287109 C-218.22525742 87.68726456 -218.24519257 88.93165802 -218.26573181 90.21376038 C-218.28277305 91.56698421 -218.29965989 92.92020999 -218.31640625 94.2734375 C-218.33717524 95.7006831 -218.35826525 97.12792407 -218.37965393 98.55516052 C-218.43541507 102.37290193 -218.48494686 106.19069877 -218.53263092 110.00854874 C-218.56249241 112.37439866 -218.5938601 114.74022413 -218.62567139 117.10604858 C-218.90078402 137.67443368 -219.10106299 158.24210511 -219.125 178.8125 C-219.1275882 179.85678162 -219.13017639 180.90106323 -219.13284302 181.97698975 C-219.13857411 184.86620732 -219.1372093 187.75531353 -219.1328125 190.64453125 C-219.13479141 191.488983 -219.13677032 192.33343475 -219.1388092 193.20347595 C-219.47703467 196.904102 -219.47703467 196.904102 -218 200 C-215.32595028 200.11398091 -212.67887466 200.16420759 -210.00390625 200.16796875 C-209.18236557 200.17129715 -208.36082489 200.17462555 -207.51438904 200.17805481 C-205.75984253 200.18313673 -204.00528628 200.18546275 -202.25073242 200.18530273 C-199.63247239 200.18744281 -197.01466701 200.20545133 -194.39648438 200.22460938 C-172.4039047 200.30238531 -151.64629361 199.13800984 -135 183 C-133.33251351 181.21651445 -131.75387248 179.41136134 -130.23046875 177.50390625 C-129 176 -129 176 -126.9375 174.1875 C-116.20699403 162.07241261 -114.33531214 144.2889964 -115.16796875 128.89453125 C-116.45480873 116.70739963 -122.52389953 105.56446573 -130 96 C-130.66 96 -131.32 96 -132 96 C-132.24363281 95.42378906 -132.48726563 94.84757812 -132.73828125 94.25390625 C-136.36760471 87.77056372 -143.15562876 83.39552993 -150 81 C-150.93457031 80.60039062 -151.86914062 80.20078125 -152.83203125 79.7890625 C-153.89808594 79.34304687 -154.96414063 78.89703125 -156.0625 78.4375 C-157.04347656 78.02371094 -158.02445313 77.60992187 -159.03515625 77.18359375 C-171.35277763 73.03953623 -185.04290001 73.59541181 -197.875 73.375 C-199.73829739 73.33671529 -201.60157908 73.29765795 -203.46484375 73.2578125 C-207.9764313 73.1629854 -212.48810094 73.07855111 -217 73 Z M-351 81.375 C-352.21118665 84.55436497 -352.29119536 85.85271131 -351 89 C-346.68494137 93.08795028 -343.44400182 94.12687415 -337.6105957 94.11352539 C-335.95922356 94.11341209 -335.95922356 94.11341209 -334.27449036 94.11329651 C-333.08691635 94.10813522 -331.89934235 94.10297394 -330.67578125 94.09765625 C-328.85097481 94.09553383 -328.85097481 94.09553383 -326.98930359 94.09336853 C-323.0970109 94.08776312 -319.20477536 94.07520967 -315.3125 94.0625 C-312.67643312 94.0574857 -310.04036534 94.05292267 -307.40429688 94.04882812 C-300.93617584 94.03779193 -294.46809761 94.02052362 -288 94 C-288 88.39 -288 82.78 -288 77 C-298.97601758 76.65642427 -309.95221353 76.33585953 -320.92999268 76.05395508 C-322.75661182 76.00634395 -324.58314778 75.95556395 -326.40966797 75.90429688 C-329.0231968 75.83562406 -331.63586596 75.78716908 -334.25 75.75 C-335.3160144 75.7180957 -335.3160144 75.7180957 -336.40356445 75.68554688 C-342.1725017 75.64585398 -347.17772176 76.83604459 -351 81.375 Z M-96 128 C-96 134.93 -96 141.86 -96 149 C-93.03 149 -90.06 149 -87 149 C-85.44393249 147.44393249 -85.87029231 145.94042629 -85.8671875 143.78125 C-85.86589844 142.93175781 -85.86460937 142.08226562 -85.86328125 141.20703125 C-85.86714844 140.31371094 -85.87101562 139.42039063 -85.875 138.5 C-85.87113281 137.60667969 -85.86726563 136.71335938 -85.86328125 135.79296875 C-85.86457031 134.94347656 -85.86585938 134.09398437 -85.8671875 133.21875 C-85.86831543 132.43435547 -85.86944336 131.64996094 -85.87060547 130.84179688 C-85.79892558 128.98247012 -85.79892558 128.98247012 -87 128 C-89.97 128 -92.94 128 -96 128 Z M-351.9375 179.6875 C-353.52198075 183.13607576 -352.98291287 185.39598614 -352 189 C-347.42063978 193.7372692 -340.97997782 193.28949857 -334.8125 193.5625 C-333.88228027 193.6049585 -332.95206055 193.64741699 -331.99365234 193.69116211 C-317.67247677 194.26194192 -303.32921945 194.07815938 -289 194 C-289 188.39 -289 182.78 -289 177 C-291.96577763 176.01140746 -293.92414569 175.86785756 -297.01879883 175.85473633 C-298.04028519 175.84835648 -299.06177155 175.84197662 -300.11421204 175.83540344 C-301.21734238 175.83429062 -302.32047272 175.8331778 -303.45703125 175.83203125 C-305.16061043 175.82703865 -305.16061043 175.82703865 -306.89860535 175.82194519 C-309.30357457 175.81687888 -311.70855083 175.81453677 -314.11352539 175.81469727 C-317.78739065 175.81251492 -321.46095368 175.79436718 -325.13476562 175.77539062 C-327.47135314 175.7724558 -329.80794208 175.7704716 -332.14453125 175.76953125 C-333.2415889 175.76234573 -334.33864655 175.75516022 -335.46894836 175.74775696 C-344.32023536 175.64969376 -344.32023536 175.64969376 -351.9375 179.6875 Z " fill="#FFFFFF" transform="translate(476,103)"/>
<path d="M0 0 C2.9678548 0.02904875 5.93391738 0.02051918 8.90185547 0.00756836 C43.46181135 0.04531701 79.08349646 7.74993162 109.55126953 24.42651367 C111.65209032 25.56628654 113.77226302 26.66295565 115.89794922 27.75561523 C133.00295558 36.58644341 133.00295558 36.58644341 137.46826172 40.46655273 C137.46826172 41.12655273 137.46826172 41.78655273 137.46826172 42.46655273 C138.37576172 42.69342773 139.28326172 42.92030273 140.21826172 43.15405273 C144.50637642 44.88579136 146.42815958 47.38634846 148.46826172 51.46655273 C148.72052109 55.33452983 148.86272738 58.31021164 146.46826172 61.46655273 C143.39644264 63.49116077 141.44513885 64.52245414 137.73779297 64.31030273 C133.61593809 63.24659825 130.48921372 61.40044943 126.90576172 59.15405273 C126.25929688 58.76282227 125.61283203 58.3715918 124.94677734 57.96850586 C122.16212709 56.26032264 119.57139284 54.55155274 117.04638672 52.47045898 C110.58495319 47.44816292 102.75775234 44.12258645 95.46826172 40.46655273 C94.36659668 39.90798584 94.36659668 39.90798584 93.24267578 39.33813477 C76.53822336 30.98590855 58.40847071 26.66635715 40.15576172 23.09155273 C39.36387451 22.93589844 38.5719873 22.78024414 37.75610352 22.61987305 C26.03889591 20.48168755 14.16248393 20.24456523 2.28076172 20.21655273 C1.26553436 20.2140451 1.26553436 20.2140451 0.22979736 20.21148682 C-10.67860812 20.20987985 -20.87725852 21.23056538 -31.53173828 23.46655273 C-33.7593358 23.76997124 -35.98847353 24.06237159 -38.21923828 24.34155273 C-44.50979614 25.27674367 -50.25098534 27.21484326 -56.21923828 29.34545898 C-59.53173828 30.46655273 -59.53173828 30.46655273 -62.12939453 30.96655273 C-64.99055287 31.56204585 -67.33487308 32.6447888 -69.96923828 33.90405273 C-72.82800245 35.24397948 -75.51636039 36.46174714 -78.53173828 37.40405273 C-82.56294538 38.83177191 -86.12334131 40.93002906 -89.84814453 43.01733398 C-92.01681985 44.18848179 -94.12091738 45.18622761 -96.40673828 46.09155273 C-99.57581397 47.32598701 -99.57581397 47.32598701 -102.03173828 49.46655273 C-104.53173828 51.46655273 -104.53173828 51.46655273 -107.96923828 52.90405273 C-111.83735534 54.60059531 -114.36132481 56.7008729 -117.53173828 59.46655273 C-119.52545653 60.80926094 -121.52519448 62.14308768 -123.53173828 63.46655273 C-125.21429958 64.77977131 -126.88171 66.11268338 -128.53173828 67.46655273 C-129.39798828 68.12655273 -130.26423828 68.78655273 -131.15673828 69.46655273 C-133.55248815 71.32182779 -133.55248815 71.32182779 -135.03173828 73.52905273 C-136.53173828 75.46655273 -136.53173828 75.46655273 -138.96923828 76.90405273 C-141.89564626 78.68844784 -143.43481165 80.79116359 -145.53173828 83.46655273 C-146.19173828 83.46655273 -146.85173828 83.46655273 -147.53173828 83.46655273 C-147.75861328 84.02342773 -147.98548828 84.58030273 -148.21923828 85.15405273 C-149.90723864 88.12814861 -151.99850345 90.18664138 -154.53173828 92.46655273 C-155.19173828 92.46655273 -155.85173828 92.46655273 -156.53173828 92.46655273 C-156.63486328 93.04405273 -156.73798828 93.62155273 -156.84423828 94.21655273 C-157.64070293 96.82316431 -158.72239105 98.44008383 -160.53173828 100.46655273 C-161.19173828 100.46655273 -161.85173828 100.46655273 -162.53173828 100.46655273 C-162.77537109 100.99120117 -163.01900391 101.51584961 -163.27001953 102.05639648 C-164.90018371 105.17036335 -166.80320129 108.08682514 -168.71923828 111.02905273 C-169.52787132 112.28163154 -170.3364646 113.53423601 -171.14501953 114.78686523 C-172.61498695 117.05697136 -174.09221977 119.32174247 -175.57470703 121.58374023 C-176.17927734 122.51444336 -176.78384766 123.44514648 -177.40673828 124.40405273 C-177.94041016 125.21745117 -178.47408203 126.03084961 -179.02392578 126.86889648 C-180.46888595 129.35827087 -181.58624106 131.87772694 -182.68310547 134.53515625 C-183.60529816 136.63396705 -184.64997366 138.63257728 -185.73095703 140.65405273 C-205.20544363 177.81766889 -211.28699969 226.41163798 -203.53173828 267.46655273 C-203.23656197 269.17342764 -202.94229262 270.88045964 -202.64892578 272.58764648 C-199.28372981 291.3672045 -193.11129844 308.89107585 -185.09423828 326.15405273 C-184.72258545 326.96293945 -184.35093262 327.77182617 -183.96801758 328.60522461 C-181.58400481 333.65702407 -178.8668611 337.98779827 -175.53173828 342.46655273 C-174.49882152 344.44975292 -173.49798838 346.45003079 -172.53173828 348.46655273 C-171.80308791 349.61271445 -171.07390013 350.75853466 -170.34423828 351.90405273 C-168.30149587 355.91909817 -167.79269434 358.03228909 -168.53173828 362.46655273 C-170.70448048 365.09671435 -172.47847616 366.93992167 -175.53173828 368.46655273 C-179.52107275 368.72672672 -182.19196534 368.70771615 -185.53173828 366.46655273 C-187.11826621 364.32041314 -188.52618863 362.23700892 -189.90673828 359.96655273 C-190.30175537 359.33144775 -190.69677246 358.69634277 -191.10375977 358.04199219 C-191.89482556 356.76644899 -192.68161842 355.48824471 -193.46386719 354.20727539 C-194.34804695 352.76598556 -195.25531038 351.33888547 -196.16845703 349.91577148 C-201.97366715 340.70695872 -206.5353385 330.58024866 -210.53173828 320.46655273 C-211.19441311 319.04801442 -211.86103681 317.63131364 -212.53173828 316.21655273 C-214.18280367 312.527359 -215.13481278 309.07144466 -215.89892578 305.11889648 C-217.03122254 300.37303536 -218.77328263 295.80406191 -220.41064453 291.21264648 C-221.37438722 287.99233555 -221.83585693 285.05122087 -222.22102356 281.73054504 C-222.54489906 279.37065801 -222.99613308 277.06878058 -223.48901367 274.73852539 C-226.20670806 261.72515297 -227.13230596 249.2514434 -226.99829102 235.97045898 C-226.96918494 232.8358078 -226.97777931 229.7028461 -226.99072266 226.56811523 C-226.97740757 213.62205113 -225.93503915 201.18774105 -223.53173828 188.46655273 C-223.33314209 187.41000488 -223.1345459 186.35345703 -222.92993164 185.26489258 C-222.43057633 182.81630934 -221.87950578 180.3927855 -221.28173828 177.96655273 C-221.07484375 177.11254883 -220.86794922 176.25854492 -220.65478516 175.37866211 C-218.44483906 166.59686466 -215.49717771 158.1047815 -212.33105469 149.62768555 C-211.63570521 147.74765086 -210.976921 145.85417112 -210.32470703 143.95874023 C-207.39903947 135.70897799 -203.27714644 128.29535969 -198.93408203 120.72827148 C-197.33510426 117.9367387 -195.83735254 115.12324554 -194.41845703 112.23608398 C-192.91635527 109.18478674 -191.28925734 106.30511551 -189.40673828 103.46655273 C-188.90916016 102.70342773 -188.41158203 101.94030273 -187.89892578 101.15405273 C-187.44775391 100.59717773 -186.99658203 100.04030273 -186.53173828 99.46655273 C-185.87173828 99.46655273 -185.21173828 99.46655273 -184.53173828 99.46655273 C-184.29455078 98.59772461 -184.05736328 97.72889648 -183.81298828 96.83374023 C-182.38827297 93.0895189 -180.59223873 90.65916529 -178.03173828 87.59155273 C-177.23767578 86.62475586 -176.44361328 85.65795898 -175.62548828 84.66186523 C-174.93455078 83.93741211 -174.24361328 83.21295898 -173.53173828 82.46655273 C-172.87173828 82.46655273 -172.21173828 82.46655273 -171.53173828 82.46655273 C-171.45439453 81.89807617 -171.37705078 81.32959961 -171.29736328 80.74389648 C-170.27263683 77.69585812 -168.59816016 76.24192595 -166.28173828 74.02905273 C-165.46447266 73.23885742 -164.64720703 72.44866211 -163.80517578 71.63452148 C-163.05494141 70.9190918 -162.30470703 70.20366211 -161.53173828 69.46655273 C-160.66548828 68.60030273 -159.79923828 67.73405273 -158.90673828 66.84155273 C-158.12298828 66.05780273 -157.33923828 65.27405273 -156.53173828 64.46655273 C-156.08185547 63.98186523 -155.63197266 63.49717773 -155.16845703 62.99780273 C-149.2357341 56.75593047 -142.36345984 51.67064797 -135.53173828 46.46655273 C-134.63455078 45.77432617 -133.73736328 45.08209961 -132.81298828 44.36889648 C-116.81136375 32.34298422 -99.02905008 22.30694763 -80.20361328 15.47436523 C-77.62035722 14.56894589 -77.62035722 14.56894589 -75.67236328 13.45874023 C-73.08658192 12.26022114 -70.44197063 11.65716664 -67.67675781 11.00219727 C-63.53422637 9.96774313 -59.49580662 8.57436415 -55.44384766 7.23413086 C-54.780625 7.02079102 -54.11740234 6.80745117 -53.43408203 6.58764648 C-52.55997681 6.30038696 -52.55997681 6.30038696 -51.66821289 6.00732422 C-49.53173828 5.46655273 -49.53173828 5.46655273 -46.41088867 5.02368164 C-43.51396574 4.60762159 -40.71950658 4.11199757 -37.86181641 3.50927734 C-25.14697994 0.8823803 -12.97292684 -0.13778261 0 0 Z " fill="#FFFFFF" transform="translate(284.53173828125,7.533447265625)"/>
<path d="M0 0 C1.91320843 1.5709372 3.36965848 3.11491761 5 5 C5.70769531 5.62648438 5.70769531 5.62648438 6.4296875 6.265625 C11.45662845 11.81776874 14.84600532 20.66237493 15.1640625 28.13671875 C14.56447454 38.60095629 13.43194372 49.04123496 6 57 C3.4375 59.25 3.4375 59.25 1 61 C0.29875 61.825 -0.4025 62.65 -1.125 63.5 C-8.03284724 69.50682369 -18.13043606 71.36979743 -27.10546875 71.2890625 C-34.55490621 70.54512408 -41.72318716 68.0491824 -48 64 C-49.010625 64.7425 -50.02125 65.485 -51.0625 66.25 C-54.53785972 68.80332551 -58.24307419 70.89651877 -62 73 C-62.75112061 73.42442383 -63.50224121 73.84884766 -64.27612305 74.28613281 C-66.78352425 75.69936326 -69.29745568 77.10042265 -71.8125 78.5 C-72.65103516 78.97308594 -73.48957031 79.44617188 -74.35351562 79.93359375 C-79.40068916 82.73456169 -84.4524704 85.11467665 -89.84716797 87.171875 C-91.69532798 87.88280251 -93.50864663 88.68316074 -95.3125 89.5 C-99.73006602 91.29697601 -104.21823715 92.65416369 -108.78515625 94.01953125 C-111.49100552 94.84476596 -114.14779494 95.7407677 -116.8125 96.6875 C-120.14316101 97.81582175 -123.30762092 98.35653877 -126.8203125 98.69140625 C-129.3622535 99.05128679 -131.71818715 99.73448034 -134.1875 100.4375 C-161.36031053 107.23903785 -195.69560963 106.92931067 -223 101 C-223.87060059 100.81775879 -224.74120117 100.63551758 -225.63818359 100.44775391 C-237.00608647 98.03038319 -248.10111169 95.05651306 -259 91 C-260.13405273 90.58476074 -260.13405273 90.58476074 -261.29101562 90.16113281 C-273.20277131 85.75730627 -284.19640464 80.44223765 -295.15869141 74.04418945 C-296.81032117 73.10756515 -298.50485624 72.24757188 -300.203125 71.3984375 C-302.88949834 70.05525083 -305.36770569 68.58792437 -307.875 66.9375 C-308.65617188 66.43089844 -309.43734375 65.92429687 -310.2421875 65.40234375 C-310.82226562 64.93957031 -311.40234375 64.47679687 -312 64 C-312 63.34 -312 62.68 -312 62 C-312.763125 61.71125 -313.52625 61.4225 -314.3125 61.125 C-317 60 -317 60 -320 58 C-320.36328125 55.5390625 -320.36328125 55.5390625 -320.3125 52.625 C-320.30863281 51.66851562 -320.30476562 50.71203125 -320.30078125 49.7265625 C-319.99136198 46.92169689 -319.66529643 45.27556034 -318 43 C-313.58749624 41.18664229 -309.36687211 41.44648799 -305 43.21484375 C-301.18932898 45.28740285 -297.6071873 47.59520846 -294 50 C-294 50.66 -294 51.32 -294 52 C-293.28457031 52.27585937 -292.56914062 52.55171875 -291.83203125 52.8359375 C-289.04062171 53.98330308 -286.3795873 55.26182143 -283.6875 56.625 C-282.62273437 57.15609375 -281.55796875 57.6871875 -280.4609375 58.234375 C-278.13654388 59.42018303 -275.82904885 60.6396618 -273.5390625 61.890625 C-258.33220937 70.08441133 -241.65452365 74.77979048 -224.9375 78.875 C-223.78181519 79.16153442 -223.78181519 79.16153442 -222.6027832 79.45385742 C-208.49337453 82.72012998 -194.29758927 83.44443644 -179.875 83.4375 C-179.00760193 83.43790283 -178.14020386 83.43830566 -177.246521 83.4387207 C-149.35806996 83.36473757 -119.93092948 79.1847666 -95 66 C-93.44369091 65.29859818 -91.88243723 64.60784289 -90.3125 63.9375 C-87.03766911 62.50441161 -84.05965679 60.85189753 -81 59 C-79.30045183 58.29452718 -77.6007536 57.58939231 -75.8984375 56.890625 C-73.05581298 55.55704806 -70.49673863 53.83487525 -67.89453125 52.0859375 C-65.93210864 50.96108496 -64.20862745 50.44074605 -62 50 C-61.78682439 45.41672435 -62.28957383 41.44365711 -63.1875 36.9375 C-64.82607227 26.68168796 -62.56614697 16.8809032 -56.78125 8.24609375 C-42.15055175 -10.20270338 -19.11805486 -12.35976158 0 0 Z M-39.4921875 18.5625 C-43.79038694 24.83724371 -43.76997006 31.66315884 -43 39 C-41.14521614 43.83241893 -37.51427861 46.9838663 -32.94921875 49.28125 C-27.57685186 51.262243 -21.52636988 51.71083238 -15.9921875 50.1328125 C-10.91145729 47.24376983 -6.82463063 41.4738919 -5 36 C-4.26132214 28.98256031 -5.86032556 23.76385293 -10 18 C-14.18103238 14.43717475 -18.58425126 12.29580597 -24.0625 11.625 C-29.83104656 12.17438539 -35.4087287 14.28662691 -39.4921875 18.5625 Z " fill="#FFFFFF" transform="translate(469,368)"/>
<path d="M0 0 C3.5625 1.5 3.5625 1.5 6 3 C6 3.66 6 4.32 6 5 C6.54817383 5.15275391 7.09634766 5.30550781 7.66113281 5.46289062 C13.71707768 7.29489781 18.54211853 9.9495998 23.75 13.5 C25.20272931 14.46934327 26.65584428 15.43810885 28.109375 16.40625 C28.78081543 16.8590332 29.45225586 17.31181641 30.14404297 17.77832031 C31.7056418 18.80623935 33.31340656 19.76352701 34.9296875 20.703125 C37 22 37 22 38.375 24.25 C39.18861293 27.8298969 38.85645177 30.44243112 38 34 C36.10466125 36.58455285 35.11173483 36.96275506 32 38 C25.09321661 38.86334792 20.08097432 36.07897434 14 33 C14 32.34 14 31.68 14 31 C13.071875 30.71125 12.14375 30.4225 11.1875 30.125 C8 29 8 29 5 27 C5.05800781 27.80824219 5.11601562 28.61648437 5.17578125 29.44921875 C5.54071732 38.0929903 5.54071732 38.0929903 3.0625 42.25 C-0.34171951 44.19526829 -2.43205608 45.01878137 -6.3359375 44.81640625 C-12.40992961 42.95502157 -17.266821 38.08606469 -22 34 C-22.66 33.44441406 -23.32 32.88882813 -24 32.31640625 C-25.06631864 31.41157337 -26.1240112 30.49645474 -27.171875 29.5703125 C-30.60450652 26.62177004 -34.18972626 23.85306335 -37.7421875 21.05078125 C-40 19 -40 19 -41 16 C-41.66 16 -42.32 16 -43 16 C-43.33334081 11.23137456 -43.58790099 7.27804563 -41.5625 2.875 C-38.30601493 0.49220605 -36.19630185 0.34009466 -32.23046875 0.5859375 C-26.33124438 1.68106497 -22.0415972 6.61351571 -17.734375 10.51171875 C-16.05786352 12.07234955 -16.05786352 12.07234955 -14 13 C-13.97421875 12.39671875 -13.9484375 11.7934375 -13.921875 11.171875 C-13.65825461 7.45722405 -13.40082985 4.68475099 -11.5 1.4375 C-7.71138691 -0.74095253 -4.26590006 -0.64099016 0 0 Z " fill="#FFFFFF" transform="translate(304,218)"/>
<path d="M0 0 C3.18367026 2.62652796 3.87411215 4.53001868 4.9375 8.5 C5.00942592 12.52785158 4.61273686 13.96585397 2 17 C-1.59883515 19.53554295 -3.23055093 20.10613091 -7.625 19.5 C-11.45709627 17.7968461 -12.96818095 16.65727429 -15 13 C-15.61224257 8.714302 -15.50455826 6.773656 -13.125 3.125 C-9.27493159 -0.72506841 -5.24101958 -0.81133221 0 0 Z " fill="#FFFFFF" transform="translate(454,75)"/>
<path d="M0 0 C3.28357573 1.27298045 3.9584621 1.93769316 6 5 C6.31203894 9.79259813 5.89063865 13.80320431 3 17.6875 C-2.09157165 19.9150626 -6.86083865 18.71305378 -12 17 C-14.1930938 12.39450302 -14.27320097 8.91091803 -13 4 C-9.92377525 -0.99886522 -5.35531201 -0.81083949 0 0 Z " fill="#FFFFFF" transform="translate(135,387)"/>
</svg>
