<?xml version="1.0" encoding="UTF-8"?>
<svg version="1.1" xmlns="http://www.w3.org/2000/svg" width="578" height="482">
<path d="M0 0 C0.66042207 -0.00367669 1.32084414 -0.00735338 2.001279 -0.01114148 C4.22450342 -0.02219538 6.44768114 -0.026025 8.67092896 -0.02983093 C10.26077422 -0.03609421 11.85061802 -0.04274089 13.44046021 -0.04974365 C17.76691355 -0.06716394 22.09335583 -0.07770784 26.41983557 -0.08594918 C29.12114117 -0.09109631 31.82244332 -0.09717211 34.52374649 -0.10346031 C42.97061216 -0.12251377 51.41746907 -0.13674556 59.86435211 -0.14507228 C69.62426176 -0.15485155 79.38394502 -0.18118831 89.14377487 -0.22157317 C96.68182156 -0.25169757 104.21980321 -0.26653758 111.75790894 -0.26985329 C116.26295196 -0.27220766 120.76775317 -0.28121817 125.27273178 -0.30631447 C129.5097339 -0.32953663 133.746334 -0.33385226 137.98338318 -0.32355309 C139.53944864 -0.32305621 141.09553351 -0.32942128 142.65153885 -0.34310913 C144.77436313 -0.36074013 146.89573072 -0.35376745 149.01855469 -0.34057617 C150.20691359 -0.34296453 151.39527248 -0.34535288 152.61964226 -0.34781361 C156.25329554 0.2484177 157.39032392 1.29425718 159.63626099 4.14717102 C161.19603163 7.2667123 160.75730225 10.57676486 160.73391724 13.99873352 C160.73179482 15.15978104 160.73179482 15.15978104 160.72962952 16.34428406 C160.72402502 18.82028544 160.71147182 21.2961969 160.69876099 23.77217102 C160.69374656 25.44925305 160.68918356 27.12633649 160.68508911 28.80342102 C160.67405414 32.91803908 160.65678653 37.0325898 160.63626099 41.14717102 C161.19748657 41.27051819 161.75871216 41.39386536 162.33694458 41.52095032 C174.12728151 44.1246394 185.65521948 46.96898947 197.03860474 50.99873352 C199.72368169 51.85585906 202.25624723 52.53157624 204.99954224 53.11201477 C209.74424929 54.1228765 214.29160582 55.53884212 218.88626099 57.08467102 C219.66227661 57.33668274 220.43829224 57.58869446 221.23782349 57.8483429 C221.99321411 58.10035461 222.74860474 58.35236633 223.52688599 58.61201477 C224.19752075 58.83494202 224.86815552 59.05786926 225.55911255 59.28755188 C228.22439148 60.39056635 230.32885706 61.38030118 232.63626099 63.14717102 C233.25150013 65.98385906 233.25150013 65.98385906 233.23753357 69.50622559 C233.24180569 70.15399013 233.24607782 70.80175468 233.2504794 71.46914846 C233.25872859 73.64401597 233.23119757 75.81696313 233.20388794 77.99165344 C233.20247786 79.54872594 233.20326866 81.10580176 233.20610046 82.66287231 C233.20753762 86.89425472 233.17809999 91.12493136 233.14323068 95.35614944 C233.11201675 99.77638805 233.10904037 104.19664206 233.10310364 108.61697388 C233.08755054 116.98936504 233.04650238 125.36143054 232.99635619 133.73367816 C232.94050821 143.26435472 232.91298769 152.79504667 232.88787901 162.32584608 C232.8355877 181.9331363 232.74761704 201.54013316 232.63626099 221.14717102 C233.25600296 221.1427298 233.87574493 221.13828857 234.51426697 221.13371277 C240.95407815 221.08952742 247.3938464 221.05932457 253.83377075 221.03730774 C256.23841093 221.02723901 258.64303884 221.01358317 261.04763794 220.99629211 C264.50038682 220.97208229 267.95297408 220.9606967 271.40579224 220.95185852 C272.48399734 220.94153595 273.56220245 220.93121338 274.67308044 220.920578 C276.17429695 220.92035141 276.17429695 220.92035141 277.70584106 220.92012024 C278.58742386 220.91567902 279.46900665 220.91123779 280.37730408 220.90666199 C282.63626099 221.14717102 282.63626099 221.14717102 285.63626099 223.14717102 C286.64692081 225.9144658 286.770377 228.54147605 286.7973938 231.4691925 C286.80700134 232.31364426 286.81660889 233.15809601 286.82650757 234.02813721 C286.83288239 235.38450035 286.83288239 235.38450035 286.83938599 236.76826477 C286.84508606 237.70517654 286.85078613 238.64208832 286.85665894 239.60739136 C286.86609408 241.58686702 286.87263701 243.56635828 286.87649536 245.54585266 C286.88621428 248.57013815 286.9172571 251.59374766 286.94876099 254.61787415 C286.9552902 256.54300033 286.96054099 258.46813136 286.96438599 260.39326477 C286.97673279 261.29548264 286.98907959 262.1977005 287.00180054 263.1272583 C286.98485319 267.91371723 286.89572243 271.35148741 283.63626099 275.14717102 C281.69436646 276.40156555 281.69436646 276.40156555 279.50344849 277.27998352 C278.2930188 277.77691711 278.2930188 277.77691711 277.05813599 278.28388977 C276.21766724 278.61002258 275.37719849 278.9361554 274.51126099 279.27217102 C273.69399536 279.60603821 272.87672974 279.9399054 272.03469849 280.28388977 C265.37373459 282.97146223 258.62864983 285.47111482 251.63626099 287.14717102 C251.39391724 288.19775696 251.15157349 289.2483429 250.90188599 290.33076477 C249.09918434 297.95792906 247.24348175 305.14337013 243.63626099 312.14717102 C243.22118286 312.97732727 242.80610474 313.80748352 242.37844849 314.66279602 C241.52323762 316.37321776 240.66400167 318.0816342 239.80032349 319.78779602 C238.28429518 322.86055139 236.96289792 325.98851166 235.63626099 329.14717102 C235.2405188 329.77623352 234.84477661 330.40529602 234.43704224 331.05342102 C233.39981267 333.13819866 233.39981267 333.13819866 234.25344849 335.31123352 C234.66852661 336.1233429 235.08360474 336.93545227 235.51126099 337.77217102 C235.97661255 338.7286554 236.44196411 339.68513977 236.92141724 340.67060852 C237.48731567 341.81787415 238.05321411 342.96513977 238.63626099 344.14717102 C240.10324885 347.21735216 241.53085291 350.30407061 242.94876099 353.39717102 C243.31018188 354.15336731 243.67160278 354.9095636 244.04397583 355.68867493 C246.15927616 360.3098706 247.3800852 363.96561591 246.63626099 369.14717102 C245.06204224 371.40498352 245.06204224 371.40498352 242.94876099 373.27217102 C242.21528442 373.94377258 241.48180786 374.61537415 240.72610474 375.30732727 C240.0364563 375.91447571 239.34680786 376.52162415 238.63626099 377.14717102 C235.87527205 379.84242212 233.27986165 382.55246217 230.82376099 385.52217102 C227.99231284 388.87904254 224.84970439 391.68265578 221.51516724 394.52998352 C217.8923837 397.64813817 214.72618785 401.02512824 211.69876099 404.70967102 C208.94531405 407.90338993 206.51475394 410.32199787 202.63626099 412.14717102 C197.93330363 412.32494604 194.57082775 411.77021553 190.63626099 409.14717102 C189.56376099 408.85197571 188.49126099 408.5567804 187.38626099 408.25263977 C182.84252309 406.9131837 178.97951176 404.81174764 174.88626099 402.4499054 C170.40639683 400.04497832 167.52720689 399.88949922 162.63626099 401.14717102 C160.718509 402.06434501 160.718509 402.06434501 159.13626099 403.33467102 C155.48474732 405.7736859 151.77316352 407.44628693 147.69876099 409.08467102 C146.74852051 409.46873108 146.74852051 409.46873108 145.77908325 409.86054993 C142.25677945 411.24687308 138.75345291 412.42198542 135.09719849 413.40498352 C126.71311192 415.58725786 126.71311192 415.58725786 120.37063599 421.10029602 C118.84720095 424.40876606 117.70010414 427.66664481 116.63626099 431.14717102 C115.9314965 432.74151587 115.20505671 434.32661531 114.44876099 435.89717102 C112.80275863 439.58367217 111.56355355 443.32462909 110.44485474 447.20185852 C109.46298301 449.56404267 108.67632687 450.58465549 106.63626099 452.14717102 C103.87272644 452.5415802 103.87272644 452.5415802 100.48416138 452.5670929 C99.21597061 452.58300476 97.94777985 452.59891663 96.64115906 452.61531067 C95.25541235 452.6165779 93.86966427 452.61675481 92.48391724 452.61592102 C91.06288857 452.62302175 89.64186278 452.63072062 88.22084045 452.63899231 C85.2424523 452.65244117 82.26432922 452.65400429 79.28591919 452.64814758 C75.47112026 452.64225161 71.65759413 452.67283428 67.84304142 452.71326447 C64.90815899 452.73912933 61.97358352 452.74202008 59.03860283 452.7383728 C57.63237751 452.74006532 56.22613821 452.74972075 54.82002449 452.76751709 C52.85272542 452.78967536 50.88512629 452.7768053 48.91775513 452.7624054 C47.23922203 452.76548706 47.23922203 452.76548706 45.52677917 452.76863098 C42.63626099 452.14717102 42.63626099 452.14717102 40.32325745 449.79988098 C38.43531438 446.83119343 37.3514474 444.05368253 36.26126099 440.70967102 C35.8345813 439.48635071 35.40790161 438.2630304 34.96829224 437.00263977 C34.29739002 435.07065796 33.63311221 433.13767715 32.98928833 431.19648743 C30.60147999 423.52946834 30.60147999 423.52946834 25.55813599 417.59248352 C22.95086658 416.54784909 20.35283563 415.86111968 17.63626099 415.14717102 C15.12164095 414.17272192 12.62764703 413.1768317 10.13626099 412.14717102 C6.6795889 410.75250225 3.22048352 409.36812194 -0.26608276 408.04951477 C-5.1145794 406.20424718 -9.15628417 404.17819157 -13.28170776 401.00263977 C-16.56965448 399.6516823 -18.94455541 400.36090306 -22.36373901 401.14717102 C-25.94006398 402.67175249 -25.94006398 402.67175249 -29.42623901 404.58467102 C-33.6937449 406.84338408 -37.75357285 408.71186821 -42.36373901 410.14717102 C-43.18873901 410.51842102 -44.01373901 410.88967102 -44.86373901 411.27217102 C-47.97177213 412.35998261 -50.08593399 412.5485349 -53.36373901 412.14717102 C-58.19012451 409.68263375 -61.27288977 406.16691816 -64.71139526 402.09638977 C-67.76703475 398.4917465 -71.10897619 395.34334109 -74.73873901 392.33467102 C-78.09648695 389.50248363 -80.901518 386.36034368 -83.74655151 383.02217102 C-86.36862585 379.98208483 -89.19208199 377.16162458 -92.22702026 374.53388977 C-93.19188354 373.66183899 -93.19188354 373.66183899 -94.17623901 372.77217102 C-94.78080933 372.24881165 -95.38537964 371.72545227 -96.00827026 371.18623352 C-98.10325445 368.03470111 -97.78967979 365.86935616 -97.36373901 362.14717102 C-96.34927864 359.26949574 -95.01098882 356.60603672 -93.61373901 353.89717102 C-92.87583291 352.40151213 -92.14145024 350.90410971 -91.41061401 349.40498352 C-91.05676636 348.68085266 -90.7029187 347.9567218 -90.33834839 347.21064758 C-86.65813633 339.47505319 -86.65813633 339.47505319 -85.36373901 331.14717102 C-86.34308825 329.46828661 -87.34717821 327.80378863 -88.36373901 326.14717102 C-89.09635693 324.45762239 -89.82707583 322.7671755 -90.54074097 321.0695343 C-91.3388718 319.20525598 -92.192353 317.36497805 -93.04733276 315.52607727 C-96.58895487 307.86338571 -99.38260349 300.5673627 -100.76974487 292.20014954 C-101.13944071 290.03471287 -101.13944071 290.03471287 -102.36373901 287.14717102 C-105.01720218 285.7257733 -105.01720218 285.7257733 -108.36373901 285.14717102 C-109.68714727 284.72044968 -111.00469841 284.2752723 -112.31686401 283.81513977 C-113.36281738 283.45718323 -113.36281738 283.45718323 -114.42990112 283.09199524 C-134.07243976 276.28023953 -134.07243976 276.28023953 -136.45913696 272.33770752 C-137.43242237 269.98085104 -137.61707071 268.36291127 -137.62252808 265.82514954 C-137.6288324 264.98069778 -137.63513672 264.13624603 -137.64163208 263.26620483 C-137.63758362 262.36196274 -137.63353516 261.45772064 -137.62936401 260.52607727 C-137.63127747 259.5891655 -137.63319092 258.65225372 -137.63516235 257.68695068 C-137.63652201 255.70746085 -137.63284087 253.72796203 -137.6244812 251.74848938 C-137.61379065 248.72427747 -137.62437778 245.7006612 -137.63717651 242.6764679 C-137.63585464 240.75133638 -137.63329169 238.82620523 -137.62936401 236.90107727 C-137.63341248 235.99885941 -137.63746094 235.09664154 -137.64163208 234.16708374 C-137.58129041 226.05426213 -137.58129041 226.05426213 -135.36373901 222.14717102 C-119.85746788 214.39403545 -100.70027718 221.14717102 -83.36373901 221.14717102 C-83.36373901 169.00717102 -83.36373901 116.86717102 -83.36373901 63.14717102 C-77.0017172 59.96616011 -72.05874108 57.49720232 -65.48873901 55.52217102 C-64.80021851 55.31326233 -64.111698 55.10435364 -63.40231323 54.88911438 C-59.45649334 53.70848619 -55.49666441 52.6615533 -51.48873901 51.70967102 C-46.28724114 50.4732494 -41.29061761 48.81624096 -36.23873901 47.08467102 C-29.99733131 44.95159718 -23.90184918 43.13743223 -17.36373901 42.14717102 C-15.36352883 41.81510123 -13.36350835 41.48188539 -11.36373901 41.14717102 C-11.37944946 40.1131012 -11.39515991 39.07903137 -11.41134644 38.0136261 C-11.46577955 34.16523575 -11.5001375 30.31687923 -11.52853394 26.46821594 C-11.54359016 24.80474621 -11.56403965 23.14131597 -11.59005737 21.47798157 C-11.62658108 19.0824558 -11.64349684 16.68745635 -11.65670776 14.29170227 C-11.67219162 13.55192642 -11.68767548 12.81215057 -11.70362854 12.04995728 C-11.70507995 7.56397979 -11.14852044 4.70632564 -8.36373901 1.14717102 C-5.53567977 -0.2668586 -3.16393357 0.01138511 0 0 Z M5.63626099 16.14717102 C5.63626099 83.79717102 5.63626099 151.44717102 5.63626099 221.14717102 C13.55626099 221.14717102 21.47626099 221.14717102 29.63626099 221.14717102 C29.65084351 218.95673157 29.66542603 216.76629211 29.68045044 214.50947571 C29.73078326 207.2729633 29.79737593 200.03666636 29.8719759 192.80036545 C29.91670711 188.41289353 29.95595706 184.02551506 29.98269653 179.63789368 C30.00870224 175.40372423 30.04908495 171.16991385 30.09944725 166.93596649 C30.11613453 165.32048763 30.12763722 163.70494662 30.13387489 162.08939362 C30.14349603 159.82669415 30.17152967 157.56491714 30.20388794 155.30244446 C30.214991 154.01448975 30.22609406 152.72653503 30.23753357 151.39955139 C30.67174698 147.85771523 30.85531531 146.39425041 33.63626099 144.14717102 C36.37481476 143.74440267 38.71584868 143.600054 41.45657349 143.6295929 C42.25198547 143.62258362 43.04739746 143.61557434 43.86691284 143.60835266 C46.49871634 143.59073336 49.12944637 143.60240882 51.76126099 143.61592102 C53.58824877 143.61322722 55.41523515 143.60934575 57.24221802 143.60432434 C61.07227216 143.59842398 64.9019533 143.60700945 68.73196411 143.62568665 C73.64524015 143.64847663 78.55764227 143.63535641 83.47088623 143.61139679 C87.24383142 143.59695327 91.01656887 143.60153812 94.78952026 143.61190796 C96.6012482 143.61457926 98.4129949 143.61129136 100.22470093 143.60198975 C102.75562605 143.59184772 105.28512947 143.60729098 107.81594849 143.6295929 C108.56721008 143.62149597 109.31847168 143.61339905 110.09249878 143.60505676 C113.18817164 143.65567953 115.14778207 143.75246683 117.5980072 145.73231506 C119.01199516 149.02108442 119.03776229 151.72132186 119.06863403 155.30244446 C119.08392151 156.37133659 119.08392151 156.37133659 119.09951782 157.46182251 C119.12963969 159.81014374 119.13891219 162.15805701 119.14797974 164.50654602 C119.16482708 166.1375209 119.1829774 167.7684828 119.20237732 169.39942932 C119.24987765 173.68686365 119.27968667 177.97424535 119.30581665 182.26185608 C119.33562208 186.63909804 119.38215245 191.01615867 119.42727661 195.39326477 C119.51331023 203.9778262 119.57910896 212.56236868 119.63626099 221.14717102 C127.55626099 221.14717102 135.47626099 221.14717102 143.63626099 221.14717102 C143.63626099 153.49717102 143.63626099 85.84717102 143.63626099 16.14717102 C98.09626099 16.14717102 52.55626099 16.14717102 5.63626099 16.14717102 Z M160.63626099 58.14717102 C160.63626099 111.93717102 160.63626099 165.72717102 160.63626099 221.14717102 C179.11626099 221.14717102 197.59626099 221.14717102 216.63626099 221.14717102 C216.63626099 172.63717102 216.63626099 124.12717102 216.63626099 74.14717102 C208.69723316 70.85591123 208.69723316 70.85591123 200.82376099 68.83467102 C193.84659767 67.34665041 187.20820422 65.06968433 180.49832153 62.65962219 C173.72894621 60.2965866 167.96000772 59.36779548 160.63626099 58.14717102 Z M-43.46774292 66.63838196 C-49.31420288 68.53069952 -55.11866583 70.21465484 -61.12155151 71.54170227 C-63.73710349 72.16837446 -63.73710349 72.16837446 -67.36373901 74.14717102 C-67.36373901 122.65717102 -67.36373901 171.16717102 -67.36373901 221.14717102 C-48.88373901 221.14717102 -30.40373901 221.14717102 -11.36373901 221.14717102 C-11.36373901 167.35717102 -11.36373901 113.56717102 -11.36373901 58.14717102 C-21.81909637 58.14717102 -33.63163795 63.43765114 -43.46774292 66.63838196 Z M45.63626099 159.14717102 C45.63626099 179.60717102 45.63626099 200.06717102 45.63626099 221.14717102 C64.77626099 221.14717102 83.91626099 221.14717102 103.63626099 221.14717102 C103.63626099 200.68717102 103.63626099 180.22717102 103.63626099 159.14717102 C84.49626099 159.14717102 65.35626099 159.14717102 45.63626099 159.14717102 Z M-121.36373901 237.14717102 C-121.36373901 245.39717102 -121.36373901 253.64717102 -121.36373901 262.14717102 C-114.48859628 265.59524769 -114.48859628 265.59524769 -107.48873901 268.08467102 C-102.52611691 269.66969101 -98.02047151 271.65763966 -93.42233276 274.09638977 C-91.25975366 275.26497006 -91.25975366 275.26497006 -88.36373901 276.14717102 C-87.72555542 277.89277649 -87.72555542 277.89277649 -87.34030151 280.13935852 C-84.88182324 292.91637803 -80.58149419 304.77787419 -74.09811401 316.04560852 C-72.60486327 318.71597133 -71.46547241 321.3035078 -70.36373901 324.14717102 C-69.82748901 324.95154602 -69.29123901 325.75592102 -68.73873901 326.58467102 C-66.99583233 329.83281529 -66.8619399 331.49120608 -67.36373901 335.14717102 C-68.23311459 337.19702225 -69.23301744 339.12699274 -70.29342651 341.08467102 C-71.30801134 343.03978339 -72.07302369 344.94633884 -72.80123901 347.02217102 C-74.26608136 351.19450287 -76.36511096 354.92826131 -78.57077026 358.75263977 C-79.64112937 361.20912268 -79.64112937 361.20912268 -78.50045776 363.94795227 C-78.12534058 364.67369446 -77.75022339 365.39943665 -77.36373901 366.14717102 C-76.70373901 366.14717102 -76.04373901 366.14717102 -75.36373901 366.14717102 C-74.37373901 368.12717102 -74.37373901 368.12717102 -73.36373901 370.14717102 C-72.70373901 370.14717102 -72.04373901 370.14717102 -71.36373901 370.14717102 C-71.36373901 370.80717102 -71.36373901 371.46717102 -71.36373901 372.14717102 C-69.74574399 373.7839261 -69.74574399 373.7839261 -67.67623901 375.45967102 C-62.29735383 380.04587838 -57.61386012 384.93744045 -53.10983276 390.37763977 C-50.62658982 392.92331133 -50.62658982 392.92331133 -47.36373901 394.14717102 C-42.32610732 392.64221815 -37.79513302 390.42319801 -33.12521362 388.03559875 C-19.08783799 380.96638216 -19.08783799 380.96638216 -12.36373901 383.14717102 C-9.22109019 384.7587858 -6.19408774 386.46922183 -3.17355347 388.29560852 C2.82278572 391.86913536 9.01336437 394.55024558 15.51126099 397.08467102 C16.46154175 397.46164124 17.41182251 397.83861145 18.39089966 398.227005 C23.73976806 400.27579556 28.89936673 401.76302487 34.55911255 402.66938782 C38.23972924 403.51599887 39.53732833 405.06050535 41.63626099 408.14717102 C43.15555107 412.09099486 44.35510691 416.11530378 45.63626099 420.14717102 C47.94626099 425.42717102 50.25626099 430.70717102 52.63626099 436.14717102 C67.15626099 436.14717102 81.67626099 436.14717102 96.63626099 436.14717102 C102.68733326 422.87520791 102.68733326 422.87520791 106.96438599 410.06123352 C108.17629792 406.6086937 109.60997123 405.18528453 112.63626099 403.14717102 C115.51367109 402.25601627 118.39724586 401.58988166 121.33938599 400.94404602 C126.99099866 399.57801642 132.27487579 397.37062174 137.63626099 395.14717102 C138.62843628 394.73628235 138.62843628 394.73628235 139.64065552 394.3170929 C149.185421 390.44589956 149.185421 390.44589956 158.01126099 385.20967102 C161.53393312 382.9423788 164.39860383 382.25675673 168.59329224 382.45185852 C174.26104889 383.74693 179.33369842 386.47390831 184.48782349 389.10420227 C191.27578897 392.70695575 191.27578897 392.70695575 198.63626099 394.14717102 C198.63626099 393.48717102 198.63626099 392.82717102 198.63626099 392.14717102 C199.62626099 391.81717102 200.61626099 391.48717102 201.63626099 391.14717102 C201.63626099 390.48717102 201.63626099 389.82717102 201.63626099 389.14717102 C202.62626099 388.81717102 203.61626099 388.48717102 204.63626099 388.14717102 C206.84483759 386.2720894 206.84483759 386.2720894 208.63626099 384.14717102 C208.63626099 383.48717102 208.63626099 382.82717102 208.63626099 382.14717102 C209.62626099 381.81717102 210.61626099 381.48717102 211.63626099 381.14717102 C211.63626099 380.48717102 211.63626099 379.82717102 211.63626099 379.14717102 C212.62626099 378.81717102 213.61626099 378.48717102 214.63626099 378.14717102 C214.63626099 377.48717102 214.63626099 376.82717102 214.63626099 376.14717102 C215.95626099 375.48717102 217.27626099 374.82717102 218.63626099 374.14717102 C218.63626099 373.48717102 218.63626099 372.82717102 218.63626099 372.14717102 C219.29626099 372.14717102 219.95626099 372.14717102 220.63626099 372.14717102 C220.63626099 371.48717102 220.63626099 370.82717102 220.63626099 370.14717102 C221.95626099 369.48717102 223.27626099 368.82717102 224.63626099 368.14717102 C224.63626099 367.48717102 224.63626099 366.82717102 224.63626099 366.14717102 C225.62626099 365.81717102 226.61626099 365.48717102 227.63626099 365.14717102 C228.69385041 363.46477851 228.69385041 363.46477851 228.63626099 361.14717102 C227.66476499 358.81675464 226.65637562 356.72271324 225.44876099 354.52217102 C224.79326244 353.27643012 224.14092922 352.02901865 223.49172974 350.77998352 C223.17252563 350.16671204 222.85332153 349.55344055 222.52444458 348.92158508 C220.91840449 345.7130366 219.63843914 342.38767364 218.36282349 339.03779602 C217.65354016 337.1012295 217.65354016 337.1012295 216.63626099 335.14717102 C216.02287288 329.74935564 217.59232136 327.49565619 220.63626099 323.14717102 C221.32612101 321.27469382 222.01231792 319.40059901 222.66360474 317.51435852 C223.86769181 314.58392973 225.42738392 311.95323345 227.01126099 309.20967102 C232.07435266 300.01475401 234.77746612 289.99522372 236.69876099 279.70967102 C237.63626099 276.14717102 237.63626099 276.14717102 239.19094849 275.13545227 C240.40137817 274.64625305 240.40137817 274.64625305 241.63626099 274.14717102 C242.21142456 273.90200745 242.78658813 273.65684387 243.37918091 273.4042511 C245.47906007 272.51007392 247.58746942 271.63904359 249.69876099 270.77217102 C250.82797974 270.30690002 250.82797974 270.30690002 251.98001099 269.83222961 C257.18228719 267.70352044 262.41773642 265.71382863 267.73001099 263.87373352 C269.61608888 263.30364326 269.61608888 263.30364326 270.63626099 262.14717102 C270.63626099 253.89717102 270.63626099 245.64717102 270.63626099 237.14717102 C240.60626099 237.14717102 210.57626099 237.14717102 179.63626099 237.14717102 C178.97626099 243.74717102 178.31626099 250.34717102 177.63626099 257.14717102 C175.46149662 267.69880555 172.31173943 276.97045944 168.02688599 286.79560852 C166.50851463 289.85028578 166.50851463 289.85028578 166.63626099 292.14717102 C165.97626099 292.14717102 165.31626099 292.14717102 164.63626099 292.14717102 C163.97626099 293.24029602 163.31626099 294.33342102 162.63626099 295.45967102 C162.26501099 296.07455383 161.89376099 296.68943665 161.51126099 297.32295227 C160.420021 299.26079028 160.420021 299.26079028 160.63626099 302.14717102 C159.15126099 302.64217102 159.15126099 302.64217102 157.63626099 303.14717102 C156.20265113 304.78517103 154.83661725 306.48290757 153.51126099 308.20967102 C145.13802409 318.66271192 134.28673539 328.34871521 121.63626099 333.14717102 C120.32528442 333.82199524 120.32528442 333.82199524 118.98782349 334.51045227 C99.08026287 344.61466755 76.33743477 345.66279343 54.63626099 342.14717102 C53.44387817 341.97443665 52.25149536 341.80170227 51.02297974 341.62373352 C41.92119569 340.03633291 34.5053157 336.42113619 26.46707153 332.07978821 C24.69258322 331.17586164 22.84694896 330.41605428 21.00344849 329.66279602 C15.4374995 327.15747328 11.23610478 323.09370367 6.63626099 319.14717102 C5.93243286 318.59029602 5.22860474 318.03342102 4.50344849 317.45967102 C-20.10982687 297.5298934 -27.21925864 267.01973457 -30.36373901 237.14717102 C-60.39373901 237.14717102 -90.42373901 237.14717102 -121.36373901 237.14717102 Z M-13.36373901 237.14717102 C-13.36373901 252.51501549 -12.25433518 262.6798229 -6.36373901 276.14717102 C-5.79719604 277.44461243 -5.79719604 277.44461243 -5.21920776 278.76826477 C-4.27819523 280.89967478 -3.32707667 283.02577852 -2.36373901 285.14717102 C-1.70373901 285.14717102 -1.04373901 285.14717102 -0.36373901 285.14717102 C-0.09561401 285.88580383 0.17251099 286.62443665 0.44876099 287.38545227 C4.54083648 296.90221996 14.09149502 306.47505657 22.63626099 312.14717102 C23.29626099 312.14717102 23.95626099 312.14717102 24.63626099 312.14717102 C24.63626099 312.80717102 24.63626099 313.46717102 24.63626099 314.14717102 C25.24212036 314.45010071 25.84797974 314.7530304 26.47219849 315.06513977 C27.31008911 315.48408508 28.14797974 315.9030304 29.01126099 316.33467102 C29.93680786 316.79099915 30.86235474 317.24732727 31.81594849 317.71748352 C33.53071117 318.58673995 35.22950073 319.48997738 36.89407349 320.45185852 C55.69361319 330.99794177 79.63193493 330.75668694 99.94876099 325.39717102 C106.5759904 323.36095669 112.54917044 320.42685343 118.63626099 317.14717102 C120.63345335 316.14157534 122.63273786 315.14009351 124.63626099 314.14717102 C124.63626099 313.48717102 124.63626099 312.82717102 124.63626099 312.14717102 C125.21762817 311.88291321 125.79899536 311.6186554 126.39797974 311.34638977 C130.31403272 309.24826016 133.38484026 306.14238223 136.63626099 303.14717102 C137.2511438 302.58642883 137.86602661 302.02568665 138.49954224 301.44795227 C142.95882663 297.20619395 146.63864924 292.53848007 149.63626099 287.14717102 C149.63626099 286.48717102 149.63626099 285.82717102 149.63626099 285.14717102 C150.29626099 285.14717102 150.95626099 285.14717102 151.63626099 285.14717102 C154.38116566 279.3406419 156.67849988 273.44520194 158.82376099 267.39717102 C159.08560181 266.66441956 159.34744263 265.93166809 159.61721802 265.17671204 C159.86455688 264.47086975 160.11189575 263.76502747 160.36672974 263.03779602 C160.58740112 262.40905579 160.80807251 261.78031555 161.03543091 261.13252258 C163.57417927 252.74361494 162.63626099 246.85885464 162.63626099 237.14717102 C104.55626099 237.14717102 46.47626099 237.14717102 -13.36373901 237.14717102 Z " fill="#FFFFFF" transform="translate(213.36373901367188,20.852828979492188)"/>
<path d="M0 0 C1.19092758 -0.01051392 1.19092758 -0.01051392 2.40591431 -0.02124023 C5.02747689 -0.03882973 7.6479579 -0.02719461 10.26953125 -0.01367188 C12.09269416 -0.01636653 13.91585568 -0.02024872 15.73901367 -0.02526855 C19.55889578 -0.03116488 23.3784036 -0.02259641 27.19824219 -0.00390625 C32.09457694 0.01888349 36.9900347 0.00576111 41.88633728 -0.01819611 C45.65074267 -0.03265052 49.41494015 -0.02804976 53.17935181 -0.01768494 C54.98467106 -0.01501666 56.79000919 -0.01829097 58.5953064 -0.02760315 C61.11873367 -0.03776305 63.64074099 -0.02227675 66.1640625 0 C67.28320541 -0.01214539 67.28320541 -0.01214539 68.42495728 -0.02453613 C71.78888943 0.03047904 73.76539705 0.29498495 76.54653931 2.25012207 C78.31962825 4.86843686 78.57861708 6.17829623 78.56787109 9.31445312 C78.57710098 10.73612793 78.57710098 10.73612793 78.58651733 12.18652344 C78.5721463 13.20327148 78.55777527 14.22001953 78.54296875 15.26757812 C78.54205231 16.3178418 78.54113586 17.36810547 78.54019165 18.45019531 C78.53415336 20.66931684 78.51840066 22.88843013 78.49365234 25.10742188 C78.4571678 28.50486269 78.45263288 31.90121195 78.453125 35.29882812 C78.44329287 37.45508755 78.43163546 39.61133959 78.41796875 41.76757812 C78.4157431 42.78432617 78.41351746 43.80107422 78.41122437 44.84863281 C78.39846466 45.79641602 78.38570496 46.74419922 78.37255859 47.72070312 C78.3611232 48.96835449 78.3611232 48.96835449 78.34945679 50.24121094 C78.0536865 52.75885296 77.42624782 54.37685329 76.08203125 56.51757812 C73.00074706 58.05822022 69.75717992 57.67370267 66.37524414 57.67871094 C65.1823452 57.68615829 65.1823452 57.68615829 63.96534729 57.6937561 C61.32845197 57.7083893 58.69161679 57.7151811 56.0546875 57.72070312 C54.22627256 57.72645295 52.39785764 57.7322107 50.56944275 57.73797607 C46.73354816 57.74848889 42.89767455 57.75432994 39.06176758 57.7578125 C34.1407969 57.7633025 29.22010219 57.78734007 24.29921818 57.81578445 C20.52204063 57.83438407 16.74492997 57.83961497 12.96771049 57.84114838 C11.15317715 57.84418073 9.33864513 57.85222878 7.52415657 57.86533356 C4.9886266 57.88234088 2.45377635 57.88052722 -0.08178711 57.87402344 C-0.83461975 57.88323822 -1.58745239 57.892453 -2.36309814 57.90194702 C-7.444279 57.86100647 -7.444279 57.86100647 -9.8452301 56.12030029 C-11.78175236 53.22704464 -12.05433794 51.39927316 -12.0949707 47.94775391 C-12.10780594 46.99981964 -12.12064117 46.05188538 -12.13386536 45.07522583 C-12.14125229 44.04815521 -12.14863922 43.02108459 -12.15625 41.96289062 C-12.16432175 40.90979706 -12.17239349 39.85670349 -12.18070984 38.771698 C-12.1945557 36.54068654 -12.2052756 34.30965386 -12.21313477 32.07861328 C-12.23036406 28.66333034 -12.27424841 25.24901111 -12.31835938 21.83398438 C-12.32848461 19.66862692 -12.33700124 17.50326123 -12.34375 15.33789062 C-12.36125809 14.31486847 -12.37876617 13.29184631 -12.39680481 12.23782349 C-12.39387924 11.2835849 -12.39095367 10.32934631 -12.38793945 9.34619141 C-12.39380569 8.50839142 -12.39967194 7.67059143 -12.40571594 6.80740356 C-10.98422913 0.13395324 -5.85659367 -0.06355809 0 0 Z M4.08203125 16.51757812 C4.08203125 24.76757812 4.08203125 33.01757812 4.08203125 41.51757812 C23.22203125 41.51757812 42.36203125 41.51757812 62.08203125 41.51757812 C62.08203125 33.26757812 62.08203125 25.01757812 62.08203125 16.51757812 C42.94203125 16.51757812 23.80203125 16.51757812 4.08203125 16.51757812 Z " fill="#FFFFFF" transform="translate(254.91796875,62.482421875)"/>
</svg>
