<?xml version="1.0" encoding="UTF-8"?>
<svg version="1.1" xmlns="http://www.w3.org/2000/svg" width="578" height="482">
<path d="M0 0 C1.51118416 -0.00489702 3.02236457 -0.01109056 4.5335387 -0.01845789 C8.6603 -0.03477824 12.78686928 -0.03255568 16.91365147 -0.02708292 C21.37465286 -0.02440286 25.83560419 -0.03896293 30.29658508 -0.05117798 C39.02714602 -0.07219439 47.7576405 -0.07677495 56.48822375 -0.07499009 C63.58927318 -0.07368034 70.69030196 -0.07749751 77.7913475 -0.08491516 C79.8400745 -0.08701446 81.88880149 -0.08911206 83.93752849 -0.09120798 C84.95738731 -0.09225151 85.97724613 -0.09329504 87.02800976 -0.09437019 C106.30126133 -0.11325794 125.57447482 -0.11222711 144.84773181 -0.10540086 C162.45365911 -0.09982886 180.05944074 -0.12063883 197.665334 -0.15376133 C215.7674455 -0.18755145 233.86948733 -0.20265988 251.97163093 -0.1980443 C262.12472763 -0.19580468 272.27768977 -0.20096803 282.43075943 -0.22593689 C291.07666991 -0.24701906 299.72237209 -0.25047388 308.36829133 -0.2316373 C312.77354298 -0.22252119 317.17840697 -0.22120855 321.5836277 -0.24199295 C325.62811133 -0.26086302 329.67189417 -0.256023 333.71635245 -0.23344713 C335.16786543 -0.22930131 336.61943387 -0.23332353 338.07088794 -0.24704307 C349.18205864 -0.344791 358.44010986 1.93585598 368.8588562 5.39440918 C370.68942777 5.93381963 372.52202323 6.46656525 374.3588562 6.98425293 C386.41492067 10.54102291 394.95974034 13.88046674 402.3510437 24.53894043 C406.13146089 31.6982279 407.30262138 38.31241542 407.24703979 46.34533691 C407.25492523 47.77161911 407.25492523 47.77161911 407.26296997 49.22671509 C407.27608405 52.34398228 407.26746162 55.46073129 407.2572937 58.57800293 C407.25931707 60.76078895 407.26223069 62.94357431 407.26599121 65.12635803 C407.27040309 69.69144148 407.26402068 74.25634829 407.24996948 78.82141113 C407.23288865 84.65288853 407.24271928 90.48395131 407.26068687 96.31541348 C407.27156406 100.82032861 407.26806015 105.3251466 407.2603035 109.83006477 C407.25831184 111.97931023 407.26072415 114.12856469 407.26774216 116.27779961 C407.27542039 119.29013055 407.26366306 122.30180449 407.24703979 125.31408691 C407.25311249 126.18971786 407.25918518 127.06534882 407.26544189 127.96751404 C407.15359465 138.990859 403.85983671 147.17756606 396.22994995 155.08190918 C388.9916449 161.79959368 377.76053589 166.39440918 367.8588562 166.39440918 C367.68869995 166.93533203 367.5185437 167.47625488 367.3432312 168.03356934 C365.49231687 173.76721952 363.31005929 179.2680248 360.8588562 184.76940918 C360.51596558 185.56218262 360.17307495 186.35495605 359.8197937 187.17175293 C359.48205933 187.93358887 359.14432495 188.6954248 358.7963562 189.48034668 C358.49600464 190.16145508 358.19565308 190.84256348 357.88619995 191.54431152 C356.04290425 194.86382076 354.4754754 196.18886945 350.8588562 197.39440918 C348.83690638 197.48952218 346.81190601 197.52355968 344.78772163 197.52583694 C342.87100299 197.53159866 342.87100299 197.53159866 340.91556275 197.53747678 C339.48936274 197.53669649 338.06316278 197.53581769 336.63696289 197.53485107 C335.12825948 197.53743392 333.61955676 197.54044685 332.11085498 197.54385448 C327.95430666 197.55193711 323.79777559 197.55371475 319.64122033 197.55445194 C315.16260326 197.55630028 310.68399519 197.56384644 306.2053833 197.57058716 C296.40801826 197.58417943 286.6106573 197.59019644 276.8132844 197.59459782 C270.69895624 197.59735842 264.58462967 197.60159541 258.47030258 197.60610199 C241.55023612 197.61829525 224.63017093 197.62859483 207.71010017 197.63197708 C206.08517636 197.63230643 206.08517636 197.63230643 204.42742579 197.63264243 C202.79856174 197.63296985 202.79856174 197.63296985 201.13679135 197.63330388 C198.93623614 197.63374735 196.73568094 197.63419391 194.53512573 197.63464355 C192.89779031 197.6349757 192.89779031 197.6349757 191.2273774 197.63531455 C173.53204403 197.63926432 155.8367518 197.65672352 138.14143433 197.68000308 C119.98540432 197.7036965 101.82939498 197.716178 83.67334926 197.717345 C73.47471621 197.71826283 63.27613677 197.72404238 53.07751846 197.74216461 C44.39488589 197.75753843 35.7123235 197.76270214 27.02967991 197.75442651 C22.59770357 197.75051049 18.16586868 197.75149584 13.73390961 197.76548386 C9.67879123 197.77816578 5.62392141 197.77707587 1.56880365 197.76489314 C0.09976732 197.76292621 -1.36928628 197.76606029 -2.83829831 197.77473751 C-4.83161263 197.78576871 -6.8250084 197.77658399 -8.81832695 197.76634598 C-9.92662326 197.76694307 -11.03491956 197.76754015 -12.17680061 197.76815534 C-15.54359762 197.34366756 -17.41690344 196.38278954 -20.1411438 194.39440918 C-23.87110521 189.08107383 -26.00364829 182.45624786 -28.4536438 176.45690918 C-28.72039917 175.80625488 -28.98715454 175.15560059 -29.26199341 174.48522949 C-30.39867363 171.62502658 -31.1411438 169.50260797 -31.1411438 166.39440918 C-32.04993286 166.24745605 -32.04993286 166.24745605 -32.9770813 166.09753418 C-45.37725343 163.88458038 -54.48259673 159.4287526 -63.2114563 150.29675293 C-70.67724346 139.06784633 -69.72851269 126.78719692 -69.6723938 113.83190918 C-69.67509281 111.63195627 -69.67897863 109.43200452 -69.68399048 107.23205566 C-69.68986621 102.63599212 -69.68138465 98.04024091 -69.66262817 93.44421387 C-69.63984016 87.57691073 -69.65297356 81.71033969 -69.67691803 75.84306335 C-69.69142804 71.30463221 -69.68674617 66.76637232 -69.67640686 62.22793579 C-69.67375395 60.06556103 -69.67695832 57.90317031 -69.68632507 55.74081421 C-69.73514709 41.30480977 -69.64680753 28.47987605 -59.1411438 17.39440918 C-53.14500526 11.79861028 -46.59049338 9.49965444 -38.8286438 7.20690918 C-37.76452271 6.87755371 -36.70040161 6.54819824 -35.60403442 6.2088623 C-32.45645936 5.24288899 -29.30610939 4.30194808 -26.1411438 3.39440918 C-25.41263218 3.15084891 -24.68412056 2.90728864 -23.93353283 2.65634775 C-15.93529129 0.16114057 -8.31941664 -0.03362064 0 0 Z M-22.0161438 22.20690918 C-26.33541835 28.685821 -26.43457094 34.516334 -26.415802 42.06213379 C-26.42091293 43.12465866 -26.42602386 44.18718353 -26.43128967 45.28190613 C-26.44516607 48.78691269 -26.44423041 52.2917222 -26.44192505 55.79675293 C-26.44581287 58.23763604 -26.45014772 60.67851847 -26.45491028 63.11940002 C-26.46236817 68.23282058 -26.46208417 73.34617208 -26.45681763 78.45959473 C-26.45102182 85.00774145 -26.46795908 91.55560543 -26.4911623 98.10370541 C-26.50590323 103.14378 -26.50677086 108.18378653 -26.50365257 113.22387886 C-26.50416554 115.63797122 -26.50939867 118.05206741 -26.51946449 120.46613884 C-26.53181897 123.84337554 -26.52504276 127.22006196 -26.51345825 130.59729004 C-26.52110199 131.59127808 -26.52874573 132.58526611 -26.53662109 133.609375 C-26.48240361 140.77086968 -25.52560314 145.64310994 -20.7036438 151.20690918 C-16.40768491 154.87419116 -13.62705624 155.64445312 -7.9681654 155.65167809 C-6.69307871 155.65812698 -5.41799202 155.66457587 -4.10426635 155.67122018 C-2.68631653 155.6682778 -1.2683671 155.66514235 0.14958191 155.66183472 C1.65359974 155.66557014 3.15761563 155.67017123 4.66162843 155.67556536 C8.80067336 155.68782423 12.93963765 155.68753151 17.07869661 155.68517661 C21.54030063 155.68476917 26.00187854 155.69580064 30.46347046 155.70529175 C39.20699851 155.72191866 47.95049959 155.72740206 56.69404212 155.7285165 C63.800108 155.7294662 70.90616496 155.73357257 78.01222801 155.73991776 C98.15133817 155.75753496 118.29042699 155.7667559 138.4295449 155.76525681 C139.51569761 155.76517689 140.60185032 155.76509698 141.72091675 155.76501465 C143.35213107 155.76489201 143.35213107 155.76489201 145.01629921 155.76476689 C162.64233705 155.7639539 180.26828946 155.78309343 197.89430258 155.81129138 C215.98483764 155.84000451 234.07533101 155.85383254 252.16588944 155.85210383 C262.32546132 155.85143937 272.48494363 155.856956 282.64449501 155.87845993 C291.29449416 155.89665108 299.94436317 155.90103611 308.59437314 155.88744108 C313.00841508 155.8809009 317.42220718 155.88083195 321.83622551 155.89814758 C325.87729235 155.91383723 329.91791042 155.91105704 333.95896604 155.89357932 C335.42060532 155.89050032 336.88227775 155.89417568 338.34387795 155.90529947 C348.83906069 156.08040433 348.83906069 156.08040433 357.8588562 151.39440918 C361.32366831 146.92662515 362.97645002 143.46079361 363.00602722 137.83552551 C363.01318253 136.90057755 363.02033783 135.96562958 363.02770996 135.00234985 C363.03039886 133.97842133 363.03308777 132.9544928 363.03585815 131.89953613 C363.04242935 130.81954849 363.04900055 129.73956085 363.05577087 128.62684631 C363.07551405 125.04546034 363.08716928 121.46411633 363.09713745 117.88269043 C363.10325074 116.04832459 363.10325074 116.04832459 363.10948753 114.17690086 C363.13035339 107.70326277 363.14465247 101.2296459 363.15402222 94.75598145 C363.16208002 89.39877935 363.18319702 84.04180161 363.21554565 78.68469238 C363.25397949 72.21675455 363.27278695 65.74904423 363.2773037 59.28099632 C363.28217241 56.81747374 363.29379443 54.35395478 363.31234169 51.89049721 C363.33671218 48.43881538 363.33577129 44.98799657 363.3288269 41.53625488 C363.34163696 40.52244751 363.35444702 39.50864014 363.36764526 38.46411133 C363.31291134 30.98334548 361.86429537 25.39984835 356.4838562 20.01940918 C351.63329254 17.01667929 347.19144982 16.14445576 341.53627968 16.13993359 C340.27872797 16.13410139 339.02117625 16.1282692 337.72551692 16.12226027 C336.33772204 16.12589313 334.94992766 16.12971749 333.56213379 16.13371277 C332.08185171 16.13069142 330.60157119 16.12680202 329.12129343 16.1221202 C325.05710251 16.11182927 320.99299971 16.11402481 316.92880154 16.1183008 C312.54424523 16.12076603 308.15971026 16.11175636 303.77516174 16.10426331 C295.18664432 16.09150858 286.59815814 16.08972359 278.00963284 16.09206357 C271.02900517 16.09384605 264.048387 16.09209858 257.06776047 16.08783913 C256.07452851 16.08724394 255.08129654 16.08664875 254.05796664 16.08603552 C252.04025869 16.08482378 250.02255075 16.08360965 248.0048428 16.08239315 C229.07906942 16.07151459 210.15331385 16.07368157 191.22753946 16.07977799 C173.91271186 16.08494723 156.59794052 16.07369209 139.28312404 16.05467977 C121.50553505 16.03530892 103.72797268 16.02704407 85.95037305 16.03080302 C75.96911034 16.03271624 65.9878955 16.03021582 56.00664139 16.01608849 C47.50934648 16.0041833 39.01212894 16.00276011 30.51483299 16.01487865 C26.17967948 16.02077344 21.84466753 16.02185022 17.50952339 16.00987625 C13.53947943 15.99903817 9.56969558 16.00209599 5.5996639 16.01613794 C4.16498644 16.0187906 2.73028874 16.01640044 1.29563113 16.00840207 C-11.51819632 15.70857701 -11.51819632 15.70857701 -22.0161438 22.20690918 Z M-46.5786438 28.89440918 C-47.47389771 29.59050293 -47.47389771 29.59050293 -48.38723755 30.30065918 C-53.13535315 35.96878827 -53.5815983 42.57428675 -53.52932739 49.63684082 C-53.53458435 50.52409348 -53.53984131 51.41134613 -53.54525757 52.32548523 C-53.55837688 55.23536187 -53.54974894 58.14468399 -53.5395813 61.05456543 C-53.54160417 63.08902592 -53.54451739 65.12348571 -53.54827881 67.15794373 C-53.55269108 71.41204768 -53.54630575 75.66596209 -53.53225708 79.92004395 C-53.51515505 85.36286769 -53.52501993 90.80524792 -53.54297447 96.24805546 C-53.55383261 100.4457481 -53.55035682 104.64333618 -53.54259109 108.84103203 C-53.54059527 110.84762055 -53.54302657 112.85421868 -53.55002975 114.86079597 C-53.55767884 117.66790939 -53.5459921 120.47431142 -53.52932739 123.28137207 C-53.53540009 124.10390472 -53.54147278 124.92643738 -53.54772949 125.77389526 C-53.46667455 133.17242612 -51.42207657 138.95344815 -46.1411438 144.39440918 C-44.8211438 144.72440918 -43.5011438 145.05440918 -42.1411438 145.39440918 C-41.8111438 106.12440918 -41.4811438 66.85440918 -41.1411438 26.39440918 C-43.77315146 26.39440918 -44.54727286 27.25183827 -46.5786438 28.89440918 Z M378.8588562 26.39440918 C378.8588562 65.99440918 378.8588562 105.59440918 378.8588562 146.39440918 C385.88888183 142.37725168 388.19614972 140.9360945 390.45164108 133.41869831 C391.16242062 129.88537348 391.01512645 126.28887704 391.01998901 122.69787598 C391.02495392 121.820961 391.02991882 120.94404602 391.03503418 120.04055786 C391.0496305 117.14157321 391.0564536 114.24264328 391.0619812 111.34362793 C391.06773473 109.32587177 391.07349244 107.30811563 391.07925415 105.2903595 C391.08975694 101.05949652 391.09560433 96.8286525 391.09909058 92.59777832 C391.10457378 87.18402874 391.12860125 81.77053085 391.15706253 76.35686016 C391.17571219 72.18835219 391.18089575 68.01990457 391.18242645 63.85135841 C391.18544824 61.85592078 391.19346073 59.86048409 391.20661163 57.86508751 C391.2237207 55.06957371 391.22178 52.2746713 391.21530151 49.47912598 C391.2245163 48.65965988 391.23373108 47.84019379 391.2432251 46.99589539 C391.18971877 39.60253941 389.1339524 33.82465527 383.8588562 28.39440918 C381.3838562 27.40440918 381.3838562 27.40440918 378.8588562 26.39440918 Z M-11.1411438 172.39440918 C-9.93436059 178.76307337 -9.93436059 178.76307337 -8.1411438 180.39440918 C-6.26978445 180.49201409 -4.39468442 180.51812269 -2.52078152 180.51745701 C-0.67856208 180.52044358 -0.67856208 180.52044358 1.20087391 180.52349049 C2.58138012 180.5206369 3.96188613 180.51769129 5.34239197 180.5146637 C6.79518494 180.51509927 8.24797784 180.51597392 9.70077032 180.51725286 C13.71187489 180.51950054 17.72295301 180.51547283 21.73405421 180.5104748 C26.05241373 180.50617438 30.37077164 180.50761643 34.68913269 180.50837708 C42.17727578 180.50890257 49.66541019 180.50575311 57.1535511 180.50013924 C67.98027524 180.49202769 78.80699515 180.48940937 89.633722 180.48815124 C107.19745727 180.48596018 124.7611879 180.47929862 142.32492065 180.46984863 C159.39100115 180.46067592 176.45708038 180.4535944 193.52316284 180.44934082 C195.09990242 180.44894674 195.09990242 180.44894674 196.70849533 180.44854469 C201.98161777 180.44723969 207.25474021 180.44597598 212.52786267 180.44473279 C256.30486372 180.43435848 300.08185972 180.41673869 343.8588562 180.39440918 C345.1788562 177.75440918 346.4988562 175.11440918 347.8588562 172.39440918 C229.3888562 172.39440918 110.9188562 172.39440918 -11.1411438 172.39440918 Z " fill="#FFFFFF" transform="translate(114.14114379882813,72.6055908203125)"/>
<path d="M0 0 C3.54503519 3.50810774 4.84572732 8.49197875 6.5625 13.0625 C15.33792462 35.58506349 27.71694199 55.17948587 44 73 C44.74765625 73.81984375 45.4953125 74.6396875 46.265625 75.484375 C57.5784475 87.29998961 71.19839049 96.00977532 85.18457031 104.29394531 C85.89967773 104.72545898 86.61478516 105.15697266 87.3515625 105.6015625 C88.32730225 106.18284912 88.32730225 106.18284912 89.32275391 106.77587891 C91 108 91 108 93 111 C93.60546838 114.97879218 93.29845414 116.54750501 91.0625 119.9375 C87.29394635 122.47550552 85.81893908 122.22590952 81.49047852 121.61743164 C76.99901974 120.50392323 73.32506933 118.19686155 69.4375 115.75 C68.5719751 115.21713379 67.7064502 114.68426758 66.81469727 114.13525391 C58.29614508 108.77018541 50.56611549 102.62035106 43 96 C42.45988281 95.53287598 41.91976562 95.06575195 41.36328125 94.58447266 C35.42511043 89.42970662 29.95531778 84.10286506 25 78 C24.19175781 77.02933594 23.38351562 76.05867188 22.55078125 75.05859375 C8.78672471 58.25779693 -15.02463976 27.08089327 -13 4 C-8.99828585 -1.06883792 -6.21426986 -1.41728962 0 0 Z " fill="#FFFFFF" transform="translate(428,283)"/>
<path d="M0 0 C2.375 1.625 2.375 1.625 4 4 C4.61225159 10.10701582 2.98961044 14.60343375 0.6875 20.125 C0.15443237 21.4229248 0.15443237 21.4229248 -0.3894043 22.74707031 C-9.5143494 44.43466701 -21.49504489 63.38404161 -37 81 C-37.64839844 81.77085937 -38.29679687 82.54171875 -38.96484375 83.3359375 C-42.94753567 88.05014426 -47.27325106 92.04347601 -52 96 C-52.88558594 96.7734375 -53.77117187 97.546875 -54.68359375 98.34375 C-62.02546095 104.66185086 -69.67934755 110.04662952 -78 115 C-78.59055176 115.35288086 -79.18110352 115.70576172 -79.78955078 116.06933594 C-90.9950048 122.67744375 -90.9950048 122.67744375 -97 122 C-100.32878632 119.53959272 -101.79301948 118.10389613 -102.5625 114 C-101.85079176 110.2042227 -100.65230215 108.80957007 -98 106 C-95.57967388 104.36401563 -93.02815311 103.0325124 -90.4375 101.6875 C-54.29193686 82.08437014 -26.28744256 46.50361452 -13.3684082 7.59643555 C-12.19413439 4.23730311 -11.31142463 2.24826519 -8.49609375 0.00390625 C-5.17526458 -1.3317011 -3.39256983 -1.08273505 0 0 Z " fill="#FFFFFF" transform="translate(144,283)"/>
<path d="M0 0 C2.90717073 2.21863029 3.83981643 3.51944929 5 7 C5.09394134 8.65083334 5.13060071 10.30520858 5.13371277 11.95870972 C5.13797775 12.9821347 5.14224274 14.00555969 5.14663696 15.05999756 C5.14618378 16.18214661 5.14573059 17.30429565 5.14526367 18.46044922 C5.14862228 19.64279144 5.1519809 20.82513367 5.15544128 22.04330444 C5.16332061 25.2871707 5.16661928 28.53099857 5.16725707 31.77487326 C5.1679678 33.80196628 5.17010255 35.82905259 5.17275429 37.85614395 C5.18200702 44.92932816 5.1860893 52.00249353 5.18530273 59.07568359 C5.18470209 65.66661691 5.19525139 72.25746833 5.2110464 78.84838092 C5.22412753 84.50877386 5.22948638 90.16914006 5.22884732 95.829548 C5.22859249 99.20944225 5.2314358 102.58926374 5.24202538 105.96914291 C5.25180253 109.73975198 5.24895605 113.51014938 5.24291992 117.28076172 C5.24853943 118.3988623 5.25415894 119.51696289 5.25994873 120.66894531 C5.25575424 121.69800995 5.25155975 122.72707458 5.24723816 123.787323 C5.24778293 124.67848753 5.24832769 125.56965206 5.24888897 126.48782158 C4.96517152 129.35154377 4.30625177 131.43752381 3 134 C-0.71013399 136.47342266 -2.61060262 136.38503486 -7 136 C-10.1850357 134.23984869 -10.83296972 133.50109084 -12 130 C-12.09612279 128.3238887 -12.1349246 126.64421878 -12.14044189 124.96536255 C-12.14615204 123.92510925 -12.15186218 122.88485596 -12.15774536 121.81307983 C-12.15886322 120.67222931 -12.15998108 119.53137878 -12.16113281 118.35595703 C-12.16609772 117.15410767 -12.17106262 115.9522583 -12.17617798 114.71398926 C-12.1882865 111.41639945 -12.1957446 108.11887305 -12.20018864 104.82126856 C-12.20312093 102.7606736 -12.20722601 100.7000842 -12.21169281 98.63949203 C-12.22536419 92.19114747 -12.23503285 85.74281561 -12.2388947 79.29445755 C-12.24337602 71.85287103 -12.2609287 64.41146813 -12.2898953 56.96993744 C-12.31151438 51.21612711 -12.32159908 45.46236843 -12.32293582 39.70851791 C-12.32398361 36.27268975 -12.32988573 32.8370343 -12.34775543 29.40124893 C-12.36730299 25.56838305 -12.36294623 21.73574659 -12.35644531 17.90283203 C-12.3656601 16.76602997 -12.37487488 15.62922791 -12.3843689 14.45797729 C-12.37879974 13.41208435 -12.37323059 12.36619141 -12.36749268 11.28860474 C-12.36895924 10.38269152 -12.3704258 9.4767783 -12.3719368 8.54341316 C-11.91698002 5.43228498 -10.82325453 3.54017145 -9 1 C-5.90826248 -0.54586876 -3.40570448 -0.29359521 0 0 Z " fill="#FFFFFF" transform="translate(283,301)"/>
<path d="M0 0 C3.29621325 3.25042553 3.98624808 7.19972267 4.91015625 11.578125 C5.25785744 13.13120284 5.60602227 14.68417693 5.95458984 16.23706055 C6.13447449 17.05379242 6.31435913 17.87052429 6.49969482 18.71200562 C13.00128481 48.03120802 21.25881704 77.4196783 34.69726562 104.40869141 C35.25607422 105.53839355 35.81488281 106.6680957 36.390625 107.83203125 C36.91172852 108.84628174 37.43283203 109.86053223 37.96972656 110.90551758 C39.22868805 114.68687704 38.88339753 117.14837512 38 121 C36.4052226 123.39216609 35.34235181 123.88287964 32.625 124.8125 C29.26744429 125.05232541 27.87861697 124.79913561 25 123 C5.97849202 98.28525178 -16.13530945 35.35309454 -13 4 C-9.87984472 -1.64599527 -5.88199402 -1.3654629 0 0 Z " fill="#FFFFFF" transform="translate(357,296)"/>
<path d="M0 0 C2.4375 1.625 2.4375 1.625 4 4 C4.38984843 11.29416836 2.68947168 18.00666222 1.0625 25.0625 C0.83066513 26.07818054 0.83066513 26.07818054 0.59414673 27.11437988 C-6.05106356 56.06630578 -15.25308123 84.39455504 -27.4375 111.5 C-27.85056396 112.42039062 -28.26362793 113.34078125 -28.68920898 114.2890625 C-29.27424194 115.55363281 -29.27424194 115.55363281 -29.87109375 116.84375 C-30.21068115 117.57787109 -30.55026855 118.31199219 -30.90014648 119.06835938 C-32.60153595 122.05646002 -34.10425601 123.69356127 -37.375 124.8125 C-40.56215425 125.04015388 -42.20974602 124.54198246 -45 123 C-46.875 121.3125 -46.875 121.3125 -48 119 C-47.72928813 112.22317963 -44.81699876 106.69887364 -42 100.625 C-29.05172529 71.80830874 -19.04974804 40.90602545 -13.70800781 9.69873047 C-12.93827132 5.60055264 -12.48702397 3.52327495 -9.5859375 0.40625 C-5.95058822 -1.5706771 -3.92056132 -1.14052693 0 0 Z " fill="#FFFFFF" transform="translate(215,296)"/>
<path d="M0 0 C1.19786133 -0.03577148 1.19786133 -0.03577148 2.41992188 -0.07226562 C6.76448599 -0.06146721 8.55424846 0.16886704 12.09375 2.91015625 C14.0625 5.5625 14.0625 5.5625 14.625 8.5625 C13.89824044 12.43855099 12.98021053 13.88533355 10.0625 16.5625 C6.88221529 17.28627584 3.8102341 17.21562305 0.5625 17.125 C-0.29214844 17.13595703 -1.14679688 17.14691406 -2.02734375 17.15820312 C-5.94364331 17.11238059 -8.23289839 17.05335814 -11.5 14.77734375 C-13.00989511 12.45095645 -13.48035627 11.30530152 -13.4375 8.5625 C-13.45296875 7.5725 -13.45296875 7.5725 -13.46875 6.5625 C-11.63407556 -0.34450964 -5.97590989 -0.08159877 0 0 Z " fill="#FFFFFF" transform="translate(446.9375,106.4375)"/>
<path d="M0 0 C0.79857422 -0.01546875 1.59714844 -0.0309375 2.41992188 -0.046875 C6.3968497 -0.02051591 8.60178653 0.22927147 12.09375 2.28125 C14.1686519 4.61963151 14.72674564 5.43566081 14.625 8.5 C14.62693359 9.49 14.62693359 9.49 14.62890625 10.5 C13.75289084 13.59324064 12.71753724 14.65160766 10.0625 16.5 C6.88472238 17.08888488 3.78587352 17.0583416 0.5625 17 C-0.71947266 17.02320313 -0.71947266 17.02320313 -2.02734375 17.046875 C-5.94758263 17.02241173 -8.22555354 16.99488961 -11.5 14.71875 C-13.00852006 12.39038209 -13.48036838 11.24357638 -13.4375 8.5 C-13.45296875 7.51 -13.45296875 7.51 -13.46875 6.5 C-11.62844922 -0.42819117 -5.98246282 -0.11532458 0 0 Z " fill="#FFFFFF" transform="translate(408.9375,106.5)"/>
</svg>
