<?xml version="1.0" encoding="UTF-8"?>
<svg version="1.1" xmlns="http://www.w3.org/2000/svg" width="2917" height="2917">
<path d="M0 0 C0.88670506 0.00020016 1.77341011 0.00040031 2.68698502 0.00060654 C7.85193262 0.00291892 13.016762 0.01384593 18.18166161 0.03648186 C19.77155244 0.04331022 21.36144929 0.04887901 22.95134926 0.05307198 C31.46995097 0.07966673 39.90135574 0.26291475 48.375 1.25 C58.67632401 31.73704421 68.5156687 62.37310229 78.36702156 93.00759315 C80.8710638 100.7936353 83.37884012 108.57847413 85.88671875 116.36328125 C86.77466934 119.1197067 87.66260592 121.87613666 88.55053711 124.63256836 C88.76540677 125.29958802 88.98027643 125.96660769 89.2016573 126.65384007 C92.59415195 137.18544886 95.98456908 147.71772668 99.375 158.25 C100.21473358 158.37803009 101.05446716 158.50606018 101.91964722 158.63796997 C133.06879906 163.40117665 163.81964267 169.54122576 194.375 177.25 C200.47482225 170.71691935 206.39196438 164.11865916 212.00390625 157.15625 C214.70133154 153.85001537 217.46638414 150.60865888 220.25 147.375 C225.5350905 141.23307154 230.78032835 135.05907593 236.00732422 128.86767578 C237.39959417 127.22091021 238.79505473 125.57689933 240.19140625 123.93359375 C244.42353633 118.94973752 248.63237398 113.95440728 252.75 108.875 C256.91721124 103.75186933 261.23812457 98.77405072 265.57763672 93.79736328 C268.73952443 90.16280797 271.84342941 86.49488132 274.875 82.75 C278.98477998 77.67321297 283.25720874 72.75173906 287.54956055 67.82983398 C292.27630309 62.39656341 296.86029635 56.86129833 301.375 51.25 C332.63010114 60.17755006 362.92962697 73.91686994 392.26171875 87.77929688 C395.3579032 89.24192353 398.46003809 90.6913713 401.5625 92.140625 C433.74097918 107.27192976 464.19681144 125.10682137 494.30810547 143.9699707 C496.6498722 145.42022856 499.01198865 146.83467827 501.375 148.25 C497.94217234 165.80385183 494.24934203 183.29593791 490.44510269 200.77243996 C489.48382985 205.18965445 488.52722499 209.60787258 487.57150269 214.02629089 C487.24113048 215.55340705 486.9107567 217.08052287 486.58038139 218.60763836 C486.41537754 219.37036883 486.25037368 220.1330993 486.08036971 220.91894281 C483.86421866 231.16162456 481.64444673 241.40350552 479.41503906 251.64331055 C477.89659927 258.61777273 476.38444213 265.59356454 474.87951553 272.57095546 C474.0868125 276.24494671 473.29087482 279.91816982 472.4871254 283.58976173 C471.59661384 287.6578321 470.71984576 291.72874452 469.84423828 295.80004883 C469.44387108 297.61308754 469.44387108 297.61308754 469.03541565 299.4627533 C468.80000565 300.56803375 468.56459564 301.67331421 468.322052 302.81208801 C468.11376833 303.7714668 467.90548466 304.73084558 467.69088936 305.71929646 C467.36726614 308.31195871 467.40446087 309.83641464 468.375 312.25 C470.42161359 314.07479854 472.42646638 315.69297173 474.625 317.3125 C475.91303365 318.29220318 477.19945677 319.27402688 478.484375 320.2578125 C479.13728516 320.75571289 479.79019531 321.25361328 480.46289062 321.76660156 C485.01690209 325.29956551 489.35933088 329.09220639 493.73193359 332.84521484 C495.39370437 334.26599182 497.06483978 335.67502753 498.73828125 337.08203125 C509.56887395 346.22255849 520.03410242 355.79498909 530 365.875 C531.1225302 367.00246439 532.24724603 368.12776072 533.375 369.25 C534.18130859 370.05244141 534.18130859 370.05244141 535.00390625 370.87109375 C536.68902105 372.49825052 536.68902105 372.49825052 539.375 374.25 C542.91116657 373.84306583 546.14325482 372.71759592 549.48583984 371.52612305 C550.49126328 371.16955124 551.49668671 370.81297943 552.53257751 370.44560242 C553.62268631 370.05492081 554.7127951 369.6642392 555.8359375 369.26171875 C556.98908951 368.85133865 558.14224152 368.44095856 559.33033752 368.0181427 C562.48065716 366.89586286 565.62977604 365.77033307 568.77830124 364.64303589 C570.7561391 363.93530324 572.73444549 363.22889682 574.71292114 362.52294922 C592.78186899 356.07550902 610.828802 349.56856535 628.85684204 343.00753784 C632.29244107 341.75729958 635.7285947 340.5085946 639.16479492 339.26000977 C648.44564241 335.88492235 657.72328544 332.50334247 666.97398376 329.04632568 C670.38629655 327.77233176 673.80237685 326.50865233 677.21902466 325.24633789 C679.49206449 324.40118894 681.7584979 323.53984429 684.02514648 322.67773438 C685.36408204 322.1826772 686.70333452 321.68847594 688.04296875 321.1953125 C689.74876099 320.55360107 689.74876099 320.55360107 691.48901367 319.89892578 C694.375 319.25 694.375 319.25 696.65405273 320.00317383 C698.95734671 321.67191015 700.49260108 323.57301305 702.25 325.8125 C703.03246094 326.79605469 703.81492187 327.77960938 704.62109375 328.79296875 C705.05534668 329.34130371 705.48959961 329.88963867 705.93701172 330.45458984 C708.09080885 333.14372806 710.29714211 335.78851464 712.49853516 338.4387207 C749.44542309 382.96892009 780.85716843 431.76354911 808.77539062 482.36328125 C810.27754449 485.07412791 811.80060439 487.77214472 813.328125 490.46875 C814.17815654 491.9994045 815.02719257 493.53061248 815.875 495.0625 C816.26719727 495.74352783 816.65939453 496.42455566 817.06347656 497.1262207 C819.51293782 501.6275411 819.51293782 501.6275411 818.91015625 504.34765625 C816.80696079 506.95390609 814.61251098 509.44333592 812.3125 511.875 C811.31340325 512.94754528 810.31471093 514.02046743 809.31640625 515.09375 C808.81898926 515.62613281 808.32157227 516.15851562 807.80908203 516.70703125 C805.76418002 518.90719821 803.7558327 521.13922175 801.75 523.375 C801.02554688 524.18195312 800.30109375 524.98890625 799.5546875 525.8203125 C798.47574219 527.02300781 798.47574219 527.02300781 797.375 528.25 C795.12297293 530.75312417 792.87007877 533.25546614 790.6171875 535.7578125 C789.14207382 537.39739879 787.66808348 539.03799655 786.1953125 540.6796875 C782.07402232 545.2703061 777.92626212 549.83447107 773.75 554.375 C770.75319989 557.63390494 767.77585453 560.90499549 764.875 564.25 C761.51177362 568.12817013 758.04164329 571.90527811 754.56689453 575.68310547 C750.13277273 580.50583911 745.74891589 585.37261178 741.375 590.25 C736.52978572 595.65293678 731.66266045 601.03340331 726.75 606.375 C723.07326929 610.37629728 719.40083769 614.37813604 715.890625 618.52734375 C714.375 620.25 714.375 620.25 712.734375 621.75390625 C710.99909785 623.30993542 710.99909785 623.30993542 709.375 626.25 C710.22408161 629.36772154 711.22107195 632.23870814 712.375 635.25 C712.81344238 636.42506104 713.25188477 637.60012207 713.70361328 638.81079102 C714.73147069 641.56432046 715.76598284 644.31524195 716.8046875 647.06469727 C739.375 706.87421898 739.375 706.87421898 739.375 719.25 C740.55434616 719.36186646 741.73369232 719.47373291 742.94877625 719.58898926 C749.74960917 720.34841752 756.46300039 721.61369019 763.19458008 722.82617188 C764.67703885 723.0909525 766.1595434 723.35547692 767.64208984 723.61976624 C771.64424938 724.33399999 775.64574428 725.05189389 779.64711213 725.77054787 C783.84224589 726.52343227 788.03794267 727.27316661 792.23356628 728.02331543 C799.27220091 729.28225462 806.31042646 730.54345983 813.34838867 731.80615234 C821.48403082 733.26576502 829.62021014 734.72235105 837.75670511 736.17720175 C846.42905915 737.72789193 855.10103585 739.28068398 863.77289367 740.8341465 C866.2694064 741.28122764 868.76598729 741.72792653 871.26258278 742.17454529 C875.18215466 742.87583648 879.10147036 743.57854241 883.02059174 744.28234673 C884.4588474 744.54041352 885.89718675 744.79801444 887.33561516 745.05511665 C889.2979722 745.40595091 891.25999517 745.75865225 893.22200012 746.1114502 C894.32014951 746.30833687 895.41829889 746.50522354 896.54972553 746.70807648 C898.85302081 747.14987776 901.10925628 747.64852642 903.375 748.25 C916.92077211 811.83544789 920.24648103 877.41597623 919.375 942.25 C919.36533203 943.01229919 919.35566406 943.77459839 919.34570312 944.55999756 C919.28596706 949.02041476 919.18989389 953.47839312 919.0625 957.9375 C919.02902466 959.49500977 919.02902466 959.49500977 918.99487305 961.08398438 C918.95918213 962.00888672 918.92349121 962.93378906 918.88671875 963.88671875 C918.86053467 964.66748779 918.83435059 965.44825684 918.80737305 966.25268555 C918.24622334 968.84487402 917.41175772 969.56132479 915.375 971.25 C912.96379089 972.27342224 912.96379089 972.27342224 910.05151367 973.20092773 C908.94819702 973.55732834 907.84488037 973.91372894 906.70812988 974.28092957 C905.49862671 974.66130875 904.28912354 975.04168793 903.04296875 975.43359375 C901.75921822 975.84462454 900.4757363 976.25649507 899.19250488 976.66914368 C896.43318957 977.55453373 893.67211682 978.43412182 890.90951538 979.3092041 C886.52838853 980.69697425 882.15123992 982.09699585 877.7746582 983.49902344 C872.46108407 985.20031093 867.14655181 986.89854137 861.83075237 988.59286308 C852.2973431 991.63174052 842.77150611 994.69357621 833.25 997.76953125 C832.56274652 997.99152632 831.87549305 998.21352139 831.16741371 998.44224358 C827.77302637 999.53877676 824.37874897 1000.63564974 820.98452759 1001.73269653 C814.78610202 1003.73587202 808.58645987 1005.73527545 802.38671875 1007.734375 C801.23966965 1008.10426041 800.09262054 1008.47414581 798.91081238 1008.85523987 C786.06828681 1012.99536479 773.22188953 1017.12343965 760.375 1021.25 C760.15734985 1022.70962158 760.15734985 1022.70962158 759.93530273 1024.19873047 C757.26674225 1041.99664408 754.4708801 1059.7501345 750.8125 1077.375 C750.66642303 1078.07899933 750.52034607 1078.78299866 750.36984253 1079.5083313 C748.41110111 1088.88018488 746.30097694 1098.21254317 743.70874023 1107.43212891 C742.22476762 1112.88172689 742.22476762 1112.88172689 743.375 1118.25 C745.3999091 1120.39505223 745.3999091 1120.39505223 748.0625 1122.3125 C749.05894531 1123.08980469 750.05539062 1123.86710937 751.08203125 1124.66796875 C751.61779785 1125.08353027 752.15356445 1125.4990918 752.70556641 1125.92724609 C755.62619168 1128.24136539 758.43243706 1130.68734198 761.25 1133.125 C762.44368426 1134.1527227 763.63769586 1135.18006531 764.83203125 1136.20703125 C765.71689209 1136.96814209 765.71689209 1136.96814209 766.61962891 1137.74462891 C769.38157924 1140.1132222 772.15834181 1142.46414078 774.9375 1144.8125 C775.46972168 1145.26222168 776.00194336 1145.71194336 776.55029297 1146.17529297 C777.6221334 1147.08068442 778.69407326 1147.98595817 779.76611328 1148.89111328 C781.92803163 1150.71709773 784.0882358 1152.54510325 786.24829102 1154.37329102 C787.33066254 1155.28931879 788.41318153 1156.20517236 789.49584961 1157.12084961 C792.23136732 1159.43456788 794.96501211 1161.75043895 797.6953125 1164.0703125 C802.67814347 1168.30079624 807.67202715 1172.5085368 812.75 1176.625 C817.87313067 1180.79221124 822.85094928 1185.11312457 827.82763672 1189.45263672 C832.30818642 1193.35049873 836.87030482 1197.12886384 841.48828125 1200.86328125 C845.06981046 1203.8244644 848.56412961 1206.87895426 852.0625 1209.9375 C857.02078817 1214.26922896 862.01232927 1218.41952091 867.375 1222.25 C866.81503804 1227.05194864 865.83400582 1231.24795205 864.14453125 1235.7734375 C863.91791809 1236.38375824 863.69130493 1236.99407898 863.45782471 1237.62289429 C862.7096933 1239.62696838 861.94964767 1241.62621744 861.1875 1243.625 C860.92411835 1244.32129517 860.66073669 1245.01759033 860.38937378 1245.73498535 C843.67659264 1289.85787848 823.95347002 1333.42938905 800.15429688 1374.20068359 C798.87174681 1376.39868721 797.5941766 1378.59908392 796.32226562 1380.80322266 C775.17138613 1417.45361387 775.17138613 1417.45361387 770.375 1422.25 C762.19615726 1422.16930712 754.10739754 1420.05173221 746.16381836 1418.30664062 C744.75835084 1418.00221101 743.35277406 1417.69828541 741.94709778 1417.39482117 C738.93888728 1416.74432307 735.93144913 1416.09040391 732.9245739 1415.4337616 C728.16328354 1414.39410769 723.40020832 1413.36280099 718.63685608 1412.3326416 C709.38578091 1410.3307803 700.13646054 1408.32088715 690.88738251 1406.30982208 C679.11125398 1403.7494968 667.3345628 1401.19180007 655.55583864 1398.64343977 C650.82736221 1397.62011847 646.09989544 1396.59229082 641.37317836 1395.56087494 C638.42667633 1394.91884395 635.47936949 1394.28056936 632.53184319 1393.64325905 C631.17265593 1393.34856923 629.81380229 1393.05233546 628.45532608 1392.75438499 C618.0027304 1390.38702852 618.0027304 1390.38702852 607.375 1389.25 C604.94723876 1391.3505697 603.69210072 1392.77112324 602 1395.375 C601.07040939 1396.67771291 600.13804531 1397.97845052 599.203125 1399.27734375 C598.73712891 1399.94233887 598.27113281 1400.60733398 597.79101562 1401.29248047 C595.60508465 1404.3143416 593.19033968 1407.12011397 590.75 1409.9375 C587.4903897 1413.73952672 584.30428332 1417.5788855 581.1875 1421.5 C575.28375797 1428.76043679 568.74223165 1435.43803906 562.29931641 1442.21679688 C559.56998381 1445.10056773 556.87173349 1448.01177023 554.1875 1450.9375 C553.36894531 1451.82824219 552.55039063 1452.71898437 551.70703125 1453.63671875 C550.93746094 1454.49910156 550.16789062 1455.36148437 549.375 1456.25 C547.96468506 1457.4731189 547.96468506 1457.4731189 546.52587891 1458.72094727 C544.74819474 1460.89037175 544.3320568 1461.77919173 544.58995056 1464.60661316 C545.44753378 1467.59106683 546.49474258 1470.43719596 547.62890625 1473.328125 C548.23177963 1474.97540337 548.23177963 1474.97540337 548.84683228 1476.65596008 C550.1814227 1480.28212206 551.55940817 1483.89017118 552.9375 1487.5 C553.88161744 1490.03125126 554.81572125 1492.5661523 555.74926758 1495.10131836 C557.42860869 1499.65264959 559.11845496 1504.19979697 560.82296658 1508.74176311 C564.81347787 1519.37520882 568.64945435 1530.06225826 572.47027588 1540.75762939 C574.28544268 1545.83451755 576.11010925 1550.90796934 577.9375 1555.98046875 C578.47590012 1557.47513672 578.47590012 1557.47513672 579.025177 1559 C581.35050988 1565.44314897 583.70266457 1571.87602691 586.07060242 1578.30363464 C587.6863543 1582.69091447 589.29476717 1587.08087044 590.90298462 1591.47091675 C591.67010703 1593.55762297 592.44118636 1595.64287921 593.21640015 1597.72659302 C594.28274208 1600.59295622 595.33603949 1603.46380353 596.38671875 1606.3359375 C596.7065271 1607.18444778 597.02633545 1608.03295807 597.35583496 1608.90718079 C597.63890503 1609.6885289 597.9219751 1610.46987701 598.21362305 1611.27490234 C598.58852119 1612.28778824 598.58852119 1612.28778824 598.97099304 1613.32113647 C599.45575793 1615.6355652 599.15803842 1617.03536865 598.375 1619.25 C597.10668945 1620.72290039 597.10668945 1620.72290039 595.48828125 1622.09765625 C594.88717529 1622.61448975 594.28606934 1623.13132324 593.66674805 1623.66381836 C593.01359619 1624.2078833 592.36044434 1624.75194824 591.6875 1625.3125 C591.01050049 1625.88685791 590.33350098 1626.46121582 589.63598633 1627.05297852 C583.6347746 1632.11093307 577.49518354 1636.98186016 571.28076172 1641.77392578 C569.22172715 1643.36871479 567.1747111 1644.97812291 565.12890625 1646.58984375 C554.73868528 1654.75879351 544.16498534 1662.61785099 533.375 1670.25 C532.49183105 1670.87664551 531.60866211 1671.50329102 530.69873047 1672.14892578 C516.85468287 1681.951198 502.79607087 1691.31908909 488.375 1700.25 C486.76431641 1701.24966797 486.76431641 1701.24966797 485.12109375 1702.26953125 C462.69721304 1716.16152053 439.77722997 1729.07027806 416.375 1741.25 C411.1559971 1738.03893124 406.9093739 1734.17469834 402.5 1729.9375 C397.84249159 1725.4908807 393.14232684 1721.13209475 388.27685547 1716.91333008 C385.42213235 1714.41663834 382.64899595 1711.83560913 379.875 1709.25 C375.79030241 1705.46011662 371.6710265 1701.72824608 367.45703125 1698.08203125 C364.24008207 1695.25135739 361.0952932 1692.34232984 357.94165039 1689.44165039 C353.11896118 1685.00763061 348.25150331 1680.62474091 343.375 1676.25 C340.87187583 1673.99797293 338.36953386 1671.74507877 335.8671875 1669.4921875 C334.22760121 1668.01707382 332.58700345 1666.54308348 330.9453125 1665.0703125 C326.35469297 1660.94902148 321.79058619 1656.80120059 317.25 1652.625 C313.342425 1649.03259173 309.41169413 1645.47530187 305.37890625 1642.0234375 C303.82939655 1640.65213652 302.32453621 1639.23028939 300.83984375 1637.7890625 C299.96457031 1636.95117188 299.08929687 1636.11328125 298.1875 1635.25 C297.38957031 1634.46625 296.59164062 1633.6825 295.76953125 1632.875 C293.53448336 1630.97727844 293.53448336 1630.97727844 291.07324219 1631.51831055 C288.22556164 1632.29052359 285.55286556 1633.24754738 282.80859375 1634.33203125 C281.70128906 1634.76362549 280.59398438 1635.19521973 279.453125 1635.63989258 C278.25171875 1636.10935303 277.0503125 1636.57881348 275.8125 1637.0625 C213.17263562 1661.25 213.17263562 1661.25 199.375 1661.25 C199.33270012 1661.87037895 199.29040024 1662.4907579 199.24681854 1663.12993622 C198.60839944 1671.25946911 197.25879568 1679.20459353 195.79882812 1687.22070312 C195.53389634 1688.69519994 195.26937661 1690.16977083 195.00523376 1691.64440918 C194.29263185 1695.61569551 193.57416384 1699.58589933 192.85445213 1703.55590248 C192.10036961 1707.72057769 191.35136401 1711.88616613 190.60168457 1716.05163574 C189.34396588 1723.03566023 188.08260773 1730.01901943 186.81884766 1737.00195312 C185.35764259 1745.0760206 183.90132866 1753.150958 182.44779825 1761.22641039 C180.89810477 1769.83589455 179.34501992 1778.4447643 177.7908535 1787.053442 C177.34359798 1789.53209247 176.89696149 1792.01085383 176.45045471 1794.48963928 C175.74996801 1798.37737301 175.04720186 1802.26468801 174.34265327 1806.15168762 C174.08429179 1807.57902316 173.82668589 1809.0064957 173.56988335 1810.43411255 C173.21983371 1812.37933939 172.86677351 1814.32402377 172.5135498 1816.26867676 C172.31666313 1817.35777596 172.11977646 1818.44687515 171.91692352 1819.56897736 C171.375 1822.25 171.375 1822.25 170.375 1825.25 C141.46207295 1830.74091372 112.50018976 1834.85387078 83.1875 1837.5 C82.2689624 1837.58299347 81.3504248 1837.66598694 80.40405273 1837.75149536 C63.17848497 1839.29054222 45.974345 1840.33268733 28.6875 1840.8125 C27.94944122 1840.83334656 27.21138245 1840.85419312 26.45095825 1840.87567139 C8.25557555 1841.38277626 -9.86944829 1841.32523151 -28.0625 1840.8125 C-28.7859964 1840.7929425 -29.5094928 1840.77338501 -30.25491333 1840.75323486 C-32.33547367 1840.6955461 -34.41576787 1840.63195908 -36.49609375 1840.56640625 C-37.70193115 1840.52974854 -38.90776855 1840.49309082 -40.15014648 1840.45532227 C-43.68629378 1840.24637827 -47.12702648 1839.79995715 -50.625 1839.25 C-53.94971319 1831.34822745 -56.65531199 1823.29101837 -59.2734375 1815.1328125 C-59.72327737 1813.74013432 -60.17343589 1812.34755902 -60.62388611 1810.95507812 C-61.83500651 1807.20822704 -63.04190932 1803.46003041 -64.2478981 1799.71152496 C-65.51358329 1795.77947127 -66.78265471 1791.84851091 -68.05151367 1787.91748047 C-69.63166287 1783.02156594 -71.21151918 1778.12555818 -72.78977966 1773.22903442 C-76.23990767 1762.52710671 -79.70728976 1751.83091038 -83.18752289 1741.13873672 C-84.70870644 1736.46408151 -86.2276321 1731.78869203 -87.74667358 1727.11334038 C-88.95703695 1723.3887315 -90.16881147 1719.66459368 -91.38372803 1715.94146729 C-92.52384644 1712.44732025 -93.66000397 1708.95190924 -94.79327583 1705.45553589 C-95.40317811 1703.57741612 -96.01729677 1701.70066719 -96.63157654 1699.82397461 C-98.62279522 1693.66894592 -100.35061338 1687.59366962 -101.625 1681.25 C-102.3770874 1681.2075415 -103.1291748 1681.16508301 -103.90405273 1681.12133789 C-112.9360581 1680.52843475 -121.78052347 1679.23996969 -130.6875 1677.6875 C-131.42835846 1677.56016479 -132.16921692 1677.43282959 -132.93252563 1677.30163574 C-152.06011979 1673.99853921 -171.09984668 1669.93424209 -189.91748047 1665.16748047 C-194.25791135 1664.0185949 -194.25791135 1664.0185949 -198.625 1664.25 C-200.7922736 1666.17769556 -200.7922736 1666.17769556 -202.6875 1668.875 C-203.46480469 1669.88046875 -204.24210937 1670.8859375 -205.04296875 1671.921875 C-205.66631104 1672.73495117 -205.66631104 1672.73495117 -206.30224609 1673.56445312 C-208.60562211 1676.49957826 -211.05760063 1679.30548852 -213.5 1682.125 C-214.52780331 1683.31861485 -215.55514564 1684.5126268 -216.58203125 1685.70703125 C-217.34314209 1686.59189209 -217.34314209 1686.59189209 -218.11962891 1687.49462891 C-221.85704667 1691.85272714 -225.55377651 1696.24545527 -229.25732422 1700.63232422 C-230.64959417 1702.27908979 -232.04505473 1703.92310067 -233.44140625 1705.56640625 C-237.67353633 1710.55026248 -241.88237398 1715.54559272 -246 1720.625 C-250.16721124 1725.74813067 -254.48812457 1730.72594928 -258.82763672 1735.70263672 C-261.98952443 1739.33719203 -265.09342941 1743.00511868 -268.125 1746.75 C-271.7004204 1751.16669579 -275.39110729 1755.4676985 -279.125 1759.75 C-284.41500019 1765.82054201 -289.56206802 1771.98819523 -294.625 1778.25 C-296.30992996 1780.31461398 -297.99884734 1782.3759256 -299.6875 1784.4375 C-300.44160156 1785.35917969 -301.19570312 1786.28085938 -301.97265625 1787.23046875 C-302.79056641 1788.23013672 -302.79056641 1788.23013672 -303.625 1789.25 C-308.45430213 1788.61954158 -312.79228356 1787.2386947 -317.3203125 1785.51171875 C-318.05710739 1785.23506378 -318.79390228 1784.95840881 -319.55302429 1784.67337036 C-321.95468853 1783.7682989 -324.35259872 1782.8537992 -326.75 1781.9375 C-327.98585342 1781.46756119 -327.98585342 1781.46756119 -329.24667358 1780.98812866 C-352.79623143 1772.02220217 -375.78899722 1761.8975117 -398.625 1751.25 C-399.89827148 1750.6607373 -399.89827148 1750.6607373 -401.19726562 1750.05957031 C-413.21355312 1744.49717677 -424.9856336 1738.56277023 -436.625 1732.25 C-437.61999512 1731.71133301 -438.61499023 1731.17266602 -439.64013672 1730.61767578 C-452.79320103 1723.47010032 -465.76746383 1716.07984113 -478.5625 1708.3125 C-479.42100052 1707.79234818 -479.42100052 1707.79234818 -480.29684448 1707.26168823 C-488.21298128 1702.45548786 -495.95834465 1697.4414777 -503.625 1692.25 C-502.86553786 1684.77530908 -501.28005251 1677.51097648 -499.69750977 1670.17407227 C-499.3949016 1668.75900382 -499.09259242 1667.34387141 -498.79055786 1665.92868042 C-497.97331483 1662.10363273 -497.15188748 1658.27949466 -496.32966733 1654.45551419 C-495.46736842 1650.44171837 -494.6088943 1646.4271046 -493.74998474 1642.4125824 C-492.30713845 1635.67130683 -490.86185122 1628.93055862 -489.41479492 1622.19018555 C-487.37861145 1612.70565763 -485.34665758 1603.22022742 -483.31564248 1593.7345916 C-480.59000863 1581.00581193 -477.86304503 1568.27731538 -475.13136673 1555.54983139 C-474.83699672 1554.17811746 -474.5427339 1552.80638053 -474.24859047 1551.434618 C-472.73301107 1544.36718832 -471.20461122 1537.30341176 -469.625 1530.25 C-475.73185468 1525.05577543 -481.8383026 1519.8661767 -488.0625 1514.8125 C-497.91534686 1506.77841993 -507.50280383 1498.46787536 -516.828125 1489.828125 C-519.40025431 1487.45716782 -522.00593376 1485.13129113 -524.625 1482.8125 C-530.52524227 1477.52726669 -536.06905686 1471.89185979 -541.625 1466.25 C-548.84831691 1468.12054874 -555.87260761 1470.28585991 -562.87890625 1472.84765625 C-563.83670486 1473.19381485 -564.79450348 1473.53997345 -565.78132629 1473.8966217 C-568.91816967 1475.0312828 -572.05281302 1476.17189656 -575.1875 1477.3125 C-577.41145884 1478.11812382 -579.63558308 1478.92329121 -581.85986328 1479.72802734 C-586.48060277 1481.40014398 -591.10062556 1483.07422022 -595.72021484 1484.74951172 C-602.30587473 1487.13628961 -608.89613105 1489.510121 -615.48828125 1491.87890625 C-616.5284137 1492.25272934 -617.56854614 1492.62655243 -618.64019775 1493.01170349 C-622.79216452 1494.50378499 -626.94421147 1495.99564331 -631.09625244 1497.48751831 C-642.55605287 1501.60664505 -654.00721469 1505.74776129 -665.44140625 1509.9375 C-667.50146138 1510.69125295 -669.56151991 1511.44499662 -671.62158203 1512.19873047 C-675.50350451 1513.61936201 -679.38299562 1515.04638752 -683.26123047 1516.47705078 C-684.99568908 1517.11252075 -686.73022247 1517.74778668 -688.46484375 1518.3828125 C-689.25290909 1518.67559082 -690.04097443 1518.96836914 -690.85292053 1519.27001953 C-693.90611408 1520.38306954 -696.34812695 1521.25 -699.625 1521.25 C-701.39453125 1519.44140625 -701.39453125 1519.44140625 -703.4375 1516.8125 C-704.22898437 1515.81089844 -705.02046875 1514.80929687 -705.8359375 1513.77734375 C-706.27647461 1513.21644043 -706.71701172 1512.65553711 -707.17089844 1512.07763672 C-709.32459706 1509.37068778 -711.54025094 1506.71637267 -713.7512207 1504.05615234 C-719.77797523 1496.79870189 -725.67183711 1489.46717105 -731.35351562 1481.93505859 C-732.72604859 1480.11608345 -734.10532138 1478.30231673 -735.484375 1476.48828125 C-764.86556805 1437.72009486 -790.82625221 1396.43489076 -814.10137939 1353.74783325 C-814.77968358 1352.50679666 -815.46189352 1351.26788625 -816.14813232 1350.03121948 C-817.1004371 1348.31131086 -818.03501815 1346.5816246 -818.96875 1344.8515625 C-819.50693359 1343.86494629 -820.04511719 1342.87833008 -820.59960938 1341.86181641 C-821.71047981 1339.03227071 -821.79099486 1338.00536145 -820.625 1335.25 C-819.3828125 1333.53125 -819.3828125 1333.53125 -817.75 1331.75 C-817.1209375 1331.05648438 -816.491875 1330.36296875 -815.84375 1329.6484375 C-814.74546875 1328.46121094 -814.74546875 1328.46121094 -813.625 1327.25 C-812.30238883 1325.80389201 -810.97977992 1324.35778196 -809.65722656 1322.91162109 C-808.23716171 1321.36098123 -806.8140895 1319.81314399 -805.390625 1318.265625 C-801.43380778 1313.9585501 -797.52976438 1309.60423366 -793.625 1305.25 C-788.77978859 1299.84706641 -783.91287784 1294.46639461 -779 1289.125 C-776.00319989 1285.86609506 -773.02585453 1282.59500451 -770.125 1279.25 C-766.76177362 1275.37182987 -763.29164329 1271.59472189 -759.81689453 1267.81689453 C-755.38276372 1262.99415109 -750.9998176 1258.1265888 -746.625 1253.25 C-744.37297293 1250.74687583 -742.12007877 1248.24453386 -739.8671875 1245.7421875 C-738.39207382 1244.10260121 -736.91808348 1242.46200345 -735.4453125 1240.8203125 C-732.24280771 1237.25310965 -729.03602017 1233.69089262 -725.7890625 1230.1640625 C-725.3048584 1229.63796387 -724.8206543 1229.11186523 -724.32177734 1228.56982422 C-722.95030293 1227.08170737 -721.57677314 1225.59548556 -720.203125 1224.109375 C-719.35234375 1223.16578125 -718.5015625 1222.2221875 -717.625 1221.25 C-716.89506836 1220.51620117 -716.89506836 1220.51620117 -716.15039062 1219.76757812 C-714.51081466 1218.10124927 -714.51081466 1218.10124927 -712.625 1215.25 C-712.97845132 1210.62892093 -714.48419276 1206.60952626 -716.14453125 1202.30859375 C-716.67232713 1200.92437633 -717.19973422 1199.54001063 -717.72680664 1198.15551758 C-718.1449614 1197.06492538 -718.1449614 1197.06492538 -718.57156372 1195.95230103 C-723.8025425 1182.27101017 -728.66889658 1168.49490543 -733.1875 1154.5625 C-733.43448639 1153.807341 -733.68147278 1153.05218201 -733.9359436 1152.2741394 C-737.27895925 1142.02827695 -740.14446024 1131.73805156 -742.625 1121.25 C-743.17469263 1121.20770012 -743.72438526 1121.16540024 -744.29073524 1121.12181854 C-752.1008178 1120.43771252 -759.75848331 1119.07545934 -767.46630859 1117.67382812 C-768.93904821 1117.40896815 -770.41184865 1117.14444615 -771.88470459 1116.88023376 C-775.85596863 1116.16682298 -779.82635326 1115.44862683 -783.79657698 1114.72945213 C-787.96088497 1113.97589669 -792.12595153 1113.22655655 -796.29092407 1112.47668457 C-803.27661452 1111.21833908 -810.26177426 1109.95708304 -817.24658203 1108.69384766 C-826.21100587 1107.07260614 -835.17630376 1105.45625191 -844.14188194 1103.84140778 C-851.86003887 1102.4511982 -859.57778171 1101.058695 -867.29546404 1099.6658535 C-869.77304859 1099.21882017 -872.25069185 1098.77211341 -874.72834396 1098.32545471 C-878.61756518 1097.62417984 -882.50652512 1096.92147314 -886.39528656 1096.21765327 C-887.82225647 1095.95959738 -889.24930878 1095.70199667 -890.67644882 1095.44488335 C-892.62342361 1095.0940278 -894.57006727 1094.74133624 -896.51669312 1094.3885498 C-897.60616934 1094.19166313 -898.69564556 1093.99477646 -899.81813622 1093.79192352 C-902.11435413 1093.34859082 -904.36536885 1092.84881548 -906.625 1092.25 C-913.11529648 1054.81052641 -918.40486269 1017.21033228 -920.625 979.25 C-920.75527588 977.35483643 -920.75527588 977.35483643 -920.88818359 975.42138672 C-921.92590777 959.12099384 -921.77755983 942.79227283 -921.75537109 926.46679688 C-921.74964717 922.21116062 -921.75298395 917.9555871 -921.75894356 913.69995308 C-921.76258663 910.37101788 -921.76139399 907.04209715 -921.75881577 903.71316147 C-921.75815826 902.14497749 -921.75893269 900.57679211 -921.76129532 899.00860977 C-921.77265003 889.36999421 -921.46045367 879.85944413 -920.625 870.25 C-884.56261542 858.55307804 -848.49734163 846.86577097 -812.40039062 835.27587891 C-810.83029739 834.77173965 -810.83029739 834.77173965 -809.22848511 834.25741577 C-807.17882737 833.5997238 -805.12896701 832.94266286 -803.07888794 832.2862854 C-798.01746841 830.66496753 -792.95893535 829.03550847 -787.90609074 827.38762856 C-785.31277253 826.54226617 -782.71841521 825.7001185 -780.12398338 824.858181 C-778.26688714 824.25403504 -776.41129664 823.64526681 -774.55574036 823.03640747 C-773.43286118 822.67231781 -772.30998199 822.30822815 -771.15307617 821.93310547 C-770.15684738 821.60776825 -769.16061859 821.28243103 -768.13420105 820.94723511 C-765.625 820.25 -765.625 820.25 -762.625 820.25 C-762.57077881 819.68120117 -762.51655762 819.11240234 -762.46069336 818.52636719 C-759.29746331 786.62391995 -751.9754523 755.40232821 -744.625 724.25 C-746.18224123 722.8370496 -747.74117143 721.42596053 -749.30078125 720.015625 C-750.16872314 719.22961914 -751.03666504 718.44361328 -751.9309082 717.63378906 C-754.50807363 715.35345891 -757.13638524 713.162799 -759.8125 711 C-764.33440939 707.34153866 -768.74278899 703.57307284 -773.125 699.75 C-777.40706292 696.01584832 -781.70831835 692.32540896 -786.125 688.75 C-791.21309206 684.63106834 -796.14503823 680.34852666 -801.078125 676.046875 C-804.71256499 672.88520769 -808.38029818 669.78142528 -812.125 666.75 C-817.21309206 662.63106834 -822.14503823 658.34852666 -827.078125 654.046875 C-830.71256499 650.88520769 -834.38029818 647.78142528 -838.125 644.75 C-843.20290459 640.63931533 -848.12747461 636.36798096 -853.04736328 632.07104492 C-857.82271088 627.91181176 -862.69080901 623.89827278 -867.6484375 619.95703125 C-869.625 618.25 -869.625 618.25 -870.625 616.25 C-869.89209282 613.76934684 -869.08705366 611.39336361 -868.1875 608.97265625 C-867.91630844 608.22728104 -867.64511688 607.48190582 -867.3657074 606.71394348 C-866.46187393 604.24308821 -865.54467359 601.77750037 -864.625 599.3125 C-864.31088165 598.46488098 -863.99676331 597.61726196 -863.67312622 596.74395752 C-847.57393828 553.39126419 -828.16227604 510.94556811 -805.11083984 470.85888672 C-803.35828767 467.78169767 -801.66281056 464.67614346 -799.97167969 461.56494141 C-791.90044744 446.75181634 -783.03197206 432.25071438 -773.625 418.25 C-765.5756323 418.94759449 -757.80145571 420.58207115 -749.91308594 422.28515625 C-748.44213829 422.59932764 -746.97110726 422.91310885 -745.5 423.22653198 C-741.5284017 424.0738269 -737.55797903 424.92651555 -733.58774853 425.78019333 C-729.42411436 426.67446137 -725.25939499 427.56364659 -721.0947876 428.45336914 C-713.21315474 430.13798132 -705.33247771 431.82702071 -697.45214868 433.51772022 C-687.61733641 435.6275311 -677.78133892 437.7317957 -667.9453125 439.8359375 C-664.50098691 440.57278855 -661.05667054 441.30968272 -657.61236572 442.04663086 C-656.36099929 442.31437459 -656.36099929 442.31437459 -655.08435273 442.58752728 C-649.332812 443.81829686 -643.58158802 445.05053912 -637.83050537 446.28344727 C-636.29073204 446.61345998 -634.75095749 446.94346704 -633.21118164 447.27346802 C-630.36281645 447.88392338 -627.51454248 448.49480196 -624.6663208 449.10592651 C-623.41033081 449.37510895 -622.15434082 449.64429138 -620.86029053 449.92163086 C-619.77043728 450.15538925 -618.68058403 450.38914764 -617.55770493 450.62998962 C-614.91679402 451.18831111 -612.27305843 451.72676528 -609.625 452.25 C-609.39554688 451.72148437 -609.16609375 451.19296875 -608.9296875 450.6484375 C-607.19641187 447.46211644 -605.0009581 444.70383243 -602.75 441.875 C-602.2667627 441.26430664 -601.78352539 440.65361328 -601.28564453 440.02441406 C-593.73274586 430.54750363 -585.76187992 421.42778678 -577.6171875 412.45703125 C-575.86306619 410.51373999 -574.14527306 408.54640552 -572.4375 406.5625 C-568.91883211 402.52468439 -565.27535942 398.60588109 -561.625 394.6875 C-561.04339111 394.06206299 -560.46178223 393.43662598 -559.86254883 392.79223633 C-559.28915771 392.17888428 -558.7157666 391.56553223 -558.125 390.93359375 C-557.5578125 390.32241699 -556.990625 389.71124023 -556.40625 389.08154297 C-555.18067748 387.82136684 -553.90551861 386.60817417 -552.59375 385.43798828 C-551.9440625 384.85130371 -551.294375 384.26461914 -550.625 383.66015625 C-550.026875 383.14718994 -549.42875 382.63422363 -548.8125 382.10571289 C-547.372671 380.24727709 -547.372671 380.24727709 -547.73852539 377.61987305 C-548.87568666 373.29703169 -550.29573077 369.12615923 -551.80859375 364.921875 C-552.13525024 364.00175629 -552.46190674 363.08163757 -552.79846191 362.13363647 C-553.88151657 359.08729969 -554.97190015 356.04364293 -556.0625 353 C-556.83115451 350.84370982 -557.5994588 348.68729477 -558.36743164 346.53076172 C-560.77838397 339.76754894 -563.20029697 333.0082934 -565.625 326.25 C-566.00495117 325.19067261 -566.38490234 324.13134521 -566.77636719 323.03991699 C-568.99948256 316.8431998 -571.22586581 310.64766482 -573.45495605 304.45309448 C-574.19330731 302.40106312 -574.93134444 300.34891871 -575.66906738 298.29666138 C-579.57818437 287.42312575 -583.50524416 276.55684713 -587.49229431 265.71160889 C-589.19594235 261.07377746 -590.89052248 256.43265756 -592.58425903 251.79119873 C-593.39762119 249.57032212 -594.21549505 247.35109223 -595.03805542 245.13360596 C-596.17584324 242.06568353 -597.29845363 238.992597 -598.41796875 235.91796875 C-598.75967102 235.00894302 -599.10137329 234.0999173 -599.45343018 233.16334534 C-602.27485658 225.33148229 -602.27485658 225.33148229 -600.625 221.25 C-598.69140625 219.07421875 -598.69140625 219.07421875 -596.1875 216.9375 C-595.27613281 216.15503906 -594.36476563 215.37257813 -593.42578125 214.56640625 C-589.2001735 211.07158701 -584.9418204 207.63161254 -580.625 204.25 C-579.63371094 203.46367187 -578.64242188 202.67734375 -577.62109375 201.8671875 C-532.59815115 166.19286255 -484.874261 134.80273038 -434.23730469 107.68066406 C-432.3767814 106.66172327 -430.53534861 105.60759086 -428.70800781 104.53027344 C-427.74475586 103.97114258 -426.78150391 103.41201172 -425.7890625 102.8359375 C-424.91975098 102.31821777 -424.05043945 101.80049805 -423.15478516 101.26708984 C-420.10527118 100.04104514 -418.7058814 100.19153377 -415.625 101.25 C-413.42332859 103.02749619 -411.44719856 104.77873584 -409.4375 106.75 C-408.28176492 107.85080129 -407.12551007 108.95105711 -405.96875 110.05078125 C-405.4015625 110.59557129 -404.834375 111.14036133 -404.25 111.70166016 C-402.0199749 113.82648275 -399.73376598 115.88466728 -397.4375 117.9375 C-396.63699219 118.65550781 -395.83648438 119.37351562 -395.01171875 120.11328125 C-394.22410156 120.81839844 -393.43648437 121.52351563 -392.625 122.25 C-387.22162087 127.09470988 -381.84138942 131.96212693 -376.5 136.875 C-373.24109506 139.87180011 -369.97000451 142.84914547 -366.625 145.75 C-362.74682987 149.11322638 -358.96972189 152.58335671 -355.19189453 156.05810547 C-350.36916089 160.49222727 -345.50238822 164.87608411 -340.625 169.25 C-335.22206641 174.09521141 -329.84139461 178.96212216 -324.5 183.875 C-320.63808482 187.42631189 -316.73703663 190.92253251 -312.76953125 194.35546875 C-309.37677286 197.35271432 -306.06079798 200.43424745 -302.74804688 203.51953125 C-300.44925975 205.64613589 -298.23841427 207.50772382 -295.625 209.25 C-291.4501507 208.84812114 -287.67425896 207.22679851 -283.78125 205.73046875 C-282.39381799 205.20256524 -281.00619497 204.67516356 -279.6184082 204.14819336 C-278.88723785 203.86942352 -278.1560675 203.59065369 -277.40274048 203.30343628 C-263.69007704 198.09024678 -249.89143606 193.21501125 -235.9375 188.6875 C-235.18243164 188.44051361 -234.42736328 188.19352722 -233.64941406 187.9390564 C-231.45200148 187.22209534 -229.25200338 186.51376283 -227.05078125 185.80859375 C-225.80723877 185.40954834 -224.56369629 185.01050293 -223.2824707 184.59936523 C-216.47620124 182.53784159 -209.53015227 180.94202754 -202.625 179.25 C-202.50542938 178.5037738 -202.38585876 177.75754761 -202.26266479 176.9887085 C-197.25540504 145.94800099 -191.57620666 115.02626006 -185.94905162 84.09351301 C-184.59981689 76.67609955 -183.25363442 69.25813301 -181.90763307 61.84013224 C-179.15000545 46.64283024 -176.38878086 31.44618426 -173.625 16.25 C-166.39199677 13.76962358 -159.0251526 12.64830547 -151.5 11.4375 C-150.29234985 11.24249405 -150.29234985 11.24249405 -149.06030273 11.04354858 C-128.32819916 7.72411385 -107.51927949 5.28358651 -86.625 3.25 C-85.77790466 3.16536499 -84.93080933 3.08072998 -84.05804443 2.99353027 C-56.06702039 0.20995298 -28.10230675 -0.01393662 0 0 Z M-64.625 383.25 C-65.31174805 383.33721313 -65.99849609 383.42442627 -66.70605469 383.51428223 C-146.79984071 393.7937233 -224.76419528 421.2710349 -292.625 465.25 C-293.32399414 465.70213867 -294.02298828 466.15427734 -294.74316406 466.62011719 C-317.21844429 481.22959406 -338.39244783 497.62759451 -358.6875 515.125 C-359.28224121 515.63587158 -359.87698242 516.14674316 -360.48974609 516.6730957 C-364.14326124 519.84946116 -367.60128096 523.16504796 -370.98364258 526.62890625 C-372.67457605 528.298964 -374.43517553 529.8413275 -376.25 531.375 C-384.31942547 538.34333427 -391.9300882 546.04448511 -398.828125 554.171875 C-400.69484551 556.33077785 -402.62375642 558.42535822 -404.56567383 560.51660156 C-410.17794693 566.56543786 -415.46777462 572.80559936 -420.625 579.25 C-421.54740375 580.38083957 -422.47062196 581.51101515 -423.39453125 582.640625 C-448.84180704 613.88981205 -469.57203081 648.29307025 -487.625 684.25 C-488.05264648 685.09594727 -488.48029297 685.94189453 -488.92089844 686.81347656 C-527.50193833 763.6198217 -543.25773162 850.8619991 -515.69012451 1086.47657776 C-510.04009998 1103.36440392 -503.89411705 1119.98500247 -496.625 1136.25 C-495.95549316 1137.76980469 -495.95549316 1137.76980469 -495.27246094 1139.3203125 C-480.13826681 1173.56418746 -461.67669131 1205.98297271 -439.625 1236.25 C-438.98208008 1237.13365234 -438.98208008 1237.13365234 -438.32617188 1238.03515625 C-435.80794991 1241.478524 -433.23173098 1244.87330933 -430.625 1248.25 C-430.21217773 1248.78753906 -429.79935547 1249.32507812 -429.37402344 1249.87890625 C-419.67481191 1262.48572745 -409.33712271 1274.49460969 -398.625 1286.25 C-397.83222656 1287.13558594 -397.03945312 1288.02117188 -396.22265625 1288.93359375 C-390.62190091 1295.14074666 -384.83877908 1301.14003486 -378.9375 1307.0625 C-378.23689453 1307.76769775 -377.53628906 1308.47289551 -376.81445312 1309.19946289 C-372.81366156 1313.18849296 -368.7101532 1316.99534545 -364.43139648 1320.68432617 C-362.06761089 1322.73311074 -359.78763116 1324.86683912 -357.5 1327 C-352.2921532 1331.74875287 -346.84800397 1336.10233192 -341.2734375 1340.41015625 C-338.85436232 1342.28096799 -336.46647526 1344.18228548 -334.1015625 1346.12109375 C-310.45412107 1365.4816478 -284.40824443 1381.62469752 -257.625 1396.25 C-256.27148438 1396.99564209 -256.27148438 1396.99564209 -254.890625 1397.75634766 C-218.40231946 1417.76032296 -178.91010506 1432.9196049 -138.625 1443.25 C-137.45404785 1443.55099609 -136.2830957 1443.85199219 -135.07666016 1444.16210938 C-97.25371072 1453.73392283 -57.96671918 1460.30689165 -18.890625 1460.453125 C-17.6261554 1460.46018463 -16.36168579 1460.46724426 -15.05889893 1460.47451782 C-10.99755767 1460.49203836 -6.93637115 1460.49921038 -2.875 1460.5 C-2.18157501 1460.50029457 -1.48815002 1460.50058914 -0.77371216 1460.50089264 C20.74741912 1460.50236884 42.01610918 1460.18776196 63.375 1457.25 C64.11184021 1457.15054077 64.84868042 1457.05108154 65.60784912 1456.9486084 C121.55349025 1449.35894174 175.1757047 1434.06497701 226.375 1410.25 C228.21846868 1409.40953892 230.06220663 1408.56966814 231.90625 1407.73046875 C245.15252448 1401.63509839 257.78888439 1394.59929741 270.375 1387.25 C271.23480469 1386.75242187 272.09460937 1386.25484375 272.98046875 1385.7421875 C296.00934978 1372.38900687 317.75209923 1357.07033934 338.375 1340.25 C339.25414063 1339.54488281 340.13328125 1338.83976562 341.0390625 1338.11328125 C346.81126332 1333.4548713 352.3594447 1328.61334452 357.81640625 1323.58984375 C360.01311903 1321.58094152 362.24049369 1319.62485887 364.5 1317.6875 C368.28261052 1314.4087208 371.77022375 1310.87372828 375.28125 1307.30859375 C376.96801628 1305.65015004 378.64779121 1304.1505479 380.5 1302.6875 C383.48673803 1300.15526558 385.86960996 1297.45099842 388.3984375 1294.4765625 C390.58313972 1292.01553431 392.89419191 1289.7349599 395.25 1287.4375 C399.56487121 1283.17485113 403.39512587 1278.68267822 407.17578125 1273.9453125 C409.24333412 1271.41136671 411.39780754 1269.01852195 413.625 1266.625 C420.0409594 1259.56298913 425.68448341 1251.89797494 431.375 1244.25 C431.90641602 1243.53811523 432.43783203 1242.82623047 432.98535156 1242.09277344 C448.34315283 1221.43591566 461.84440549 1199.72185479 474.375 1177.25 C474.84244629 1176.41581543 475.30989258 1175.58163086 475.79150391 1174.72216797 C488.44790631 1151.971291 498.53515999 1127.70376623 507.375 1103.25 C507.77783203 1102.1480127 508.18066406 1101.04602539 508.59570312 1099.91064453 C520.94863678 1065.76388618 529.2235548 1030.16702067 534.375 994.25 C534.6215332 992.5491626 534.6215332 992.5491626 534.87304688 990.81396484 C545.64399737 914.13450507 538.42429592 833.36375578 429.8515625 594.8203125 C424.55240161 587.80506377 419.01860319 580.98994394 413.375 574.25 C412.86727051 573.64317383 412.35954102 573.03634766 411.83642578 572.41113281 C410.334464 570.6230601 408.8255984 568.84115544 407.3125 567.0625 C406.89081543 566.56516357 406.46913086 566.06782715 406.03466797 565.55541992 C396.94376843 554.97627656 387.25038342 544.95897556 377.37353516 535.11816406 C375.60851456 533.3585652 373.84898867 531.59359603 372.08984375 529.828125 C366.35370623 524.08831488 360.58071909 518.48657288 354.375 513.25 C353.29137025 512.30130192 352.20929291 511.3508272 351.12890625 510.3984375 C304.28966247 469.54161736 249.32144798 437.45070121 191.375 415.25 C190.27961914 414.8276709 189.18423828 414.4053418 188.05566406 413.97021484 C141.08539129 396.03773904 91.40306837 385.58266759 41.375 381.25 C39.78896973 381.10643066 39.78896973 381.10643066 38.17089844 380.95996094 C25.34391769 379.94298804 12.48463328 380.00628198 -0.375 380 C-1.61798859 379.99932526 -2.86097717 379.99865051 -4.14163208 379.99795532 C-24.45676968 380.01542123 -44.46944291 380.66913546 -64.625 383.25 Z " fill="#FFFFFF" transform="translate(1921.625,43.75)"/>
<path d="M0 0 C8.0617577 -0.41770765 15.84261517 1.11335883 23.75 2.5 C24.51165466 2.63215912 25.27330933 2.76431824 26.05804443 2.90048218 C67.76540878 10.1741177 107.98150762 21.30794073 148 35 C148.17304784 46.33324231 148.33938765 57.66657468 148.5 69 C148.51187725 69.83782768 148.5237545 70.67565536 148.53599167 71.53887177 C148.93765207 100.02757719 149.13989822 128.50811258 149 157 C150.0048645 157.1378894 150.0048645 157.1378894 151.0300293 157.27856445 C154.79582979 158.193315 158.07643786 159.81450476 161.51953125 161.54296875 C162.24679916 161.90316605 162.97406708 162.26336334 163.72337341 162.63447571 C166.09036223 163.81109724 168.45186282 164.99819134 170.8125 166.1875 C171.61901001 166.59194336 172.42552002 166.99638672 173.25646973 167.41308594 C188.89326294 175.26757283 204.15342032 183.6404686 218.875 193.12109375 C219.62104492 193.59933594 220.36708984 194.07757812 221.13574219 194.5703125 C222.49417406 195.44874419 223.84462186 196.33971771 225.18457031 197.24609375 C228.26300659 199.40739167 228.26300659 199.40739167 231.85888672 199.79394531 C234.57135863 198.78813475 236.84517447 197.42057349 239.3046875 195.89453125 C240.35197021 195.24774414 241.39925293 194.60095703 242.47827148 193.93457031 C243.61064448 193.22742192 244.74288408 192.52005989 245.875 191.8125 C247.04676245 191.0852994 248.21872128 190.35841515 249.39086914 189.63183594 C259.45975652 183.37954226 269.45917028 177.01828699 279.44335938 170.63183594 C285.8278986 166.5567538 292.24045164 162.52574343 298.64697266 158.48535156 C301.08235636 156.94801244 303.51598793 155.40793158 305.94921875 153.8671875 C314.92914852 148.18308302 323.92863433 142.53727886 333 137 C341.57274728 142.61237412 349.31110234 149.21704913 357.09838867 155.8527832 C360.64799166 158.87368851 364.24424344 161.826469 367.875 164.75 C371.5433215 167.73349737 374.94694015 170.81238543 378.22010803 174.22105408 C379.98376156 175.98377019 381.81290466 177.60204863 383.70874023 179.22094727 C387.97204183 182.92747372 391.98517566 186.84050119 395.97265625 190.83984375 C396.69940048 191.56563126 397.42614471 192.29141876 398.1749115 193.03919983 C399.69962296 194.56323556 401.2230915 196.08851569 402.74536133 197.61499023 C405.05633891 199.93132463 407.37260771 202.24227078 409.68945312 204.55273438 C411.1800082 206.04395034 412.670253 207.53547653 414.16015625 209.02734375 C414.84263931 209.70780258 415.52512238 210.38826141 416.22828674 211.08934021 C420.68413748 215.56665567 424.87912269 220.21441765 429 225 C430.53748937 226.71209384 432.07850135 228.42103967 433.625 230.125 C434.37652344 230.96804688 435.12804688 231.81109375 435.90234375 232.6796875 C437.15627246 234.06671479 438.43322385 235.43418872 439.75390625 236.7578125 C441.1875 238.25 441.1875 238.25 443 241 C441.94321267 245.30407449 440.0781835 248.90919458 437.8671875 252.7265625 C437.23425781 253.82613281 436.60132813 254.92570312 435.94921875 256.05859375 C435.25785576 257.24742099 434.56644827 258.43622235 433.875 259.625 C433.15437198 260.87336563 432.43433046 262.12206998 431.71484375 263.37109375 C430.22069053 265.96388176 428.72403245 268.55519882 427.22558594 271.14550781 C423.79338024 277.08347306 420.39868823 283.04280559 417 289 C415.67725895 291.31520479 414.35436323 293.63032046 413.03125 295.9453125 C412.36587443 297.10969424 411.70050991 298.2740823 411.03515625 299.43847656 C403.87695312 311.96533203 403.87695312 311.96533203 396.71875 324.4921875 C396.120625 325.54760742 395.5225 326.60302734 394.90625 327.69042969 C393.53749068 330.06682587 392.14629294 332.41458212 390.71875 334.75488281 C390.34335083 335.38137726 389.96795166 336.0078717 389.58117676 336.65335083 C388.52651327 338.41151872 387.45798089 340.16134535 386.38867188 341.91064453 C384.86590129 345.29832719 384.76218936 346.56105061 386 350 C387.36026959 352.20679819 387.36026959 352.20679819 389.1875 354.4375 C405.81591697 376.60872263 419.34947665 401.40096068 432 426 C446.64407854 426.20884731 461.24050446 425.92530329 475.87109375 425.34375 C477.11564268 425.2943074 477.11564268 425.2943074 478.38533401 425.24386597 C483.53220031 425.03770224 488.67876993 424.82473144 493.82525635 424.60931396 C500.74844507 424.31960086 507.67181234 424.03467497 514.59547615 423.75654602 C516.96698802 423.65998011 519.33827471 423.55890236 521.70957947 423.45739746 C532.14464758 423.02589821 542.55660387 422.92713607 553 423 C557.53105818 432.4694725 561.15431764 442.18922217 564.6875 452.0625 C564.99302795 452.91459045 565.29855591 453.76668091 565.61334229 454.64459229 C577.28945513 487.32813456 586.32941739 520.76542558 593.0625 554.8125 C593.3869812 556.43188477 593.3869812 556.43188477 593.71801758 558.08398438 C593.99875122 559.56801758 593.99875122 559.56801758 594.28515625 561.08203125 C594.44894775 561.94030518 594.61273926 562.7985791 594.78149414 563.68286133 C595.02212451 566.23461869 595.07475663 567.66350731 594 570 C591.74462891 571.66894531 591.74462891 571.66894531 588.7265625 573.328125 C587.60556152 573.95468994 586.48456055 574.58125488 585.32958984 575.22680664 C584.72701355 575.55584991 584.12443726 575.88489319 583.50360107 576.22390747 C580.94530003 577.62125235 578.40311848 579.04678093 575.8598938 580.47132874 C574.53813133 581.21158249 573.21558953 581.95044631 571.89230347 582.68797302 C565.31455055 586.36035644 558.84153184 590.19751207 552.375 594.0625 C542.41091709 600.00071283 532.39169922 605.83360226 522.32958984 611.60400391 C514.47073703 616.12124006 506.68531081 620.74976394 498.96313477 625.49707031 C498.20186279 625.96081055 497.44059082 626.42455078 496.65625 626.90234375 C495.99431641 627.30960693 495.33238281 627.71687012 494.65039062 628.13647461 C493 629 493 629 491 629 C491.19916016 630.65322266 491.19916016 630.65322266 491.40234375 632.33984375 C491.58098137 633.87236646 491.75935183 635.40492032 491.9375 636.9375 C492.02451172 637.65357422 492.11152344 638.36964844 492.20117188 639.10742188 C494.24339955 656.88236646 494.12836301 674.65202024 494.06866455 692.51745605 C494.05827502 695.96410499 494.05383409 699.41076167 494.04882812 702.85742188 C494.03790937 709.57163419 494.02125673 716.28581286 494 723 C507.25648424 730.13068171 520.51132767 737.25909516 533.875 744.1875 C542.07059432 748.43756465 550.18744713 752.81221128 558.27050781 757.2722168 C563.70060642 760.25099987 569.17135197 763.13412963 574.6875 765.94921875 C575.34543549 766.28572952 576.00337097 766.6222403 576.6812439 766.96894836 C579.93419492 768.63145316 583.19128431 770.2849058 586.45556641 771.92504883 C587.6502066 772.53308796 588.84471176 773.1413925 590.0390625 773.75 C591.09303223 774.28109375 592.14700195 774.8121875 593.23291016 775.359375 C596.1110171 777.06582274 598.07068631 778.25379911 600 781 C600.02427299 783.69019119 599.83525147 785.79438377 599.359375 788.40234375 C599.24250336 789.13932999 599.12563171 789.87631622 599.00521851 790.63563538 C598.61063543 793.07421457 598.18171496 795.50523977 597.75 797.9375 C597.46129755 799.64765509 597.17338612 801.35794388 596.88623047 803.06835938 C590.18413247 842.30627124 580.12774734 880.42496171 567.66015625 918.20703125 C567.40635193 918.98151611 567.15254761 919.75600098 566.89105225 920.55395508 C565.11774148 925.88225852 565.11774148 925.88225852 564 927 C562.43194556 927.12019551 560.85858273 927.17179034 559.28611755 927.19618225 C558.26663025 927.21438522 557.24714294 927.2325882 556.19676208 927.25134277 C555.068918 927.26644897 553.94107391 927.28155518 552.77905273 927.29711914 C551.59872467 927.31677231 550.41839661 927.33642548 549.20230103 927.35667419 C545.95663819 927.40975215 542.71094426 927.45845411 539.46518588 927.50525212 C536.07651177 927.55513189 532.68792845 927.61054851 529.29933167 927.66539001 C522.87850729 927.76845774 516.45761641 927.86651089 510.03668696 927.96278423 C502.72839781 928.07260495 495.42019974 928.18798284 488.11200416 928.30383885 C473.07476286 928.54209744 458.03742094 928.7733405 443 929 C442.52762862 929.9900288 442.52762862 929.9900288 442.04571438 931.00005817 C440.60393617 934.02092655 439.16122849 937.04135014 437.71850586 940.06176758 C437.22315086 941.10000923 436.72779587 942.13825089 436.21743011 943.20795441 C432.76948856 950.42412049 429.26460631 957.59763471 425.5625 964.6875 C424.75872925 966.22893677 424.75872925 966.22893677 423.9387207 967.80151367 C416.85693421 981.23728541 409.26495094 994.43156532 400.1328125 1006.58984375 C398.73671373 1008.92468317 398.73671373 1008.92468317 399.5078125 1011.3203125 C401.50874438 1014.91360903 403.58195833 1018.44238436 405.75 1021.9375 C406.47038452 1023.10744507 406.47038452 1023.10744507 407.20532227 1024.30102539 C412.80686771 1033.36394945 418.55183382 1042.33618485 424.28759766 1051.31445312 C426.91245258 1055.43099206 429.52000075 1059.55837666 432.125 1063.6875 C432.85577759 1064.84560181 432.85577759 1064.84560181 433.60131836 1066.02709961 C434.57839666 1067.57577765 435.55536657 1069.12452409 436.53222656 1070.67333984 C438.51967681 1073.82377246 440.50857237 1076.97328861 442.49902344 1080.12182617 C443.49171286 1081.69466086 444.4819894 1083.26902129 445.46972656 1084.8449707 C448.08868868 1089.01650418 450.7539874 1093.14775342 453.4921875 1097.2421875 C454.34103516 1098.53092773 454.34103516 1098.53092773 455.20703125 1099.84570312 C456.2963405 1101.49752453 457.39997262 1103.14001355 458.51953125 1104.77148438 C462.09192874 1110.23431502 462.09192874 1110.23431502 461.69140625 1113.5703125 C459.2935965 1117.01474128 456.7538795 1120.28017082 454.0625 1123.5 C453.48201904 1124.20342529 452.90153809 1124.90685059 452.3034668 1125.6315918 C450.54263225 1127.76031885 448.77248268 1129.88096778 447 1132 C446.49662109 1132.60537598 445.99324219 1133.21075195 445.47460938 1133.83447266 C439.89650788 1140.54002216 434.17607766 1147.08380349 428.2734375 1153.5078125 C426.26915157 1155.70495068 424.31386584 1157.93280081 422.375 1160.1875 C419.39166412 1163.62603971 416.20736777 1166.81117146 412.96484375 1170.00390625 C411.07769256 1171.92107177 409.31314625 1173.89575322 407.5625 1175.9375 C401.84648132 1182.56288529 395.60213476 1188.56292207 388.96484375 1194.25390625 C386.89179676 1196.09615675 384.94564198 1198.02401662 383 1200 C379.89225567 1203.143811 376.71222514 1206.1261983 373.33984375 1208.984375 C371.45715623 1210.60618929 369.63493461 1212.26132149 367.81640625 1213.953125 C366.66967126 1214.99002634 365.5225347 1216.02648376 364.375 1217.0625 C363.83657471 1217.57659424 363.29814941 1218.09068848 362.7434082 1218.62036133 C361.1484375 1220.03515625 361.1484375 1220.03515625 358 1222 C352.03576797 1221.34111067 346.27796143 1216.7950693 341.1875 1213.75 C332.68365376 1208.72263435 324.13575698 1203.79726527 315.5 1199 C307.2775821 1194.42495743 299.11513665 1189.76268235 291 1185 C287.00240353 1182.66252943 283.00200728 1180.32991 279 1178 C277.87271484 1177.34273926 276.74542969 1176.68547852 275.58398438 1176.00830078 C272.14884677 1174.00966111 268.7000093 1172.03536164 265.25 1170.0625 C264.18394531 1169.44052734 263.11789062 1168.81855469 262.01953125 1168.17773438 C261.02824219 1167.61505859 260.03695313 1167.05238281 259.015625 1166.47265625 C258.14196289 1165.97000244 257.26830078 1165.46734863 256.36816406 1164.94946289 C254.11384736 1163.84490694 254.11384736 1163.84490694 251.99951172 1164.14477539 C249.4392302 1165.23985062 247.29195581 1166.6378602 244.9921875 1168.2109375 C244.01515869 1168.87303223 243.03812988 1169.53512695 242.03149414 1170.21728516 C240.98985107 1170.92933105 239.94820801 1171.64137695 238.875 1172.375 C217.74919129 1186.61842741 195.89822521 1199.78078638 173 1211 C172.8591594 1225.11801291 173.30317997 1239.18385962 173.875 1253.2890625 C173.96498866 1255.57260956 174.05466399 1257.85616899 174.14404297 1260.13973999 C174.37766823 1266.08756951 174.61548831 1272.0352238 174.85424805 1277.98284912 C175.09812461 1284.07700569 175.3379429 1290.1713219 175.578125 1296.265625 C176.04816058 1308.17724102 176.52263758 1320.08867551 177 1332 C146.55433549 1344.13202425 146.55433549 1344.13202425 131.5 1349.0625 C130.76329071 1349.3056897 130.02658142 1349.54887939 129.26754761 1349.79943848 C105.45193842 1357.64028434 81.37715278 1364.2424354 56.875 1369.5625 C56.09327423 1369.73293823 55.31154846 1369.90337646 54.50613403 1370.07897949 C46.3624746 1371.84073913 38.32784914 1373.39808615 30 1374 C29.62939453 1373.35377686 29.25878906 1372.70755371 28.87695312 1372.04174805 C21.66577071 1359.47844723 14.40679182 1346.94917089 7 1334.5 C1.10104341 1324.58247769 -4.71119395 1314.61916441 -10.46313477 1304.61572266 C-16.92388905 1293.38030287 -23.45723444 1282.18783926 -30 1271 C-30.75128174 1271.06058594 -31.50256348 1271.12117188 -32.27661133 1271.18359375 C-53.74584268 1272.83275548 -75.16421982 1273.1799326 -96.6875 1273.125 C-97.70082586 1273.12243195 -97.70082586 1273.12243195 -98.73462296 1273.11981201 C-107.15651227 1273.09689526 -115.57826885 1273.05654793 -124 1273 C-124.4218457 1273.82387207 -124.84369141 1274.64774414 -125.27832031 1275.49658203 C-139.45290392 1303.14971028 -139.45290392 1303.14971028 -146 1315 C-151.19551116 1324.40591336 -156.12216108 1333.93819102 -161.02490234 1343.49856567 C-167.15350852 1355.44255041 -173.48594081 1367.26080981 -180 1379 C-227.67210368 1373.80749908 -284.72367376 1364.63816312 -328 1343 C-328 1303.07 -328 1263.14 -328 1222 C-329.98 1221.34 -331.96 1220.68 -334 1220 C-356.65409578 1210.18462876 -378.1624816 1197.95653181 -399.15625 1185.03125 C-400.00316406 1184.51175781 -400.85007812 1183.99226563 -401.72265625 1183.45703125 C-403.67881903 1182.20548971 -405.49791838 1180.873085 -407.34375 1179.46875 C-409.84790391 1177.72037788 -409.84790391 1177.72037788 -412.3359375 1178.4140625 C-416.13889963 1180.67799597 -419.90344932 1182.97897465 -423.625 1185.375 C-425.34239346 1186.47013749 -427.05984287 1187.56518723 -428.77734375 1188.66015625 C-429.64987793 1189.21848145 -430.52241211 1189.77680664 -431.42138672 1190.35205078 C-435.33457257 1192.85290332 -439.26047045 1195.33346298 -443.1875 1197.8125 C-443.95723145 1198.29895996 -444.72696289 1198.78541992 -445.52001953 1199.28662109 C-453.0233168 1204.02450031 -460.5511331 1208.72294186 -468.07885742 1213.421875 C-473.60522445 1216.87314148 -479.12584759 1220.33299177 -484.63232422 1223.81591797 C-486.18976409 1224.80035872 -487.74864658 1225.7825215 -489.30908203 1226.76220703 C-493.09107152 1229.13952757 -496.8417792 1231.55110083 -500.5546875 1234.03515625 C-501.28300781 1234.51364014 -502.01132812 1234.99212402 -502.76171875 1235.48510742 C-504.1310348 1236.38569849 -505.49117727 1237.30045938 -506.83984375 1238.23168945 C-511.274926 1241.11955419 -511.274926 1241.11955419 -514.55859375 1240.578125 C-517.65494544 1238.57664327 -520.43192447 1236.31132701 -523.1875 1233.875 C-524.34929556 1232.86867666 -525.51206352 1231.86347491 -526.67578125 1230.859375 C-527.24377441 1230.36759766 -527.81176758 1229.87582031 -528.39697266 1229.36914062 C-530.51172196 1227.56293988 -532.68642363 1225.84066791 -534.875 1224.125 C-539.05979805 1220.79879541 -543.1387893 1217.36439777 -547.1875 1213.875 C-547.73841309 1213.40336426 -548.28932617 1212.93172852 -548.85693359 1212.44580078 C-561.20781058 1201.73664885 -572.88251096 1190.2832814 -584.41894531 1178.71142578 C-586.52293737 1176.60200343 -588.63232035 1174.49807561 -590.7421875 1172.39453125 C-592.10969622 1171.02636265 -593.4768952 1169.65788439 -594.84375 1168.2890625 C-595.46052612 1167.67431061 -596.07730225 1167.05955872 -596.71276855 1166.42617798 C-600.45631949 1162.66268471 -604.01157777 1158.77960798 -607.47848511 1154.7596283 C-610.17708607 1151.6387028 -612.992913 1148.62321171 -615.7890625 1145.58984375 C-618.41076815 1142.51883519 -620.68985711 1139.31120481 -623 1136 C-615.79981389 1122.92093043 -608.57194203 1109.86860357 -601 1097 C-595.38630601 1087.45814863 -589.98071969 1077.81399087 -584.63623047 1068.11914062 C-579.66798437 1059.13332199 -574.53581826 1050.25781217 -569.30273438 1041.42382812 C-568.75166016 1040.48990234 -568.20058594 1039.55597656 -567.6328125 1038.59375 C-567.14699707 1037.77583984 -566.66118164 1036.95792969 -566.16064453 1036.11523438 C-564.87362777 1033.9194293 -564.87362777 1033.9194293 -564 1031 C-565.64607627 1028.38582321 -567.33894461 1025.9653906 -569.1875 1023.5 C-585.51959736 1001.00765542 -599.23128457 976.65878858 -612 952 C-622.45405911 951.91621281 -632.86720694 952.10953699 -643.31170082 952.55558777 C-645.76082635 952.65987121 -648.21010661 952.75949152 -650.6594696 952.85803223 C-657.61219054 953.13849628 -664.56459054 953.42649355 -671.5168457 953.71826172 C-692.02482188 954.57632275 -712.46960198 955.26434643 -733 955 C-751.86056069 908.51443765 -767.90667087 859.8149901 -775 810 C-766.23856993 804.56022092 -757.40781911 799.25984408 -748.5 794.0625 C-747.23753894 793.32437483 -745.97517139 792.5860897 -744.71289062 791.84765625 C-742.10322197 790.32116501 -739.49316179 788.79534656 -736.8828125 787.27001953 C-730.75144452 783.68643698 -724.62604787 780.09266638 -718.5 776.5 C-716.11725297 775.1027529 -713.7344378 773.70562209 -711.3515625 772.30859375 C-710.46230576 771.78723343 -710.46230576 771.78723343 -709.55508423 771.25534058 C-705.66961481 768.97771015 -701.78293334 766.70215927 -697.89556885 764.42776489 C-695.20363186 762.85268859 -692.51207907 761.27695645 -689.82055664 759.70117188 C-688.53380251 758.94807597 -687.24685891 758.19530369 -685.9597168 757.44287109 C-684.17839743 756.40152755 -682.39772586 755.35908447 -680.6171875 754.31640625 C-679.60253418 753.72287354 -678.58788086 753.12934082 -677.54248047 752.51782227 C-675.66361563 751.39616846 -673.82069647 750.21379765 -672 749 C-671.59361501 747.07758093 -671.59361501 747.07758093 -671.75 744.81640625 C-671.77707031 743.91293457 -671.80414062 743.00946289 -671.83203125 742.07861328 C-672.08533985 737.4358495 -672.38815812 732.79782494 -672.71142578 728.15942383 C-674.39620737 703.78522388 -674.19657891 679.41963674 -674 655 C-687.37565757 647.57743565 -700.87697113 640.45542631 -714.5 633.5 C-725.54414337 627.86040806 -736.54222505 622.17083209 -747.39526367 616.16870117 C-755.14451989 611.88844258 -762.98909778 607.80001401 -770.85693359 603.74243164 C-771.77684082 603.26668701 -772.69674805 602.79094238 -773.64453125 602.30078125 C-774.46284424 601.87966064 -775.28115723 601.45854004 -776.12426758 601.0246582 C-778 600 -778 600 -779 599 C-778.87415697 589.07968288 -777.25950284 579.30111707 -775.5 569.5625 C-775.30742615 568.48476318 -775.30742615 568.48476318 -775.11096191 567.38525391 C-767.94131921 527.51674091 -756.81125852 489.43377557 -744 451 C-684.105 450.505 -684.105 450.505 -623 450 C-616.07 435.645 -616.07 435.645 -609 421 C-600.45297489 404.21864581 -591.43404544 387.59424522 -580.23046875 372.41015625 C-578.82976232 370.11003674 -578.82976232 370.11003674 -578.98046875 367.703125 C-580.49821372 363.67906555 -582.77308738 360.27379224 -585.125 356.6875 C-586.22217655 354.98360219 -587.31848979 353.27914824 -588.4140625 351.57421875 C-589.28853027 350.21949463 -589.28853027 350.21949463 -590.18066406 348.83740234 C-593.33334141 343.92054565 -596.41273413 338.95808403 -599.5 334 C-604.45219646 326.0643338 -609.42741217 318.14394487 -614.43041992 310.24023438 C-619.20507243 302.69044017 -623.93621737 295.11359378 -628.66210938 287.53320312 C-629.25443359 286.58380859 -629.84675781 285.63441406 -630.45703125 284.65625 C-631.03404785 283.72425781 -631.61106445 282.79226563 -632.20556641 281.83203125 C-633.44909962 279.86944822 -634.73033814 277.93044522 -636.04052734 276.01171875 C-636.69102051 275.04878906 -637.34151367 274.08585937 -638.01171875 273.09375 C-638.60815186 272.23458984 -639.20458496 271.37542969 -639.8190918 270.49023438 C-641.26524052 267.44067536 -641.08550276 266.15301892 -640 263 C-638.45923003 260.73654243 -636.91865655 258.6684981 -635.1875 256.5625 C-634.69757568 255.95341797 -634.20765137 255.34433594 -633.70288086 254.71679688 C-628.77332208 248.62895211 -623.66925304 242.69044492 -618.53369141 236.77636719 C-616.96271463 234.95681497 -615.40723183 233.12501894 -613.85546875 231.2890625 C-609.05560921 225.61895647 -604.26102274 220.07108948 -598.9074707 214.90844727 C-597.15567121 213.15575091 -595.55291154 211.35552362 -593.953125 209.46484375 C-589.68916561 204.55685177 -585.11692768 199.96630129 -580.51196289 195.3815918 C-579.06475615 193.93974779 -577.62297974 192.49262884 -576.18164062 191.04492188 C-571.52092774 186.38086376 -566.80232623 181.84021175 -561.79418945 177.54907227 C-559.5159026 175.58203865 -557.32426468 173.53204238 -555.13085938 171.47143555 C-550.84194515 167.44757408 -546.51915548 163.45220549 -542 159.6875 C-541.34 159.13449219 -540.68 158.58148437 -540 158.01171875 C-537.25351811 156.62238514 -535.94361012 157.20255556 -533 158 C-530.51831055 159.17651367 -530.51831055 159.17651367 -527.88671875 160.66796875 C-526.89881348 161.22411865 -525.9109082 161.78026855 -524.89306641 162.35327148 C-523.83522949 162.95856689 -522.77739258 163.5638623 -521.6875 164.1875 C-520.57810059 164.815354 -519.46870117 165.44320801 -518.32568359 166.09008789 C-509.89452412 170.87658337 -501.52405711 175.76574876 -493.16479492 180.67651367 C-484.55959958 185.71528927 -475.86139548 190.57668947 -467.10644531 195.3503418 C-461.3824113 198.48814114 -455.77878799 201.72497542 -450.2734375 205.234375 C-449.19642578 205.90791016 -448.11941406 206.58144531 -447.00976562 207.27539062 C-444.97001431 208.56024332 -442.9489451 209.87541183 -440.95117188 211.22460938 C-438.27625249 212.89289948 -436.04883069 214.19323249 -433 215 C-429.39867425 214.08003517 -426.87680846 212.30174054 -424 210 C-423.15953125 209.4121875 -422.3190625 208.824375 -421.453125 208.21875 C-420.72609375 207.6515625 -419.9990625 207.084375 -419.25 206.5 C-401.23053271 193.14852842 -381.05983675 182.30621909 -361.3125 171.75 C-360.59932617 171.36682617 -359.88615234 170.98365234 -359.15136719 170.58886719 C-354.24295264 168 -354.24295264 168 -352 168 C-352.0501123 166.73705109 -352.10022461 165.47410217 -352.15185547 164.17288208 C-352.62647161 152.19968877 -353.09732376 140.22635241 -353.56460571 128.25287056 C-353.80488694 122.09900676 -354.04643807 115.94519857 -354.29101562 109.79150391 C-354.52753368 103.83936084 -354.76055373 97.88708969 -354.99127197 91.93471909 C-355.07935131 89.67760317 -355.16863565 87.42053391 -355.25921631 85.163517 C-355.78255896 72.10104005 -356.13074584 59.07341692 -356 46 C-251.99278588 4 -251.99278588 4 -210 4 C-209.61368408 4.67240723 -209.22736816 5.34481445 -208.8293457 6.03759766 C-201.56799843 18.66910416 -194.27523811 31.27851469 -186.84472656 43.81152344 C-181.11693462 53.47651789 -175.46321229 63.18428736 -169.81005859 72.89306641 C-167.92334173 76.13158257 -166.03426454 79.36871188 -164.14453125 82.60546875 C-163.51345459 83.68650879 -162.88237793 84.76754883 -162.23217773 85.88134766 C-161.02744444 87.94493052 -159.82253944 90.00841316 -158.61743164 92.07177734 C-155.72111212 97.03457922 -152.8404359 102.00498955 -150 107 C-149.42894531 106.97494385 -148.85789062 106.9498877 -148.26953125 106.92407227 C-147.45871094 106.88854248 -146.64789062 106.8530127 -145.8125 106.81640625 C-144.89895752 106.77636475 -143.98541504 106.73632324 -143.04418945 106.69506836 C-140.98026145 106.60518842 -138.91629506 106.51618639 -136.85229492 106.42797852 C-131.60513792 106.203478 -126.35879355 105.97122115 -121.11328125 105.7109375 C-99.05829879 104.64838308 -77.03936945 104.5781052 -55 106 C-54.65775391 104.79537109 -54.65775391 104.79537109 -54.30859375 103.56640625 C-52.65966784 99.07246787 -50.4075573 95.10091725 -48.0625 90.9375 C-42.31070959 80.57274486 -36.88590645 70.05795176 -31.5 59.5 C-25.38635078 47.52510267 -19.16943852 35.62959859 -12.66796875 23.859375 C-8.31633073 15.97534421 -4.16658242 7.98287694 0 0 Z M-148 244 C-149.1849707 244.16097168 -150.36994141 244.32194336 -151.59082031 244.48779297 C-219.69116222 253.9275341 -286.58248483 279.66756237 -343 319 C-343.5868457 319.40814941 -344.17369141 319.81629883 -344.77832031 320.23681641 C-360.87440871 331.47776315 -376.10989061 343.62954441 -390.62890625 356.84765625 C-392.16663754 358.24352106 -393.7155623 359.62719097 -395.27734375 360.99609375 C-400.77081293 365.8314435 -406.00447349 370.89911969 -411.1875 376.0625 C-411.85281738 376.7232251 -412.51813477 377.3839502 -413.20361328 378.06469727 C-417.0730494 381.94615624 -420.76528775 385.93181772 -424.3449707 390.08178711 C-425.87806673 391.85867684 -427.43347862 393.61197158 -429 395.359375 C-485.92859895 459.42053757 -521.33566687 541.24769463 -534.1875 625.5625 C-534.4198938 627.06586914 -534.4198938 627.06586914 -534.65698242 628.59960938 C-537.54697005 648.52274674 -538.37727649 668.39053723 -538.3125 688.5 C-538.31067719 689.68110352 -538.30885437 690.86220703 -538.30697632 692.07910156 C-538.25909547 710.5601724 -537.65781495 728.68575291 -535 747 C-534.82307617 748.23959473 -534.64615234 749.47918945 -534.46386719 750.75634766 C-524.52044195 818.58287264 -500.1826049 884.51598514 -461 941 C-460.57283691 941.62406738 -460.14567383 942.24813477 -459.70556641 942.89111328 C-452.73476631 953.06504085 -445.3418767 962.75956318 -437.45605469 972.23974609 C-435.42138879 974.69949478 -433.43426675 977.19694797 -431.4375 979.6875 C-422.90883939 990.04047304 -413.54147909 999.56795573 -404.09838867 1009.07684326 C-403.00733906 1010.17595185 -401.91777244 1011.27653493 -400.82983398 1012.37872314 C-394.6745875 1018.60593443 -388.43565315 1024.46301479 -381.57348633 1029.92333984 C-379.10357732 1031.91641887 -376.74262807 1033.98708115 -374.390625 1036.1171875 C-370.02164716 1040.03841295 -365.45617869 1043.61890163 -360.75 1047.125 C-359.88938965 1047.76679199 -359.0287793 1048.40858398 -358.14208984 1049.06982422 C-279.98416631 1106.82149649 -185.26350706 1138.49330393 -23.23046875 1133.16040039 C64.20516701 1119.82728094 146.23214273 1080.68051752 211.625 1021.15625 C213.17622694 1019.74789922 214.73835873 1018.35144165 216.3125 1016.96875 C226.0972213 1008.3427457 235.75333804 999.16227868 244.1640625 989.171875 C245.67515365 987.38428632 247.21269947 985.63443171 248.7734375 983.890625 C257.82115259 973.72159389 265.97499774 962.98637239 274 952 C274.5244873 951.29149902 275.04897461 950.58299805 275.58935547 949.85302734 C290.13222408 930.18963031 302.08845046 908.85040721 313 887 C313.43650879 886.13487793 313.87301758 885.26975586 314.32275391 884.37841797 C321.56078719 869.96533845 327.49488158 855.15240383 333 840 C333.52956299 838.55729736 333.52956299 838.55729736 334.06982422 837.08544922 C351.05957801 790.3127953 359.26903003 739.87482968 359.1875 690.1875 C359.18656342 689.43476807 359.18562683 688.68203613 359.18466187 687.90649414 C359.01008974 622.34993205 344.37916161 557.14164317 316 498 C315.53400391 497.0203125 315.06800781 496.040625 314.58789062 495.03125 C298.1472501 460.66116579 277.48872638 429.1532457 253 400 C252.55333984 399.46310547 252.10667969 398.92621094 251.64648438 398.37304688 C244.50191725 389.79763275 236.9939838 381.78514243 229 374 C226.18441437 371.20272712 223.39380215 368.38270563 220.6171875 365.546875 C214.23967091 359.0587853 207.87516408 352.79197936 200.71484375 347.15625 C198.26002473 345.20652324 195.88800203 343.18432922 193.52441406 341.12573242 C131.00986195 286.93042455 49.04236413 255.57748059 -32 244 C-33.10456543 243.83483887 -34.20913086 243.66967773 -35.34716797 243.49951172 C-71.97691529 238.21674279 -111.4033452 238.73681357 -148 244 Z " fill="#FFFFFF" transform="translate(887,1509)"/>
<path d="M0 0 C79.04277487 -2.12039906 159.93390568 21.40893476 225.74414062 65.07080078 C226.45973145 65.54549805 227.17532227 66.02019531 227.91259766 66.50927734 C245.66308666 78.35931545 261.99712122 91.68044767 277.74414062 106.07080078 C278.75703161 106.99021468 279.77005878 107.90947857 280.78320312 108.82861328 C288.18399557 115.55754608 295.34731156 122.337375 301.87695312 129.92626953 C303.87567707 132.22187507 305.93359292 134.45559678 307.99414062 136.69580078 C362.16272024 196.90344501 393.16232933 274.52137849 403.74414062 354.07080078 C403.87691406 355.03840332 404.0096875 356.00600586 404.14648438 357.00292969 C416.2643088 449.36730209 389.44250057 550.67637815 327.74414062 637.07080078 C327.30118652 637.66538086 326.85823242 638.25996094 326.40185547 638.87255859 C309.65037734 661.35802329 290.23461877 683.92557465 268.09570312 701.21533203 C265.81416442 703.01554945 263.69128946 704.91254821 261.55664062 706.88330078 C189.69310138 771.1422327 88.10289853 800.17043435 -18.77783203 797.84375 C-69.15010461 794.73894276 -118.7018642 781.6595336 -164.25585938 760.07080078 C-165.20638184 759.62236816 -166.1569043 759.17393555 -167.13623047 758.71191406 C-198.62730882 743.72977862 -228.22663647 724.30071944 -254.25585938 701.07080078 C-255.52042969 699.95511719 -255.52042969 699.95511719 -256.81054688 698.81689453 C-259.31271172 696.58955763 -261.78763948 694.33571354 -264.25585938 692.07080078 C-265.13274414 691.26956787 -265.13274414 691.26956787 -266.02734375 690.45214844 C-279.62377733 678.0070812 -279.62377733 678.0070812 -284.47070312 672.16845703 C-286.39264699 669.91006785 -288.41313435 667.75782348 -290.44824219 665.6015625 C-358.57275049 593.18456951 -393.69764385 490.56648918 -392.25585938 392.07080078 C-392.08484139 386.66965047 -391.82256489 381.27743598 -391.50585938 375.88330078 C-391.4632901 375.15290588 -391.42072083 374.42251099 -391.37686157 373.66998291 C-386.08913813 285.61276285 -350.73177318 201.00092103 -292.25585938 135.07080078 C-291.42183594 134.12462891 -290.5878125 133.17845703 -289.72851562 132.20361328 C-278.60314249 119.82684995 -266.98749213 107.32220881 -253.83007812 97.08642578 C-251.4159833 95.19617855 -249.10005067 93.21942277 -246.7890625 91.20532227 C-238.37175199 83.90199181 -229.38103505 77.45428535 -220.25585938 71.07080078 C-219.64581055 70.63944824 -219.03576172 70.2080957 -218.40722656 69.76367188 C-191.0741684 50.51580364 -160.65168257 35.40636827 -129.25585938 24.07080078 C-128.32837891 23.73242188 -127.40089844 23.39404297 -126.4453125 23.04541016 C-85.70772906 8.3416447 -43.20025125 1.35585204 0 0 Z M-90.25585938 182.07080078 C-91.62016333 182.71462231 -92.98474573 183.35785411 -94.34960938 184.00048828 C-110.19620166 191.57414295 -124.49013271 201.20617562 -138.25585938 212.07080078 C-138.81337891 212.50972656 -139.37089844 212.94865234 -139.9453125 213.40087891 C-153.72001641 224.3637356 -166.64611097 237.01040523 -177.25585938 251.07080078 C-177.66433105 251.59754395 -178.07280273 252.12428711 -178.49365234 252.66699219 C-203.04766956 284.35574417 -219.42155437 321.5837052 -226.25585938 361.07080078 C-226.41812012 361.99828125 -226.58038086 362.92576172 -226.74755859 363.88134766 C-236.80890249 424.062513 -222.10250565 489.20028184 -186.859375 539.04589844 C-172.79773084 558.69746856 -156.57861546 577.43071817 -137.25585938 592.07080078 C-136.72766602 592.48072266 -136.19947266 592.89064453 -135.65527344 593.31298828 C-100.25702418 620.73902438 -57.72866441 638.01074259 -13.25585938 643.07080078 C-12.42989258 643.16506348 -11.60392578 643.25932617 -10.75292969 643.35644531 C33.53497926 647.90568109 78.81218439 639.61592957 118.74414062 620.07080078 C119.51032715 619.69729492 120.27651367 619.32378906 121.06591797 618.93896484 C144.0451526 607.60273121 164.31301415 592.79687938 182.74414062 575.07080078 C183.48108154 574.36673096 183.48108154 574.36673096 184.23291016 573.6484375 C190.96122386 567.19151797 196.99279853 560.40351014 202.74414062 553.07080078 C203.51113281 552.13236328 204.278125 551.19392578 205.06835938 550.22705078 C232.8563036 515.50330727 249.73394235 472.10538748 254.74414062 428.07080078 C254.83840332 427.24483398 254.93266602 426.41886719 255.02978516 425.56787109 C261.26400159 364.87626856 243.46317357 300.96752201 204.85742188 253.47705078 C202.21200424 250.28798517 199.48990503 247.17380534 196.74414062 244.07080078 C195.98488281 243.20068359 195.225625 242.33056641 194.44335938 241.43408203 C185.60178949 231.43038751 176.25503307 222.30673294 165.74414062 214.07080078 C164.7825 213.29220703 163.82085938 212.51361328 162.83007812 211.71142578 C92.10727173 155.49127082 -8.64587656 142.32313641 -90.25585938 182.07080078 Z " fill="#FFFFFF" transform="translate(790.255859375,1798.92919921875)"/>
<path d="M0 0 C1.20745377 -0.00705963 2.41490753 -0.01411926 3.65895081 -0.02139282 C7.53569568 -0.03891318 11.41227931 -0.04537795 15.2890625 -0.046875 C16.28124723 -0.04731686 16.28124723 -0.04731686 17.2934761 -0.04776764 C37.34496838 -0.04921003 57.04438099 0.25946848 76.9140625 3.203125 C78.30133978 3.39909354 79.68871407 3.59437623 81.07617188 3.7890625 C125.9018066 10.15807735 169.69912435 22.35313806 210.9140625 41.203125 C211.94499023 41.67186035 212.97591797 42.1405957 214.03808594 42.62353516 C235.92153064 52.64920633 256.7136748 64.16603197 276.7265625 77.515625 C277.66295059 78.13993408 277.66295059 78.13993408 278.61825562 78.77685547 C286.91946874 84.33177266 294.98287245 90.12818678 302.9140625 96.203125 C303.57591553 96.70690674 304.23776855 97.21068848 304.91967773 97.72973633 C327.01177749 114.62928918 349.10918468 133.71360157 367.0703125 155.01953125 C368.60975342 156.84272506 370.17423732 158.63337773 371.7578125 160.41796875 C379.94341831 169.67813766 387.55044273 179.27978125 394.9140625 189.203125 C395.45562988 189.92902832 395.99719727 190.65493164 396.55517578 191.40283203 C409.75787519 209.15412998 421.2391169 227.83741152 431.9140625 247.203125 C432.4090625 248.0998291 432.9040625 248.9965332 433.4140625 249.92041016 C464.94696094 307.51516704 482.38601079 371.98244768 487.9140625 437.203125 C487.98608887 438.01652344 488.05811523 438.82992188 488.13232422 439.66796875 C494.77126549 517.57427161 478.44591834 597.08334837 446.9140625 668.203125 C446.48915527 669.16202637 446.06424805 670.12092773 445.62646484 671.10888672 C426.89440291 712.8718072 400.54651549 753.0431755 369.328125 786.578125 C367.45071114 788.61958473 365.64218438 790.68695679 363.83984375 792.79296875 C359.44750675 797.82915289 354.73124411 802.53614431 349.9987793 807.2487793 C348.47914582 808.7630508 346.96493733 810.2825993 345.45117188 811.80273438 C340.11083046 817.14700292 334.67172798 822.3066727 328.9140625 827.203125 C327.86547662 828.12827279 326.81852598 829.05527821 325.7734375 829.984375 C315.92080622 838.64016421 305.4833418 846.44935024 294.9140625 854.203125 C294.26937012 854.68023926 293.62467773 855.15735352 292.96044922 855.64892578 C220.50105627 909.2284769 131.11561218 939.66352795 41.4140625 944.453125 C40.6457309 944.49432465 39.87739929 944.53552429 39.08578491 944.57797241 C-36.43311123 948.50162462 -112.39971083 933.7197321 -181.0859375 902.203125 C-182.59800781 901.51718262 -182.59800781 901.51718262 -184.140625 900.81738281 C-219.17372312 884.85249656 -251.73642968 864.21862121 -281.34179688 839.64306641 C-283.79760487 837.61558102 -286.28916618 835.63306804 -288.7734375 833.640625 C-294.50246229 828.94470304 -299.9077606 823.92982245 -305.30761719 818.86376953 C-307.19570814 817.10061815 -309.09666211 815.3521437 -311 813.60546875 C-322.70775956 802.8297274 -322.70775956 802.8297274 -327.625 796.9140625 C-329.14962151 795.12854319 -330.77084114 793.5195414 -332.4609375 791.890625 C-336.17211152 788.23718035 -339.39297145 784.25166454 -342.65234375 780.1953125 C-344.70118709 777.67618891 -346.79811077 775.21207275 -348.92700195 772.76074219 C-360.42895536 759.45476526 -370.60943146 745.00597138 -380.0859375 730.203125 C-380.80982666 729.07994873 -380.80982666 729.07994873 -381.54833984 727.93408203 C-435.51061902 643.83591925 -458.62611282 548.35133091 -444.72680664 365.79174805 C-429.24312056 297.54579306 -398.03148927 232.6504331 -354.0859375 178.203125 C-353.30347656 177.22601562 -352.52101563 176.24890625 -351.71484375 175.2421875 C-347.43462113 169.94569019 -343.01663154 164.81122136 -338.421875 159.78515625 C-337.17334236 158.40508924 -335.93024353 157.01934177 -334.72729492 155.59936523 C-329.29981129 149.22621556 -323.38715292 143.35309647 -317.46166992 137.44848633 C-315.65232817 135.64450415 -313.84839431 133.83523835 -312.04492188 132.02539062 C-306.22856945 126.20538276 -300.38978061 120.50026375 -294.0859375 115.203125 C-293.06411616 114.31493747 -292.04323478 113.42566703 -291.0234375 112.53515625 C-282.65951927 105.36131681 -273.99132402 98.68989428 -265.0859375 92.203125 C-264.08868652 91.47440186 -264.08868652 91.47440186 -263.07128906 90.73095703 C-246.2761808 78.51225041 -228.79482842 67.25191124 -210.46435547 57.47460938 C-208.81380945 56.59223988 -207.1672564 55.70237639 -205.52392578 54.80664062 C-143.62682965 21.07120311 -70.71604263 0.27661904 0 0 Z M-136.0859375 150.203125 C-136.90368652 150.59081055 -137.72143555 150.97849609 -138.56396484 151.37792969 C-176.4750022 169.44207666 -209.52103259 194.47136636 -239.1484375 224.078125 C-240.07720703 224.99464844 -241.00597656 225.91117188 -241.96289062 226.85546875 C-248.11273841 232.99236948 -253.68183671 239.40617317 -259.0859375 246.203125 C-260.06247568 247.37697896 -261.04236769 248.54806096 -262.02734375 249.71484375 C-319.89092335 319.31163046 -346.46353646 413.66499919 -339.13842773 503.25830078 C-332.63312083 572.6377402 -306.408456 638.64360742 -263.0859375 693.203125 C-262.34730469 694.13640625 -261.60867188 695.0696875 -260.84765625 696.03125 C-255.64222218 702.50337051 -250.11125322 708.63403329 -244.45898438 714.71240234 C-242.24184692 717.11955763 -240.07675853 719.5733663 -237.8984375 722.015625 C-234.52883435 725.72377541 -231.09161005 729.12336005 -227.2578125 732.34375 C-225.10385094 734.18778903 -223.03331832 736.1064518 -220.96582031 738.04638672 C-214.00532934 744.55293263 -206.68687563 750.46431058 -199.0859375 756.203125 C-198.43447754 756.70038086 -197.78301758 757.19763672 -197.11181641 757.70996094 C-136.20515058 803.97742575 -59.86001963 828.8146712 16.4765625 828.515625 C17.42840424 828.51413452 18.38024597 828.51264404 19.3609314 828.5111084 C35.38332738 828.46627694 51.05111071 827.60396264 66.9140625 825.203125 C67.90519043 825.05858887 68.89631836 824.91405273 69.91748047 824.76513672 C103.50157447 819.7648998 136.21663277 809.67398171 166.9140625 795.203125 C167.82027344 794.77950684 168.72648437 794.35588867 169.66015625 793.91943359 C189.49432409 784.5685378 208.40361778 773.41814147 225.9140625 760.203125 C226.72012939 759.60105225 226.72012939 759.60105225 227.54248047 758.98681641 C243.42403899 747.11209468 258.17576484 733.99834866 272.2265625 720.015625 C272.88438721 719.36247314 273.54221191 718.70932129 274.2199707 718.03637695 C336.03475883 656.0185333 372.03491053 565.62898497 372.24365234 478.39404297 C372.23983214 476.30956603 372.23410046 474.22509181 372.2265625 472.140625 C372.22440735 471.06363342 372.2222522 469.98664185 372.22003174 468.87701416 C372.16743545 452.46666814 371.67343556 436.41505659 368.9140625 420.203125 C368.71006836 418.98109375 368.50607422 417.7590625 368.29589844 416.5 C362.50548779 382.65096191 352.74021804 350.21471011 337.9140625 319.203125 C337.53701172 318.40132812 337.15996094 317.59953125 336.77148438 316.7734375 C322.5101056 286.56151496 303.46260816 258.92983055 280.87109375 234.34375 C279.10813744 232.41540657 277.41452301 230.4468451 275.7265625 228.453125 C267.84031145 219.40604728 259.10572986 210.91170907 249.9140625 203.203125 C249.01042969 202.41035156 248.10679687 201.61757813 247.17578125 200.80078125 C213.81593058 171.69419162 173.63669451 149.59765552 131.9140625 135.203125 C131.08745117 134.91743652 130.26083984 134.63174805 129.40917969 134.33740234 C106.10465199 126.39854989 82.25493011 121.58108264 57.9140625 118.203125 C56.96450684 118.06890137 56.01495117 117.93467773 55.03662109 117.79638672 C-9.30981269 109.13647485 -77.92238525 122.33626868 -136.0859375 150.203125 Z " fill="#FFFFFF" transform="translate(1904.0859375,491.796875)"/>
</svg>
