<?xml version="1.0" encoding="UTF-8"?>
<svg version="1.1" xmlns="http://www.w3.org/2000/svg" width="578" height="482">
<path d="M0 0 C1.49964478 -0.00591858 2.99928007 -0.0148996 4.49889028 -0.02667648 C8.61680374 -0.05008832 12.73352232 -0.02983035 16.85136843 -0.00239742 C21.29314346 0.01960042 25.73477532 0.00125816 30.17655945 -0.01202393 C38.87619198 -0.0315987 47.57536498 -0.01371175 56.27495004 0.01693962 C66.40151073 0.05131883 76.52796758 0.04954996 86.65457432 0.04646113 C104.71906148 0.04226959 122.78333268 0.07226582 140.8477478 0.12089539 C158.38588464 0.16808876 175.92380565 0.18932272 193.46200562 0.18241882 C215.59805953 0.17376167 237.73398118 0.18795596 259.87001158 0.2211712 C266.93296628 0.23109259 273.99589633 0.23281488 281.05885696 0.23182106 C289.66171949 0.23106458 298.26441164 0.24517533 306.8672135 0.27810023 C311.25859584 0.29460485 315.64974548 0.30473305 320.04115868 0.29766846 C324.05797593 0.29141902 328.07429512 0.30353928 332.0910223 0.33059158 C333.54714812 0.33716442 335.00332297 0.33695107 336.45944412 0.32941393 C338.43295221 0.32021531 340.40653157 0.33785119 342.37996864 0.35695362 C343.47790516 0.35922925 344.57584169 0.36150488 345.70704901 0.36384946 C349.20165568 0.9900339 350.41525941 2.05520289 352.52450562 4.86869812 C352.52450562 5.85869812 352.52450562 6.84869812 352.52450562 7.86869812 C353.18450562 7.86869812 353.84450562 7.86869812 354.52450562 7.86869812 C354.5513524 10.51459826 354.57126918 13.16022908 354.58700562 15.80619812 C354.59538452 16.56094421 354.60376343 17.31569031 354.61239624 18.0933075 C354.62103002 20.01864125 354.57674894 21.94405393 354.52450562 23.86869812 C354.19450562 24.19869812 353.86450562 24.52869812 353.52450562 24.86869812 C353.22870857 26.35139707 352.98705141 27.84501197 352.77059937 29.34135437 C352.63847046 30.24047546 352.50634155 31.13959656 352.37020874 32.06596375 C352.16814819 33.48425476 352.16814819 33.48425476 351.96200562 34.93119812 C351.8234314 35.88059265 351.68485718 36.82998718 351.54208374 37.80815125 C351.19918375 40.16115462 350.86016625 42.51465295 350.52450562 44.86869812 C349.86450562 44.86869812 349.20450562 44.86869812 348.52450562 44.86869812 C348.48325562 46.06494812 348.44200562 47.26119812 348.39950562 48.49369812 C347.67854985 55.42596509 344.4305224 61.62120638 341.52450562 67.86869812 C340.86450562 67.86869812 340.20450562 67.86869812 339.52450562 67.86869812 C339.44200562 68.59057312 339.35950562 69.31244812 339.27450562 70.05619812 C338.36980786 73.4488147 336.77624605 75.20755034 334.52450562 77.86869812 C333.81564667 79.18008716 333.12994109 80.50646829 332.52450562 81.86869812 C331.86450562 81.86869812 331.20450562 81.86869812 330.52450562 81.86869812 C330.40075562 82.46682312 330.27700562 83.06494812 330.14950562 83.68119812 C329.52450562 85.86869812 329.52450562 85.86869812 327.52450562 88.86869812 C326.86450562 88.86869812 326.20450562 88.86869812 325.52450562 88.86869812 C325.35950562 89.54932312 325.19450562 90.22994812 325.02450562 90.93119812 C322.78661757 95.31372887 319.3100875 97.80774907 315.52450562 100.86869812 C314.64020874 101.60346375 313.75591187 102.33822937 312.84481812 103.09526062 C305.80652858 108.86869812 305.80652858 108.86869812 303.52450562 108.86869812 C303.19450562 109.85869812 302.86450562 110.84869812 302.52450562 111.86869812 C300.12606812 113.47416687 300.12606812 113.47416687 297.14950562 115.05619812 C296.17239624 115.58600281 295.19528687 116.1158075 294.18856812 116.66166687 C291.52450562 117.86869812 291.52450562 117.86869812 288.52450562 117.86869812 C288.52450562 118.52869812 288.52450562 119.18869812 288.52450562 119.86869812 C287.27787231 120.37703403 286.02701175 120.87500957 284.77450562 121.36869812 C283.73036499 121.78635437 283.73036499 121.78635437 282.66513062 122.21244812 C280.52450562 122.86869812 280.52450562 122.86869812 276.52450562 122.86869812 C276.52450562 123.52869812 276.52450562 124.18869812 276.52450562 124.86869812 C275.80005249 125.0620575 275.07559937 125.25541687 274.32919312 125.45463562 C268.259241 127.08310533 268.259241 127.08310533 262.27450562 128.99369812 C256.42059485 130.85630609 250.4985816 131.01081427 244.40341187 130.96635437 C243.65865097 130.96493942 242.91389008 130.96352448 242.14656067 130.96206665 C239.79333288 130.95651801 237.44020411 130.94397545 235.08700562 130.93119812 C233.48088721 130.92617647 231.87476729 130.92161473 230.26864624 130.91752625 C226.35389519 130.90656547 222.43921712 130.88933696 218.52450562 130.86869812 C218.53449837 132.76883919 218.53449837 132.76883919 218.54469299 134.70736694 C218.60548629 146.64057618 218.65046977 158.57375403 218.67994213 170.50708294 C218.69560348 176.642254 218.71685061 182.77730013 218.75082397 188.91239929 C218.78340024 194.83219444 218.8013551 200.75186935 218.80913734 206.67174721 C218.81468393 208.9312053 218.82551493 211.19065675 218.84169579 213.45006371 C218.86344665 216.61278421 218.86647347 219.77500675 218.86508179 222.93778992 C218.87586761 223.87358887 218.88665344 224.80938782 218.89776611 225.77354431 C218.87471755 230.6085933 218.74015508 233.97510686 215.52450562 237.86869812 C213.16206389 239.04991898 211.73219784 239.00199162 209.09692383 239.01586914 C208.16598404 239.02302444 207.23504425 239.03017975 206.27589417 239.03755188 C205.25143692 239.04024078 204.22697968 239.04292969 203.17147827 239.04570007 C202.09496506 239.05227127 201.01845184 239.05884247 199.90931702 239.06561279 C196.33573341 239.08537487 192.76219184 239.09701373 189.18856812 239.10697937 C187.36188662 239.11309266 187.36188662 239.11309266 185.49830246 239.11932945 C179.05521564 239.14020073 172.6121502 239.15449895 166.16903687 239.16386414 C159.5016016 239.17393417 152.83454495 239.20935527 146.16721535 239.24903584 C141.05091718 239.27513009 135.93469917 239.28354949 130.8183403 239.28714561 C128.35988489 239.29202871 125.90143346 239.30369125 123.44304276 239.32218361 C120.00719778 239.34642574 116.5722256 239.34563723 113.13632202 239.33866882 C111.60570885 239.35788391 111.60570885 239.35788391 110.04417419 239.37748718 C103.1647108 239.32648271 103.1647108 239.32648271 99.86126709 236.96432495 C98.52450562 234.86869812 98.52450562 234.86869812 98.52450562 232.86869812 C97.86450562 232.86869812 97.20450562 232.86869812 96.52450562 232.86869812 C96.51863937 231.95938538 96.51277313 231.05007263 96.50672913 230.11320496 C96.44869654 221.52129747 96.37655941 212.92964701 96.2887907 204.33798981 C96.2441654 199.92148686 96.20489224 195.50507448 96.17807007 191.08842468 C96.15195854 186.8218221 96.11150132 182.55556954 96.06131935 178.28918457 C96.04470352 176.66584647 96.03315646 175.04244791 96.02689171 173.41903687 C96.06389398 161.81040807 96.06389398 161.81040807 92.52450562 150.86869812 C92.11200562 149.83744812 91.69950562 148.80619812 91.27450562 147.74369812 C88.68449791 143.48868546 85.00228636 140.10758849 80.52450562 137.86869812 C80.52450562 137.20869812 80.52450562 136.54869812 80.52450562 135.86869812 C79.78200562 135.74494812 79.03950562 135.62119812 78.27450562 135.49369812 C75.52450562 134.86869812 75.52450562 134.86869812 73.71200562 133.86869812 C67.89970965 131.21164854 60.57051334 131.70388441 54.27450562 131.62260437 C52.51408369 131.58968122 50.75366715 131.55646933 48.99325562 131.522995 C46.25500966 131.47560605 43.51678787 131.43108765 40.77841187 131.39189148 C38.11023147 131.35193577 35.44245713 131.30047651 32.77450562 131.24760437 C31.96594116 131.23919022 31.15737671 131.23077606 30.3243103 131.22210693 C25.10282829 131.10989695 20.55031823 130.3026468 15.52450562 128.86869812 C15.52450562 128.20869812 15.52450562 127.54869812 15.52450562 126.86869812 C14.72013062 126.82744812 13.91575562 126.78619812 13.08700562 126.74369812 C8.2237463 125.54921338 4.35701292 123.07948757 0.52450562 119.86869812 C0.52450562 119.20869812 0.52450562 118.54869812 0.52450562 117.86869812 C-0.58151001 117.53805359 -0.58151001 117.53805359 -1.70986938 117.20072937 C-5.15772189 115.54011114 -6.52207939 113.66368606 -8.72549438 110.55619812 C-9.41127563 109.61131531 -10.09705688 108.6664325 -10.80361938 107.69291687 C-12.41659252 104.96819823 -13.08971986 102.98326007 -13.47549438 99.86869812 C-14.13549438 99.86869812 -14.79549438 99.86869812 -15.47549438 99.86869812 C-15.93444245 98.34805019 -16.39261652 96.82716864 -16.85049438 95.30619812 C-17.10572876 94.45928406 -17.36096313 93.61237 -17.62393188 92.73979187 C-17.90494751 91.79233093 -18.18596313 90.84487 -18.47549438 89.86869812 C-18.81641113 88.81057922 -19.15732788 87.75246033 -19.50857544 86.66227722 C-20.511013 82.72934552 -20.75504733 79.3530039 -20.79776001 75.30033875 C-20.80768982 74.57904282 -20.81761963 73.85774689 -20.82785034 73.11459351 C-20.85683249 70.75133834 -20.87064888 68.38835105 -20.88174438 66.02494812 C-20.89022652 64.8065197 -20.89022652 64.8065197 -20.89888 63.56347656 C-20.9287505 59.26953349 -20.94728375 54.97572298 -20.95596313 50.6816864 C-20.96695125 46.25968387 -21.01507424 41.83890722 -21.07190704 37.41728973 C-21.10923452 34.00279724 -21.11957456 30.58859894 -21.12263489 27.17391968 C-21.12866673 25.54405983 -21.14465255 23.91420385 -21.17100525 22.2845459 C-21.20531223 20.00110771 -21.20132982 17.72065225 -21.18838501 15.4370575 C-21.19567627 14.14134827 -21.20296753 12.84563904 -21.21047974 11.51066589 C-18.83772855 -0.24668865 -10.42192138 -0.13673728 0 0 Z M2.52450562 22.86869812 C2.52450562 42.00869812 2.52450562 61.14869812 2.52450562 80.86869812 C3.18450562 80.86869812 3.84450562 80.86869812 4.52450562 80.86869812 C4.60700562 82.06494812 4.68950562 83.26119812 4.77450562 84.49369812 C5.341056 88.85766732 6.76029142 91.37705914 9.52450562 94.86869812 C10.03239624 95.53127625 10.54028687 96.19385437 11.06356812 96.87651062 C18.11722726 105.60501121 25.60559193 107.66234514 36.52450562 108.86869812 C43.97674089 109.28436481 51.45568049 109.27192419 58.91757202 109.32499695 C61.48999164 109.34675659 64.06170819 109.38615581 66.63388062 109.42729187 C67.7950943 109.42746559 67.7950943 109.42746559 68.97976685 109.42764282 C75.81468208 109.5506 80.88684194 111.73177412 87.14950562 114.43119812 C90.23999013 115.7475156 93.32429732 116.85399793 96.52450562 117.86869812 C96.52450562 118.52869812 96.52450562 119.18869812 96.52450562 119.86869812 C98.1214773 121.13659598 98.1214773 121.13659598 100.14950562 122.43119812 C104.32866662 125.41737168 106.70411664 128.72021846 109.29794312 133.11088562 C109.70270874 133.69096375 110.10747437 134.27104187 110.52450562 134.86869812 C111.18450562 134.86869812 111.84450562 134.86869812 112.52450562 134.86869812 C112.74106812 136.01338562 112.74106812 136.01338562 112.96200562 137.18119812 C113.48776502 139.9504272 113.48776502 139.9504272 114.52450562 142.86869812 C115.18450562 142.86869812 115.84450562 142.86869812 116.52450562 142.86869812 C118.20343682 152.11796269 118.85326364 161.09092445 118.93856812 170.48197937 C118.95621216 171.66803772 118.9738562 172.85409607 118.99203491 174.07609558 C119.05440035 178.44433327 119.10106843 182.81278379 119.14950562 187.18119812 C119.27325562 196.97807312 119.39700562 206.77494812 119.52450562 216.86869812 C144.60450562 216.86869812 169.68450562 216.86869812 195.52450562 216.86869812 C195.52450562 188.48869812 195.52450562 160.10869812 195.52450562 130.86869812 C180.67450562 130.37369812 180.67450562 130.37369812 165.52450562 129.86869812 C160.71349003 125.05768253 160.16168232 122.3466613 159.52450562 115.86869812 C160.18450562 115.86869812 160.84450562 115.86869812 161.52450562 115.86869812 C161.81325562 115.22932312 162.10200562 114.58994812 162.39950562 113.93119812 C163.52450562 111.86869812 163.52450562 111.86869812 165.52450562 110.86869812 C165.52450562 110.20869812 165.52450562 109.54869812 165.52450562 108.86869812 C166.34231003 108.87313934 167.16011444 108.87758057 168.00270081 108.88215637 C175.81042478 108.92267416 183.6180959 108.95290222 191.42589855 108.97232246 C195.43741118 108.98264302 199.44883506 108.9965798 203.46029663 109.01957703 C225.1028216 109.22908904 225.1028216 109.22908904 246.70028687 108.04838562 C247.88330635 107.94398666 247.88330635 107.94398666 249.09022522 107.83747864 C253.78929001 107.3238953 258.02092575 106.19415669 262.46925354 104.59944153 C265.44923135 103.53991255 268.47705937 102.71160878 271.52450562 101.86869812 C271.52450562 101.20869812 271.52450562 100.54869812 271.52450562 99.86869812 C272.66919312 99.65213562 272.66919312 99.65213562 273.83700562 99.43119812 C276.6062347 98.90543872 276.6062347 98.90543872 279.52450562 97.86869812 C279.52450562 97.20869812 279.52450562 96.54869812 279.52450562 95.86869812 C280.08138062 95.74494812 280.63825562 95.62119812 281.21200562 95.49369812 C285.55217499 94.32067937 288.40463624 93.08821934 291.52450562 89.86869812 C292.80858954 88.7350508 294.10075993 87.61051834 295.39950562 86.49369812 C298.57255393 83.7340194 301.591542 80.8854607 304.52450562 77.86869812 C305.12263062 77.31182312 305.72075562 76.75494812 306.33700562 76.18119812 C307.74814339 74.91651541 307.74814339 74.91651541 307.52450562 72.86869812 C308.16388062 72.60057312 308.80325562 72.33244812 309.46200562 72.05619812 C311.85582248 70.9820206 311.85582248 70.9820206 312.52450562 67.86869812 C313.18450562 67.53869812 313.84450562 67.20869812 314.52450562 66.86869812 C316.7143993 63.30855668 318.58815832 59.57171279 320.52450562 55.86869812 C320.90091187 55.18033875 321.27731812 54.49197937 321.66513062 53.78276062 C326.91578539 43.90652903 329.52450562 34.00744288 329.52450562 22.86869812 C221.61450562 22.86869812 113.70450562 22.86869812 2.52450562 22.86869812 Z " fill="#FFFFFF" transform="translate(141.47549438476563,228.1313018798828)"/>
<path d="M0 0 C1.39356216 -0.01292336 1.39356216 -0.01292336 2.8152771 -0.02610779 C5.8810424 -0.04877922 8.94589457 -0.04202703 12.01171875 -0.03295898 C14.14494092 -0.03819377 16.27816076 -0.04446972 18.41137695 -0.05174255 C22.88015645 -0.06214876 27.34861755 -0.05758157 31.81738281 -0.04296875 C37.54432192 -0.02577471 43.27025834 -0.04928329 48.99708557 -0.08445835 C53.40147552 -0.10641636 57.80562492 -0.10499479 62.21005249 -0.09669304 C64.32157491 -0.09587277 66.43311486 -0.10275062 68.54458618 -0.11746407 C71.49649761 -0.13488148 74.44659897 -0.12039076 77.3984375 -0.09765625 C78.27027679 -0.10934845 79.14211609 -0.12104065 80.04037476 -0.13308716 C80.84778107 -0.1204332 81.65518738 -0.10777924 82.48706055 -0.09474182 C83.53231148 -0.09386236 83.53231148 -0.09386236 84.59867859 -0.09296513 C88.01553827 0.92599337 89.5296946 2.76098223 91.69921875 5.53344727 C92.32842445 8.85214233 92.32842445 8.85214233 92.33413696 12.70678711 C92.34193692 13.41806952 92.34973687 14.12935192 92.35777318 14.86218834 C92.37768071 17.24011765 92.36193529 19.61644425 92.34619141 21.99438477 C92.35296815 23.70128309 92.3618716 25.4081741 92.3727417 27.11505127 C92.3955351 31.74735694 92.38669862 36.3791058 92.37084627 41.0114212 C92.35818747 45.85911052 92.36992733 50.70675217 92.3777771 55.55444336 C92.38687372 63.6953182 92.37488542 71.83596624 92.35107422 79.97680664 C92.32386291 89.38880526 92.33267706 98.80026235 92.36020625 108.21224785 C92.38289595 116.29308648 92.38609808 124.37376208 92.3730129 132.45462227 C92.36521763 137.28101605 92.36417889 142.10715529 92.38069534 146.93353271 C92.39513885 151.47112121 92.38512083 156.00801153 92.35622406 160.5455246 C92.34961257 162.21080109 92.35151206 163.87613634 92.36253738 165.54138947 C92.37620323 167.81508855 92.35906888 170.08655091 92.33413696 172.36010742 C92.33130927 174.26815659 92.33130927 174.26815659 92.32842445 176.2147522 C91.52521456 180.45121841 90.08446321 181.93454832 86.69921875 184.53344727 C84.59867859 185.15985966 84.59867859 185.15985966 82.48706055 185.16163635 C81.67965424 185.17429031 80.87224792 185.18694427 80.04037476 185.19998169 C79.16853546 185.18828949 78.29669617 185.17659729 77.3984375 185.16455078 C76.00487534 185.17528374 76.00487534 185.17528374 74.5831604 185.18623352 C71.51717716 185.20311972 68.45265626 185.183718 65.38671875 185.16235352 C63.25349812 185.16318222 61.12027755 185.16564165 58.98706055 185.16966248 C54.5181962 185.17252043 50.04983306 185.15781902 45.58105469 185.13037109 C39.85420265 185.09628874 34.12824686 185.10230678 28.40135193 185.12103367 C23.99695371 185.13160468 19.59276386 185.12266482 15.18838501 185.10764885 C13.07688007 185.10246735 10.96535338 185.10294844 8.85385132 185.1091938 C5.90209195 185.11464709 2.95161342 185.09426665 0 185.06689453 C-1.30775894 185.07668335 -1.30775894 185.07668335 -2.64193726 185.08666992 C-6.68028653 185.02302687 -8.80247614 184.83813525 -12.31958008 182.68760681 C-15.74526076 178.96286505 -15.42629469 175.60156166 -15.42776489 170.73901367 C-15.42932488 170.04436319 -15.43088487 169.34971272 -15.43249214 168.63401222 C-15.43648812 166.30098997 -15.4333179 163.96803253 -15.43017578 161.63500977 C-15.43153044 159.96457888 -15.43331074 158.29414828 -15.43548584 156.62371826 C-15.44005244 152.08250957 -15.43827377 147.54132354 -15.43510675 143.00011444 C-15.43257918 138.25292397 -15.4349218 133.50573547 -15.43649292 128.75854492 C-15.43831345 120.78572236 -15.43591135 112.81290905 -15.43115234 104.84008789 C-15.42570995 95.61572083 -15.42747269 86.39137588 -15.43297875 77.16700935 C-15.43751319 69.25443902 -15.4381588 61.34187534 -15.43554008 53.42930412 C-15.43397914 48.70028191 -15.43377857 43.97127009 -15.43707657 39.24224854 C-15.43996007 34.79686699 -15.43797072 30.35151401 -15.43218231 25.90613556 C-15.4308573 24.27226051 -15.43124447 22.63838307 -15.43344498 21.00450897 C-15.43616658 18.77893354 -15.4327629 16.55345037 -15.42776489 14.32788086 C-15.42738787 13.08090424 -15.42701084 11.83392761 -15.42662239 10.54916382 C-15.27268814 6.8602106 -14.83436785 5.11361584 -12.31958008 2.37928772 C-8.14775864 -0.17156685 -4.80195201 -0.0359435 0 0 Z M7.69921875 22.53344727 C7.69921875 68.73344727 7.69921875 114.93344727 7.69921875 162.53344727 C27.82921875 162.53344727 47.95921875 162.53344727 68.69921875 162.53344727 C68.69921875 116.33344727 68.69921875 70.13344727 68.69921875 22.53344727 C48.56921875 22.53344727 28.43921875 22.53344727 7.69921875 22.53344727 Z " fill="#FFFFFF" transform="translate(136.30078125,39.466552734375)"/>
<path d="M0 0 C1.01331642 -0.00623996 2.02663284 -0.01247993 3.07065582 -0.01890898 C6.47637492 -0.03490224 9.88138459 -0.02220956 13.28710938 -0.00964355 C15.72453226 -0.01506184 18.16195186 -0.02218283 20.59936523 -0.03088379 C26.53855182 -0.04725601 32.47755321 -0.04482345 38.4167347 -0.03323323 C43.24309067 -0.02420413 48.06938996 -0.02297262 52.89575195 -0.02732849 C53.58234469 -0.02794142 54.26893743 -0.02855436 54.976336 -0.02918586 C56.37108296 -0.03046475 57.7658299 -0.0317616 59.16057682 -0.03307623 C72.24288806 -0.04448575 85.32508724 -0.03136253 98.4073801 -0.00987476 C109.63557516 0.0079966 120.86360481 0.00489259 132.09179688 -0.0135498 C145.12689692 -0.03495 158.1618987 -0.04338708 171.19701385 -0.03110075 C172.58666482 -0.02982654 173.9763158 -0.02856905 175.3659668 -0.02732849 C176.04972334 -0.02671139 176.73347989 -0.02609429 177.43795633 -0.02545848 C182.25919863 -0.02200302 187.08037867 -0.02783814 191.90161133 -0.0372467 C198.38917798 -0.04962865 204.87650539 -0.04082857 211.36404419 -0.01766968 C213.74894693 -0.01236815 216.13387591 -0.01392087 218.51876831 -0.02272034 C221.76677765 -0.033602 225.01377446 -0.02000071 228.26171875 0 C229.68758175 -0.01338433 229.68758175 -0.01338433 231.14225006 -0.02703905 C237.47966993 0.04899858 237.47966993 0.04899858 240.74768066 2.35218048 C242.13085938 4.50793457 242.13085938 4.50793457 242.13085938 7.50793457 C242.79085938 7.50793457 243.45085937 7.50793457 244.13085938 7.50793457 C244.5509056 13.59860483 244.18749988 16.61610338 240.13085938 21.50793457 C237.84340573 22.65166139 236.56822966 22.638002 234.02562237 22.64774227 C232.72845131 22.65627913 232.72845131 22.65627913 231.40507478 22.66498846 C230.44935588 22.66616834 229.49363698 22.66734821 228.50895691 22.66856384 C227.4980549 22.67365166 226.4871529 22.67873948 225.4456175 22.68398148 C222.03625619 22.69975899 218.62691615 22.70824492 215.2175293 22.7166748 C212.78202681 22.72620884 210.3465257 22.7360998 207.911026 22.74632263 C200.58660595 22.77504086 193.26218617 22.79479491 185.93773147 22.81171498 C183.8696348 22.81650906 181.80153866 22.82149249 179.73344254 22.8265202 C166.89567324 22.85748818 154.05789946 22.88417834 141.22010326 22.90093899 C138.2459379 22.9048886 135.27177262 22.90889158 132.29760742 22.91296387 C131.18876256 22.91447641 131.18876256 22.91447641 130.05751679 22.91601951 C118.07844585 22.93303187 106.09958129 22.97414689 94.12061115 23.02498686 C81.82711939 23.07673334 69.53373384 23.10587721 57.24013406 23.11313587 C50.33559678 23.1178017 43.43139757 23.13258971 36.526968 23.17288017 C30.03366255 23.21072524 23.54077544 23.21819314 17.047369 23.20487404 C14.66124667 23.20492817 12.27509945 23.21529963 9.88907242 23.23662567 C6.63658018 23.2641472 3.38621956 23.25486875 0.13371277 23.2361908 C-1.28982733 23.26138319 -1.28982733 23.26138319 -2.74212581 23.28708452 C-8.96237517 23.1975308 -8.96237517 23.1975308 -11.57632387 21.20961964 C-14.19278236 18.19870422 -15.50892314 15.81307619 -15.24414062 11.82043457 C-15.210625 11.07406738 -15.17710937 10.3277002 -15.14257812 9.55871582 C-14.76633767 6.7369124 -14.00843049 4.71563956 -12.42346191 2.35218048 C-8.48393646 -0.49219691 -4.74446376 -0.04453546 0 0 Z " fill="#FFFFFF" transform="translate(251.869140625,201.4920654296875)"/>
<path d="M0 0 C1.39356216 -0.01292336 1.39356216 -0.01292336 2.8152771 -0.02610779 C5.8810424 -0.04877922 8.94589457 -0.04202703 12.01171875 -0.03295898 C14.14494092 -0.03819377 16.27816076 -0.04446972 18.41137695 -0.05174255 C22.88015645 -0.06214876 27.34861755 -0.05758157 31.81738281 -0.04296875 C37.54432192 -0.02577471 43.27025834 -0.04928329 48.99708557 -0.08445835 C53.40147552 -0.10641636 57.80562492 -0.10499479 62.21005249 -0.09669304 C64.32157491 -0.09587277 66.43311486 -0.10275062 68.54458618 -0.11746407 C71.49649761 -0.13488148 74.44659897 -0.12039076 77.3984375 -0.09765625 C78.27027679 -0.10934845 79.14211609 -0.12104065 80.04037476 -0.13308716 C84.41522173 -0.06452299 86.17143616 0.12441417 89.73901367 2.88929749 C92.06225287 6.02314939 92.37356697 7.66454662 92.32421875 11.53344727 C92.34355469 13.04938477 92.34355469 13.04938477 92.36328125 14.59594727 C91.44293755 18.66711468 89.99277924 19.97985335 86.69921875 22.53344727 C83.59773862 23.26099667 80.57297575 23.21727304 77.3984375 23.18041992 C76.46939606 23.18918152 75.54035461 23.19794312 74.5831604 23.20697021 C71.51720246 23.22894739 68.45269093 23.2144171 65.38671875 23.19750977 C63.25349654 23.20087837 61.12027619 23.20573136 58.98706055 23.21200562 C54.51820588 23.21937469 50.0498512 23.20866993 45.58105469 23.18530273 C39.85408226 23.1568154 34.12828138 23.17321912 28.40135193 23.20316505 C23.9969399 23.22123681 19.59280542 23.21548045 15.18838501 23.20252609 C13.07687237 23.19919177 10.96533449 23.20328006 8.85385132 23.21492386 C5.90188907 23.22763018 2.95182121 23.20825793 0 23.18041992 C-1.30775894 23.19560165 -1.30775894 23.19560165 -2.64193726 23.21109009 C-7.05013705 23.13411305 -8.76263032 22.96403873 -12.31958008 20.11801147 C-15.51500971 15.94943275 -15.64727289 12.67986714 -15.30078125 7.53344727 C-12.77716468 -0.03740244 -6.8972696 -0.05162734 0 0 Z " fill="#FFFFFF" transform="translate(136.30078125,12.466552734375)"/>
</svg>
